<svg xmlns="http://www.w3.org/2000/svg" width="153" height="47" viewBox="0 0 153 47" fill="none">
<path fill-rule="evenodd" clip-rule="evenodd" d="M94.8563 36.1661C86.0562 42.621 73.2912 46.053 62.3052 46.053C46.9049 46.053 33.0376 40.3973 22.5437 30.9806C21.7204 30.2424 22.4538 29.2317 23.4473 29.8052C34.7692 36.3542 48.7738 40.2938 63.2325 40.2938C72.9884 40.2938 83.7142 38.2817 93.5789 34.121C95.0645 33.4958 96.3136 35.0942 94.8563 36.1661V36.1661Z" fill="white"/>
<path fill-rule="evenodd" clip-rule="evenodd" d="M98.5176 32.0095C97.3915 30.5756 91.0753 31.3325 88.2365 31.671C87.3754 31.7745 87.243 31.027 88.0189 30.4863C93.0577 26.9697 101.314 27.9852 102.274 29.1605C103.239 30.35 102.019 38.5726 97.2969 42.4982C96.5683 43.0999 95.8775 42.7802 96.204 41.981C97.2685 39.3436 99.6436 33.4434 98.5176 32.0095V32.0095Z" fill="white"/>
<path fill-rule="evenodd" clip-rule="evenodd" d="M88.4349 5.6452V2.22735C88.4349 1.7055 88.8323 1.3623 89.3054 1.3623H104.72C105.212 1.3623 105.609 1.7149 105.609 2.22264V5.15156C105.609 5.6452 105.188 6.28458 104.45 7.30476L96.4685 18.6302C99.4303 18.5597 102.567 19.0016 105.259 20.506C105.865 20.8445 106.03 21.3476 106.078 21.8412V25.4894C106.078 25.9925 105.524 26.5707 104.942 26.2699C100.197 23.8017 93.9042 23.529 88.6572 26.3028C88.1226 26.5848 87.5596 26.0113 87.5596 25.5082V22.0434C87.5596 21.4886 87.569 20.539 88.1321 19.6927L97.3817 6.50554H89.3291C88.837 6.50554 88.4396 6.15764 88.4396 5.6452H88.4349Z" fill="white"/>
<path fill-rule="evenodd" clip-rule="evenodd" d="M32.2195 26.9851H27.5308C27.0861 26.9569 26.7265 26.6231 26.6934 26.1953V2.28916C26.6934 1.80963 27.1002 1.42882 27.6018 1.42882H31.9687C32.4277 1.45233 32.792 1.79552 32.8203 2.23275V5.35442H32.9102C34.0457 2.33617 36.1937 0.925781 39.0798 0.925781C41.9659 0.925781 43.8489 2.33617 45.1642 5.35442C46.3045 2.33617 48.883 0.925781 51.6413 0.925781C53.6095 0.925781 55.7575 1.72971 57.0681 3.54441C58.5537 5.55657 58.2509 8.47609 58.2509 11.043V26.1248C58.2509 26.5996 57.844 26.9851 57.3425 26.9851H52.6585C52.1854 26.9569 51.8164 26.5855 51.8164 26.1248V13.4501C51.8164 12.444 51.9015 9.92879 51.6839 8.97443C51.3338 7.36188 50.2835 6.91055 48.9256 6.91055C47.7853 6.91055 46.6073 7.66746 46.1247 8.871C45.6421 10.0792 45.6894 12.0914 45.6894 13.4501V26.1248C45.6894 26.5996 45.2872 26.9851 44.7857 26.9851H40.1018C39.6286 26.9569 39.2596 26.5855 39.2596 26.1248V13.4501C39.2596 10.7844 39.6901 6.85883 36.3688 6.85883C33.0474 6.85883 33.1279 10.681 33.1279 13.4501V26.1248C33.1279 26.5996 32.721 26.9851 32.2195 26.9851V26.9851Z" fill="white"/>
<path fill-rule="evenodd" clip-rule="evenodd" d="M118.877 0.920898C125.837 0.920898 129.598 6.85866 129.598 14.409C129.598 21.9593 125.439 27.4927 118.877 27.4927C112.315 27.4927 108.331 21.555 108.331 14.1598C108.331 6.76463 112.092 0.920898 118.877 0.920898ZM118.92 5.80086C115.461 5.80086 115.243 10.4787 115.243 13.3982C115.243 16.3177 115.201 22.5563 118.877 22.5563C122.553 22.5563 122.686 17.5259 122.686 14.456C122.686 12.4438 122.601 10.0273 121.985 8.1139C121.46 6.45434 120.41 5.80086 118.92 5.80086V5.80086Z" fill="white"/>
<path fill-rule="evenodd" clip-rule="evenodd" d="M138.624 26.9848H133.955C133.486 26.9566 133.112 26.5852 133.112 26.1244L133.103 2.20418C133.141 1.76695 133.534 1.42376 134.002 1.42376H138.35C138.762 1.44256 139.098 1.71994 139.183 2.09134V5.74896H139.273C140.588 2.47685 142.424 0.916016 145.66 0.916016C147.76 0.916016 149.819 1.66823 151.129 3.7368C152.355 5.65024 152.355 8.87064 152.355 11.1837V26.2326C152.303 26.6557 151.919 26.9848 151.456 26.9848H146.757C146.322 26.9566 145.972 26.6416 145.925 26.2326V13.2523C145.925 10.6336 146.232 6.81146 142.991 6.81146C141.851 6.81146 140.801 7.56837 140.276 8.72489C139.618 10.187 139.533 11.6444 139.533 13.257V26.1339C139.523 26.6087 139.121 26.9942 138.62 26.9942L138.624 26.9848Z" fill="white"/>
<path fill-rule="evenodd" clip-rule="evenodd" d="M76.1537 15.5655C76.1537 17.3802 76.1963 18.894 75.2737 20.5066C74.5261 21.8182 73.3433 22.6222 72.028 22.6222C70.2301 22.6222 69.1751 21.2588 69.1751 19.2419C69.1751 15.274 72.7566 14.5547 76.1489 14.5547V15.5608L76.1537 15.5655ZM80.8802 26.9239C80.5727 27.2012 80.1232 27.2201 79.7731 27.032C78.2165 25.7438 77.9374 25.1515 77.0857 23.9291C74.5119 26.5337 72.6904 27.3141 69.3548 27.3141C65.409 27.3141 62.3384 24.8929 62.3384 20.0506C62.3384 16.2707 64.4012 13.6944 67.3393 12.4344C69.8848 11.3249 73.4379 11.1228 76.1584 10.8219V10.2154C76.1584 9.1059 76.2436 7.79424 75.5859 6.83517C75.0134 5.97953 73.9205 5.62223 72.9553 5.62223C71.1669 5.62223 69.5772 6.53428 69.1845 8.41951C69.1041 8.83793 68.7966 9.25634 68.3707 9.27515L63.824 8.78621C63.4408 8.70159 63.015 8.396 63.1238 7.81304C64.1694 2.33601 69.1467 0.681152 73.6083 0.681152C75.8887 0.681152 78.8742 1.28762 80.672 2.9989C82.9525 5.11449 82.7349 7.93998 82.7349 11.0193V18.2782C82.7349 20.4643 83.648 21.4186 84.5044 22.594C84.8024 23.0171 84.8734 23.5201 84.4902 23.8304C83.5345 24.6296 81.8312 26.0964 80.8944 26.9239L80.8802 26.9145V26.9239Z" fill="white"/>
<path fill-rule="evenodd" clip-rule="evenodd" d="M14.6844 15.5644C14.6844 17.3791 14.727 18.8929 13.8092 20.5055C13.0663 21.8171 11.8788 22.6211 10.5635 22.6211C8.76562 22.6211 7.71055 21.2577 7.71055 19.2408C7.71055 15.2729 11.2921 14.5536 14.6844 14.5536V15.5597V15.5644ZM19.411 26.9228C19.1034 27.2001 18.654 27.219 18.3039 27.0309C16.7473 25.7427 16.4681 25.1504 15.6165 23.928C13.0427 26.5326 11.2212 27.313 7.88561 27.313C3.93973 27.313 0.869141 24.8918 0.869141 20.0495C0.869141 16.2696 2.93197 13.6933 5.87009 12.4333C8.41551 11.3238 11.9687 11.1217 14.6844 10.8208V10.2143C14.6844 9.1048 14.7743 7.79313 14.1167 6.83407C13.5442 5.97843 12.4513 5.62113 11.4861 5.62113C9.69768 5.62113 8.10798 6.53318 7.71528 8.41841C7.63485 8.83683 7.32732 9.25524 6.90151 9.27405L2.35949 8.78511C1.97626 8.70049 1.55044 8.3949 1.65926 7.81194C2.70014 2.34431 7.67743 0.689453 12.1437 0.689453C14.4242 0.689453 17.4049 1.29592 19.2075 3.0072C21.488 5.12279 21.2704 7.94828 21.2704 11.0276V18.2865C21.2704 20.4726 22.1835 21.4269 23.0399 22.6023C23.3379 23.0254 23.4089 23.5284 23.0257 23.8387C22.0699 24.6379 20.3667 26.1047 19.4299 26.9322L19.4204 26.9228H19.411Z" fill="white"/>
</svg>