<svg xmlns="http://www.w3.org/2000/svg" width="152" height="63" viewBox="0 0 152 63" fill="none">
<g clip-path="url(#clip0_277_14796)">
<path d="M86.7168 19.1217H86.6514C86.4674 19.138 86.2834 19.1522 86.0973 19.1604H86.0687C85.8929 19.1685 85.7171 19.1726 85.5413 19.1726H85.1467L84.8584 19.1583H84.8114C84.5824 19.142 84.3534 19.1196 84.1265 19.0891H84.0856C82.957 18.922 81.851 18.6327 80.7838 18.2273H80.7735L80.3769 18.0684C80.0989 17.9543 79.8208 17.8362 79.5407 17.7221C78.586 17.3228 77.5985 16.9093 76.5824 16.5894C75.83 16.3511 75.047 16.2227 74.2558 16.2064H74.1699C73.7917 16.1942 73.4155 16.2166 73.0414 16.2716C72.5977 16.3286 72.1582 16.4162 71.7268 16.5385C71.8576 16.3735 71.9885 16.2064 72.1152 16.0373C72.381 15.6625 72.5773 15.2449 72.6918 14.7987C72.8063 14.4687 72.8144 14.1142 72.7163 13.7801L72.8001 13.7027C73.0373 13.5519 73.254 13.3727 73.4462 13.171C74.1679 12.6209 74.957 12.1666 75.7953 11.8203C77.2591 11.2051 78.8517 10.9627 80.4321 11.1175C85.1364 11.5901 86.9499 12.5843 90.2681 8.93156C84.7214 0.134917 73.07 -2.51345 64.244 3.01349C61.1937 4.92438 58.7567 7.66442 57.2192 10.9117C58.0513 11.7123 59.7216 12.5069 62.9826 11.7735C64.3462 11.0401 65.9859 11.0401 67.3496 11.7735C72.9903 13.0365 73.8816 9.73422 73.8816 9.73422C73.8816 12.0729 72.9453 13.1017 71.5264 13.5316C71.6327 13.5682 71.7349 13.6171 71.8331 13.6762C72.1357 13.8697 72.1888 14.1203 72.0559 14.5868C71.9619 14.9535 71.8045 15.2999 71.5878 15.6095C71.048 16.3286 70.4531 17.0091 69.8806 17.7058V17.7241C69.8806 17.8036 69.944 17.8688 70.0237 17.8688C70.0503 17.8688 70.0769 17.8627 70.0994 17.8484L70.1914 17.8056C71.1196 17.3452 72.1152 17.0396 73.1415 16.9011C74.2333 16.7626 75.3434 16.8624 76.3923 17.1965C77.666 17.5958 78.8947 18.1499 80.1336 18.6572L80.5384 18.8201C81.6527 19.307 82.8364 19.6167 84.0467 19.7369C84.5435 19.8041 85.0444 19.8367 85.5453 19.8367C85.9501 19.8367 86.4245 19.8184 86.8027 19.7837V30.7358C86.819 31.2125 86.4449 31.6117 85.9665 31.626C85.9501 31.626 85.9338 31.626 85.9174 31.626C85.4615 31.6036 85.0976 31.2389 85.0772 30.7846L85.022 29.7783C84.8012 28.12 84.3248 26.5045 83.6051 24.9929C83.325 25.877 83.0531 26.7347 82.7853 27.5801C82.5175 28.4256 82.2537 29.2629 81.99 30.0981L81.7017 31.0862C81.5791 31.4936 81.1456 31.7258 80.7367 31.6036C80.7122 31.5955 80.6897 31.5873 80.6652 31.5792C80.3544 31.4528 80.1643 31.1391 80.195 30.805C80.4628 28.6863 80.5548 26.5513 80.4669 24.4184C78.3611 25.7059 75.9322 26.3721 73.4605 26.3395C73.3951 27.845 73.3317 29.2241 73.2663 30.7439V30.8396C73.2663 31.2797 72.9085 31.6362 72.4669 31.6362C72.4444 31.6362 72.4219 31.6362 72.4014 31.6342C72.0232 31.5914 71.7247 31.2919 71.6797 30.915L71.4957 29.5949L71.0092 26.5656H70.909C70.7638 27.5435 70.635 28.5213 70.494 29.5175L70.3263 30.8865C70.2711 31.3327 69.8643 31.6505 69.4165 31.5955C69.4002 31.5955 69.3838 31.5914 69.3675 31.5873C68.9851 31.5099 68.7071 31.1799 68.6989 30.7928L68.6335 29.1916C68.5844 28.1118 68.5292 27.0321 68.4699 25.9544C68.4393 25.8322 68.382 25.7181 68.2982 25.6244L68.288 25.6081C67.646 24.6404 67.1513 23.5852 66.82 22.4749C66.5829 21.6845 66.3478 20.894 66.1167 20.1036C66.5952 19.9223 67.0306 19.6391 67.3905 19.2744C67.4702 19.14 67.3087 18.9953 67.1492 19.0911C66.863 19.2541 66.5522 19.3682 66.2292 19.4293C65.6629 19.4782 65.0904 19.4578 64.5221 19.4517C63.9087 19.4761 63.3935 19.0035 63.3669 18.3923C63.3669 18.3618 63.3669 18.3312 63.3669 18.3007C63.3853 18.0093 63.3547 17.718 63.277 17.4369C62.8354 16.3918 62.5839 15.2775 62.5369 14.1427C62.5369 13.9186 62.4612 13.8229 62.3038 13.7923C61.8704 13.8066 61.439 13.8168 61.0342 13.8086C59.1063 13.7821 57.5075 13.4256 56.8165 11.8285C52.8972 21.4502 57.5484 32.4144 67.2044 36.3197C76.8604 40.225 87.8638 35.5904 91.783 25.9687C93.0097 22.9597 93.4309 19.6839 93.0097 16.4631C91.231 17.9625 89.0373 18.8894 86.7189 19.1196" fill="white"/>
<path d="M34.8393 45.4893L32.5474 49.6818L30.229 45.4893H24.8745L30.045 54.5894V62.3145L35.0478 62.3166V54.5426L40.1487 45.4893H34.8393Z" fill="white"/>
<path d="M11.5566 53.5708C12.4848 52.7763 12.9939 51.5886 12.9223 50.3724C12.9223 47.0416 10.8942 45.4893 6.53745 45.4893H0.35498V62.3145H6.41887C10.9924 62.3145 13.3128 60.5422 13.3128 57.0524C13.413 55.6447 12.7424 54.3246 11.5566 53.5708V53.5708ZM5.12881 56.0073H6.69488C7.93587 56.0073 8.17098 56.3313 8.17098 56.9282C8.17098 57.4904 7.9788 58.012 6.58039 58.012H5.12677V56.0073H5.12881ZM6.87888 51.6131H5.12881V49.7694H6.8339C7.6292 49.7694 8.03196 50.0648 8.03196 50.6454C8.03196 51.2607 7.6108 51.6131 6.87888 51.6131Z" fill="white"/>
<path d="M151.451 45.8499C151.193 45.5932 150.852 45.4526 150.488 45.4526C150.124 45.4526 149.783 45.5932 149.527 45.8499C149.269 46.1066 149.128 46.4468 149.128 46.8094V46.8135C149.128 47.1761 149.272 47.5163 149.529 47.771C149.787 48.0256 150.126 48.1662 150.49 48.1662H150.492C151.24 48.1662 151.852 47.5571 151.852 46.8115C151.852 46.4488 151.711 46.1086 151.453 45.8519L151.451 45.8499ZM150.382 47.5082V47.0315L150.67 47.5082H151.054C150.899 47.6345 150.701 47.7099 150.486 47.7099C149.987 47.7099 149.58 47.3045 149.58 46.8074C149.58 46.5181 149.717 46.2594 149.932 46.0944V47.5082H150.38H150.382ZM150.66 46.5853C150.652 46.6668 150.58 46.7259 150.488 46.7177H150.382V46.4692H150.492C150.66 46.4692 150.66 46.5507 150.66 46.5874V46.5853ZM150.883 47.0213C151.036 46.9235 151.13 46.7483 151.118 46.5568V46.5324C151.083 46.2349 150.813 46.021 150.525 46.0536H149.993C150.136 45.9599 150.306 45.9069 150.488 45.9069C150.987 45.9069 151.394 46.3123 151.394 46.8094C151.394 47.0498 151.3 47.2678 151.144 47.4287L150.881 47.0213H150.883Z" fill="white"/>
<path d="M14.2495 62.3145L24.3492 62.3125V57.7614H19.2073V56.1438H24.3492V51.5683H19.2073V50.0648H24.3533V45.4893H14.2495V62.3145Z" fill="white"/>
<path d="M135.615 50.0852H139.522V62.3145H144.291V50.0852H148.09V45.4893H135.615V50.0852Z" fill="white"/>
<path d="M110.84 62.3145L120.942 62.3125V57.7614H115.802V56.1438H120.942V51.5683H115.802V50.0648H120.942V45.4893H110.84V62.3145Z" fill="white"/>
<path d="M127.918 45.4893L122.32 62.3145H127.29L127.907 60.3344H132.509L133.125 62.3145H138.119L132.544 45.4893H127.918V45.4893ZM131.144 55.9381H129.273L130.228 52.9414L131.144 55.9381Z" fill="white"/>
<path d="M101.071 50.1993L97.6978 45.532L97.6672 45.4893H92.6909V62.3145H97.6712V53.4344L101.065 57.9651L104.346 53.5505V62.3145H109.331V45.4893H104.602L101.071 50.1993Z" fill="white"/>
<path d="M66.2237 53.0065L61.4233 45.4893H56.3755V62.3166H61.3333V54.2085L66.4976 62.3145H71.1815V45.4893H66.2237V53.0065Z" fill="white"/>
<path d="M78.1141 45.4873C78.0405 45.4873 77.9649 45.4873 77.8892 45.4893H72.3467V62.3146H77.8851C77.9587 62.3166 78.0323 62.3187 78.1059 62.3187C78.1795 62.3187 78.2531 62.3187 78.3268 62.3166C82.982 62.1944 86.6702 58.3217 86.5476 53.683C86.4269 49.1196 82.6631 45.4873 78.11 45.4873H78.1141ZM81.4834 54.125C81.4773 55.0723 81.0991 55.9606 80.4223 56.6267C79.7517 57.2868 78.8644 57.6474 77.9219 57.6474H77.3066V50.1545H77.8954C77.9403 50.1545 77.9853 50.1545 78.0303 50.1586C78.9912 50.1994 79.8805 50.6109 80.5307 51.3178C81.1808 52.0247 81.5182 52.9414 81.4773 53.9091C81.4814 53.9824 81.4834 54.0537 81.4834 54.1271V54.125Z" fill="white"/>
<path d="M46.6969 45.1959C41.9354 45.2509 38.1061 49.1562 38.1592 53.9009C38.1592 53.9681 38.1592 54.0333 38.1592 54.1005C38.2144 58.8126 42.0785 62.6079 46.7951 62.6079C46.8278 62.6079 46.8625 62.6079 46.8973 62.6079C49.2055 62.5814 51.3624 61.6606 52.9755 60.0166C54.5886 58.3725 55.4616 56.2009 55.435 53.9029C55.435 53.8357 55.435 53.7685 55.435 53.7033C55.4084 51.4033 54.4843 49.254 52.8344 47.6467C51.1845 46.0393 49.0113 45.1694 46.6969 45.1959V45.1959ZM44.1414 56.4739C43.5035 55.767 43.1805 54.8543 43.2316 53.907V53.8968C43.2254 53.7705 43.2254 53.6442 43.2316 53.5199C43.3317 51.6253 44.9121 50.1504 46.7951 50.1504C46.8585 50.1504 46.9218 50.1504 46.9873 50.1545C47.94 50.2054 48.815 50.621 49.4529 51.3279C50.0908 52.0348 50.4138 52.9475 50.3627 53.907C50.3688 54.0333 50.3688 54.1596 50.3627 54.2839C50.2584 56.2437 48.5738 57.7512 46.607 57.6473C45.6543 57.5964 44.7792 57.1808 44.1414 56.4739Z" fill="white"/>
</g>
<defs>
<clipPath id="clip0_277_14796">
<rect width="151.495" height="62.481" fill="white" transform="translate(0.354492 0.126953)"/>
</clipPath>
</defs>
</svg>