<svg xmlns="http://www.w3.org/2000/svg" width="85" height="85" viewBox="0 0 85 85" fill="none" style="&#10;    background-color: black;&#10;">
<path d="M42.1968 35.6626C41.0571 35.6747 40.4469 35.6262 40.3216 35.149C40.1963 34.6718 40.1478 34.5869 39.7477 34.2715C34.7163 34.2715 32.7522 35.06 31.9035 37.8018C31.9035 37.8018 31.952 38.1536 31.8025 38.8653C31.6529 39.581 31.5519 41.1824 31.5277 42.0316C31.5034 42.8849 31.5034 46.6375 31.5034 46.6375C31.5034 46.6375 35.1204 52.1574 37.0966 54.6241C37.521 55.2388 38.3373 56.4277 39.6103 56.6137C40.8874 56.7997 42.0109 56.7633 43.5506 56.9129C45.0904 57.0626 47.4667 56.9898 49.1438 55.7119C49.1438 55.7119 49.1317 55.4733 49.3944 55.4127C49.3944 55.4127 49.0832 55.1741 48.4932 54.7252C47.9031 54.2763 47.4667 53.9124 47.1555 53.7628C46.8443 53.6132 46.6059 53.5889 46.4442 53.2856C46.2826 52.9864 45.8542 52.6831 45.5672 52.7235C45.2803 52.7599 44.8519 52.9095 44.8681 52.5496C44.8802 52.1857 44.8196 51.4376 44.8317 50.924C44.8439 50.4104 44.9691 49.5976 44.7307 49.3469C44.4923 49.0962 44.2659 49.0477 44.1811 48.6069C44.0962 48.1661 43.9305 47.143 44.1205 46.8802C44.3064 46.6173 44.8843 45.7277 45.1469 45.2262C45.4096 44.7248 47.6122 42.157 47.6122 40.1674C47.6122 38.1778 45.2965 35.5857 44.371 34.4575C43.4819 34.7325 43.3445 35.6464 42.2049 35.6585L42.1968 35.6626ZM45.5309 38.8006C45.6521 39.1484 46.0118 39.1969 46.0118 39.6174C46.0118 40.038 45.0257 42.0357 44.2053 42.6867C44.0962 43.2852 43.6678 43.7462 43.6678 43.7462C43.6678 43.7462 43.5223 44.3164 42.8596 45.2748C42.3423 46.0633 42.2453 46.7386 42.2453 47.5191C42.2453 48.2996 42.3908 48.983 42.5928 49.7553C42.7949 50.5277 43.0172 50.9806 43.2071 51.3607C43.3971 51.7409 43.6112 52.6305 43.9669 53.3503C44.2498 54.0216 44.7307 54.4745 45.1227 54.8304C45.5147 55.1862 45.2237 55.6593 44.3346 55.6593C43.3688 55.6593 41.7765 54.7616 41.5502 54.5352C41.3239 54.3087 41.2147 54.0822 40.9642 53.872C40.2771 53.3341 40.2206 53.1764 39.9538 52.8367C39.6871 52.4971 39.3598 51.8824 39.2345 51.7004C38.402 50.7097 38.1595 49.6542 37.8564 49.2539C37.5533 48.8576 37.3068 48.5017 37.0805 47.9316C36.8541 47.3614 36.5066 46.8074 36.5066 46.8074C36.159 46.3949 36.1227 46.0552 36.0459 45.8733C35.7872 45.3314 35.6862 45.0766 35.6862 44.5226C35.6862 43.9686 35.8196 43.7058 35.8519 43.4874C35.8842 43.265 35.8438 43.1477 35.8438 42.6988C35.8438 42.25 35.957 41.9103 36.0661 41.2067C36.1752 40.5071 36.2197 40.2604 36.4783 40.2038C36.7369 40.1472 37.4078 39.9935 37.9857 39.8439C38.5636 39.6943 39.19 39.7064 40.1317 39.7064C41.0733 39.7064 41.825 41.0773 41.825 41.9629C41.825 42.3187 41.5017 43.1517 41.2956 43.5804C41.0854 44.009 40.7661 44.7288 40.6772 44.927C40.5883 45.1211 40.3863 45.5093 40.3741 45.8166C40.362 46.128 40.2044 46.8519 39.5214 46.8519C38.8384 46.8519 38.5434 46.2574 38.3454 45.4689C38.1514 44.6803 38.2242 44.5671 38.2242 44.5671C38.4343 43.7785 38.7657 43.6694 39.0647 43.6694C39.3638 43.6694 39.679 43.9929 39.679 44.3002V45.0766C39.679 45.0766 40.2933 43.8554 40.4186 43.5844C40.5439 43.3135 40.552 43.0668 40.552 43.0668C40.5317 42.6058 40.6207 42.2338 40.6732 41.9022C40.7257 41.5706 39.7841 41.1258 39.7841 41.1258C39.7841 41.1258 39.2547 41.1581 38.8829 41.1056C38.5111 41.057 38.0746 41.0853 38.0746 41.0853C37.4603 41.2188 37.5492 41.7809 37.4361 42.0963C37.3229 42.4117 37.2906 42.711 37.2906 43.1962C37.2906 43.6815 37.3997 44.0859 37.3391 45.0807C37.3391 45.7236 37.3633 45.8652 37.723 46.4879C38.0827 47.1147 38.5798 47.9599 38.8425 48.4734C39.1011 48.987 39.7518 50.0263 39.9619 50.5318C40.1721 51.0372 40.2125 51.3486 40.2125 51.3486C40.5156 51.5589 40.6247 52.0199 41.0531 52.4688C41.4006 52.9095 41.6148 53.0389 41.9058 53.229C42.1968 53.4191 42.1644 53.6132 42.5686 53.7587C42.8353 53.8679 42.9606 53.7506 42.9606 53.7506C41.8411 51.5346 41.437 49.6825 41.3077 49.2701C41.1743 48.8576 41.1864 48.9304 41.0571 48.0124C40.9238 47.0945 41.0086 46.5405 41.0571 46.4434C41.2592 46.039 41.3845 45.6266 41.6835 44.9513C41.9785 44.2759 42.2897 43.6694 42.2897 43.6694C42.2897 43.6694 42.4554 43.0749 42.9161 42.2783C43.2516 41.6919 43.7244 40.7174 43.7244 40.7174C43.7487 40.5394 43.878 40.2928 44.0154 40.042C44.1528 39.7913 44.0962 39.6377 44.0962 39.6377C44.0962 39.6377 43.7406 39.4152 43.3445 39.1079C42.9485 38.7965 42.5282 38.5094 42.1321 38.469C41.7361 38.4326 40.2691 38.1212 39.4123 38.1212C38.5555 38.1212 36.6844 38.6388 36.1146 38.7844C35.5447 38.93 35.3629 38.9381 35.3629 38.9381C35.3629 38.9381 34.7931 39.6457 34.7203 39.7913C34.6435 39.9369 34.6637 40.4747 34.5546 40.7214C34.4455 40.9681 34.4778 41.5423 34.4778 42.2904C34.4778 43.0385 34.4213 43.819 34.4213 44.4134C34.4213 45.0079 34.6476 45.7155 34.7324 46.0552C34.8133 46.3949 34.8416 46.6294 34.8416 46.6294C34.8416 46.6294 35.468 47.9073 35.6256 48.5422C35.7832 49.1811 35.8074 49.2741 36.0499 49.6623C36.2884 50.0465 36.4864 50.3174 36.5995 50.5641C36.7127 50.8108 36.9471 51.1141 36.9471 51.1141C37.618 51.9309 37.5533 52.2827 37.5533 52.2827C37.5533 52.2827 37.4442 52.2463 37.3068 52.0886C37.1694 51.9309 37.0279 52.1129 37.0279 52.1129C37.0279 52.1129 36.3005 51.4133 35.468 50.2932C34.6355 49.173 34.1343 48.437 34.1343 48.437C34.001 48.0205 33.0028 46.7305 33.0028 45.4123V41.9426C33.0028 40.5758 33.4554 39.2131 33.5443 38.3234C33.6332 37.4338 34.2192 37.0294 35.1285 36.9445C36.0378 36.8636 36.9794 36.8353 37.5614 36.6776C38.1433 36.5199 38.3939 36.6007 38.3939 36.6007C40.5358 37.3731 41.5946 37.3974 42.3665 37.3974C43.1384 37.3974 43.0172 36.8474 43.4779 36.8474C44.0598 36.8474 44.4882 37.636 44.6418 37.9029C44.7954 38.1697 45.4298 38.4609 45.5511 38.8046L45.5309 38.8006Z" fill="white"/>
<path d="M38.0908 76.2543L39.5255 76.4363L39.0001 74.5923L38.0908 76.2543Z" fill="white"/>
<path d="M42.4916 18.5693C29.3573 18.5693 18.7124 29.2208 18.7124 42.3592C18.7124 55.4977 29.3613 66.1491 42.4916 66.1491C55.6219 66.1491 66.2708 55.4977 66.2708 42.3592C66.2708 29.2208 55.6219 18.5693 42.4916 18.5693V18.5693ZM54.0053 30.7049C54.0053 30.7049 53.3062 30.806 52.7283 30.806H51.726C51.2774 30.806 51.2613 30.6321 51.2613 30.6321C51.2613 30.6321 52.312 29.9042 52.7121 29.2289C52.7242 28.5657 51.9725 27.6275 51.6735 26.6125C51.6735 26.6125 50.4732 26.6489 49.2447 26.7379C48.0201 26.8269 47.2563 27.4536 47.2563 27.4536C47.03 27.7812 46.4683 28.1937 46.4683 28.1937C46.343 28.3676 45.6438 28.9943 45.6438 28.9943C45.6438 28.9943 45.6681 29.2451 45.6196 29.6454C45.5711 30.0457 45.2801 30.9354 45.2922 31.5096C45.3003 31.9504 45.8176 32.4721 45.8176 32.4721C46.5814 32.5853 48.206 32.6095 48.206 32.6095C48.206 32.6095 48.105 33.0463 47.9312 33.4345C47.7574 33.8227 46.6178 33.9844 46.6178 33.9844C46.6178 33.9844 47.1553 34.8984 47.3331 35.323C47.5069 35.7476 48.0727 36.1479 48.0727 36.1479C49.0103 37.8018 49.5356 38.7279 49.5356 39.6296C49.5356 40.5314 48.9739 41.5707 48.9739 41.5707C48.9739 42.2217 48.5374 42.9739 48.1373 43.5481C47.7372 44.1223 47.4624 44.5389 47.2604 44.9392C47.0583 45.3395 46.7107 45.9178 46.4844 46.3181C46.2581 46.7185 45.7974 47.1714 45.559 47.3332C45.3205 47.4949 45.3326 47.6324 45.3326 47.6324C45.3326 47.6324 46.1207 48.6353 46.1207 49.0963C46.1207 49.347 46.0197 49.4845 46.0197 49.9333C46.0197 50.734 46.3309 50.9969 46.3309 50.9969C46.7431 50.9079 46.8562 51.0858 47.1068 51.2476C47.5311 51.474 48.2586 51.935 48.497 52.0725C48.7354 52.21 50.4611 53.5 50.8612 53.775C51.2613 54.05 51.7503 54.05 52.1625 54.3007C52.4131 54.4746 53.1365 54.4624 53.1365 55.2267C53.1365 55.8293 52.2474 57.3295 51.7584 57.932C51.5199 58.2556 51.0956 58.3688 51.0956 58.3688C50.3681 59.2059 50.1701 59.1816 50.1701 59.1816C49.9074 59.1695 49.5437 59.2584 49.2083 59.307C48.5698 59.4323 48.0686 59.2584 47.5958 59.3191C47.0058 59.4323 46.634 59.3555 46.2945 59.3312C45.955 59.307 44.4557 59.3919 43.4656 59.4081C42.4754 59.4202 42.5886 59.4081 42.0753 59.3191C41.5621 59.2301 41.1862 58.9956 40.9599 58.9794C40.6609 58.9915 40.1597 59.0158 39.7354 58.7934C39.3111 58.5669 38.6968 58.3809 38.0098 58.2798C37.3227 58.1787 37.1611 58.1545 36.8822 57.6288C36.6074 57.1031 35.3304 55.0367 33.3299 52.4203C31.3294 49.8039 30.3272 48.15 30.1413 47.5637C29.9554 46.9733 29.6038 45.0484 29.5917 43.8838C29.5795 42.7191 29.5553 41.3442 29.5553 40.0542C29.5553 38.7643 29.8826 38.5378 29.9311 38.1011C29.9918 37.1993 30.1938 37.0011 30.2423 36.6615C30.1938 36.1479 30.3434 35.7597 30.3434 35.7597C30.8445 35.3594 32.2064 33.5679 33.3582 32.832C34.3079 32.1324 36.074 32.4437 37.3753 32.0555C36.7852 31.3802 35.9608 31.1295 35.2616 31.1295C34.5625 31.1295 34.2473 31.3559 34.1867 31.2185C34.126 31.081 34.7363 30.8909 34.9383 30.6442C35.2253 30.2803 35.5769 30.3207 36.0538 29.9932C36.0538 29.9932 37.444 30.2803 38.519 30.6685C39.594 31.0567 40.0183 30.9435 40.0183 30.9435C43.6959 27.6761 46.8239 25.3711 46.8239 25.3711C48.2869 25.0435 51.1764 24.7968 51.1764 24.7968C51.1764 24.7968 51.5523 24.9829 52.1019 25.0233C52.6515 25.0637 52.704 25.3104 52.704 25.3104C52.9667 25.7876 53.1809 25.824 53.3304 26.0504C53.6416 26.6125 54.5428 27.2393 54.5428 27.9672C54.5428 29.0429 54.0053 30.7089 54.0053 30.7089V30.7049Z" fill="white"/>
<path d="M35.9003 9.58363C37.04 9.35718 37.5249 8.80722 37.5249 8.07933C37.5249 7.35144 37.0764 6.36474 35.2335 6.71655L33.6816 7.00367L34.2838 9.89501C34.2838 9.89501 34.7607 9.80605 35.8963 9.58363H35.9003Z" fill="white"/>
<path d="M49.0385 12.6774C50.5904 12.6774 51.8674 11.262 51.8674 9.49892C51.8674 7.73581 50.3641 6.34473 48.7395 6.34473C46.3995 6.34473 45.7974 8.45965 45.7974 9.51105C45.7974 11.2903 47.2603 12.6774 49.0385 12.6774V12.6774Z" fill="white"/>
<path d="M63.7327 67.2368C63.4296 67.2368 63.2881 67.3581 63.175 67.439L62.1323 68.2397L63.074 69.4771L64.056 68.6886C64.056 68.6886 64.452 68.4055 64.452 68.0092C64.452 67.6129 64.0358 67.2409 63.7327 67.2409V67.2368Z" fill="white"/>
<path d="M42.4997 0C19.1004 0 0.130371 18.9696 0.130371 42.3673C0.130371 65.7649 19.1004 84.7346 42.4997 84.7346C65.899 84.7346 84.869 65.7649 84.869 42.3673C84.869 18.9696 65.8949 0 42.4997 0ZM71.5003 16.6566L65.3211 21.8529L68.7602 25.7471L67.1962 26.9239L62.7306 21.6669L70.1626 15.1199L71.5003 16.6606V16.6566ZM57.9861 8.66999L58.9358 7.23038L66.093 11.4885L65.0907 12.9403L62.6619 11.3874L58.37 18.2984L56.6807 17.3076L60.8958 10.3967L57.982 8.66999H57.9861ZM48.5011 4.27434C51.4431 4.27434 54.1953 6.55102 54.1953 9.73352C54.1953 12.362 52.2191 14.7519 49.2406 14.7519C46.2622 14.7519 43.4736 12.4752 43.4736 9.34126C43.4736 7.29913 44.8356 4.27029 48.5051 4.27029L48.5011 4.27434ZM36.1912 4.65041C38.4947 4.65041 39.796 6.2639 39.796 8.09172C39.796 9.91953 38.3331 10.9831 36.668 11.3591C35.003 11.7352 34.3766 11.8727 34.3766 11.8727L34.9262 14.8409L33.0106 15.1684L31.0829 5.54006C31.0829 5.54006 35.6981 4.65041 36.1871 4.65041H36.1912ZM25.32 7.89357L29.9513 16.5959L28.2984 17.4856L23.6832 8.77108L25.324 7.89357H25.32ZM13.4466 17.2591L16.6877 20.5023L19.7914 17.2834L16.5624 13.9917L17.9284 12.726L24.8835 19.5479L23.7317 20.9875L21.0928 18.545L17.9526 21.5981L20.531 24.1013L19.0276 25.6784L11.9189 18.8281L13.4466 17.251V17.2591ZM10.1044 24.4693L10.9692 26.3739C10.2701 26.6368 8.60504 27.4374 8.60504 29.3178C8.60504 31.1982 10.4438 32.286 11.8947 32.286C13.3455 32.286 14.7842 31.0728 14.7842 29.4432C14.7842 28.7153 14.5094 27.955 14.5094 27.955L16.3604 27.2797C16.3604 27.2797 16.8089 28.0804 16.8089 29.3583C16.8089 31.5985 14.9459 34.4778 11.7532 34.4778C8.9526 34.4778 6.52376 32.375 6.52376 29.431C6.52376 27.5547 7.90185 25.1001 10.1044 24.4733V24.4693ZM8.75861 41.8699C9.31631 41.8699 9.76894 42.3228 9.76894 42.8809C9.76894 43.4389 9.31631 43.8918 8.75861 43.8918C8.20091 43.8918 7.74828 43.4389 7.74828 42.8809C7.74828 42.3228 8.20091 41.8699 8.75861 41.8699ZM9.35269 56.6825L12.6747 55.4167L9.9306 54.798L11.5997 52.5375L8.27769 53.7952L7.86144 52.6791L12.9535 50.7542L13.4304 51.9795L11.7896 54.1187L14.4528 54.6565L14.8974 55.8939L9.78511 57.839L9.34865 56.6825H9.35269ZM14.9621 64.2606L14.073 64.8591L11.733 61.3935L16.2391 58.3243L18.5669 61.7373L17.6859 62.356L16.0249 59.9256L15.1358 60.5443L16.5826 62.6714L15.6733 63.2699L14.2265 61.1509L13.3172 61.7898L14.9661 64.2606H14.9621ZM20.2683 71.0785L19.1933 70.1282L19.5368 67.9203L17.399 68.4783L16.3644 67.5563L19.646 66.7678L20.1228 63.5449L21.1574 64.4749L20.822 66.5737L22.8467 66.0359L23.8813 66.966L20.7331 67.706L20.2683 71.0785V71.0785ZM24.2248 73.9133L23.1821 73.2662L26.0878 68.6158L27.1103 69.2628L24.2248 73.9133ZM32.9823 73.6181C32.6995 73.0398 32.1417 72.4737 31.3739 72.4737C30.606 72.4737 29.7048 73.1328 29.7048 74.2974C29.7048 75.462 30.699 75.919 31.2648 75.919C31.8306 75.919 32.3155 75.6562 32.3155 75.6562L32.7601 76.6792C32.7601 76.6792 32.2024 77.0634 31.382 77.0634C29.9837 77.0634 28.4358 76.0201 28.4358 74.2287C28.4358 72.8012 29.5391 71.3333 31.2809 71.3333C32.558 71.3333 33.4592 72.1016 34.025 73.0155L32.9823 73.6221V73.6181ZM40.18 78.8265L39.8243 77.5406L37.5248 77.2575L36.8984 78.4424L35.6617 78.2806L38.6281 73.0641L39.7637 73.2258L41.4247 78.9802L40.18 78.8265V78.8265ZM16.8089 42.3673C16.8089 28.1653 28.3106 16.6525 42.4956 16.6525C56.6807 16.6525 68.1823 28.1653 68.1823 42.3673C68.1823 56.5692 56.6807 68.082 42.4956 68.082C28.3106 68.082 16.8089 56.5692 16.8089 42.3673V42.3673ZM48.8284 78.4828L45.8621 75.3124L46.2056 78.7376L45.0013 78.871L44.4557 73.432L45.5913 73.3107L48.4566 76.3921L48.1131 73.0479L49.3093 72.9347L49.867 78.406L48.8324 78.4868L48.8284 78.4828ZM57.0687 75.9716C55.4602 75.9716 54.3246 74.5926 54.3246 73.0641C54.3246 71.5355 55.6421 70.1889 57.392 70.1889C57.9982 70.1889 58.3215 70.3304 58.3215 70.3304L57.9861 71.5153C57.9861 71.5153 57.6506 71.3616 57.2667 71.3616C56.2847 71.3616 55.5572 72.1218 55.5572 73.0034C55.5572 73.885 56.224 74.807 57.2263 74.807C58.2285 74.807 58.8469 73.9052 58.8469 73.9052L58.5236 73.1975L57.4203 73.703L57.004 72.7284L59.15 71.7781L60.132 73.9577C59.736 74.8069 58.6731 75.9716 57.0646 75.9716H57.0687ZM66.4648 70.4315L64.4724 69.7522L63.753 70.3183L64.8038 71.7053L63.8541 72.4656L60.5038 68.1184L62.5164 66.5373C62.9811 66.2017 63.3651 66.0197 63.8541 66.0197C64.9291 66.0197 65.6242 67.1237 65.6242 67.7828C65.6242 68.4419 65.3292 68.8059 65.3292 68.8059L67.5761 69.5257L66.4607 70.4275L66.4648 70.4315ZM70.2232 66.9053L66.0808 63.3305L66.8689 62.4288L71.0315 65.9752L70.2232 66.9053V66.9053ZM73.4846 62.6593L68.7562 59.865L69.3745 58.8419L73.141 61.0417L74.507 58.7003L75.4567 59.2463L73.4846 62.6593ZM76.8752 55.8737L71.6902 54.151L72.0741 53.0066L76.2044 54.3654L77.0652 51.7813L78.0957 52.117L76.8712 55.8737H76.8752ZM75.6426 42.8849C75.6426 42.3268 76.0953 41.8739 76.653 41.8739C77.2107 41.8739 77.6633 42.3268 77.6633 42.8849C77.6633 43.4429 77.2107 43.8959 76.653 43.8959C76.0953 43.8959 75.6426 43.4429 75.6426 42.8849ZM76.6045 27.8054L74.014 28.8204L75.5537 32.751L73.8402 33.3414L72.2883 29.3987L70.599 30.0619L72.7127 35.1329L71.0113 35.7475L68.3076 28.8123L77.5663 25.3832L80.2295 32.1445L78.617 32.7349L76.6045 27.8135V27.8054Z" fill="white"/>
</svg>