<svg id="esprit-1" xmlns="http://www.w3.org/2000/svg" width="158.065" height="38.69" viewBox="0 0 158.065 38.69">
  <path id="Path_709" data-name="Path 709" d="M55.409,6.6a14.571,14.571,0,0,1,1.044,4.535H52.028A7.43,7.43,0,0,0,47.851,4.7c-3.6-1.457-8.658-1.265-11.791,1.072a5.933,5.933,0,0,0-2.254,5.689A4.563,4.563,0,0,0,36.2,14.815a12.459,12.459,0,0,0,4.714,1.21v4.507c-3.986-.605-8.561-1.072-10.513-5.277A10.8,10.8,0,0,1,31.938,3.9c3.3-3.573,8-4.041,12.808-3.876C49.088.3,53.623,2.282,55.409,6.6ZM0,.633H27.073V4.975H0Zm59.229,0h4.507V37.627H59.229ZM76.27.661c3.669,0,7.668,1.9,8.96,5.634,1.43,3.738,1.017,8.686-1.841,11.626-2.749,2.831-6.678,2.8-10.609,2.8H67.805V16.4H76.16a5.043,5.043,0,0,0,4.728-2.543,8.454,8.454,0,0,0-.248-6.789C79.376,5.277,77.4,4.974,75.308,4.974h-7.5V.633ZM87.676.633h4.452V37.627H87.676ZM108.84.661c3.463,0,7.009,1.484,8.63,4.893,1.7,3.463,1.485,8.574-.879,11.653-2.116,2.721-5.25,3.518-8.493,3.518H96.692V16.4H108.7a5.164,5.164,0,0,0,4.728-2.515c.907-2.364,1.017-5.882-1.072-7.723-1.814-1.347-4.109-1.182-6.624-1.182H96.692V.633ZM121.29.633h4.48V37.627h-4.48Zm6.789,0h29.986V4.975H128.079Zm12.258,8.026h4.48V37.627h-4.48ZM0,16.382H27.073v4.343H0Z" transform="translate(0 0)" fill="#787878"/>
  <path id="Path_710" data-name="Path 710" d="M56.207,28.5a11.318,11.318,0,0,1-1.127,11.571c-4.48,5.3-12.423,5.909-18.663,3.82-4.067-1.264-7.751-5.441-8-9.757-.082-.741-.166-1.512-.193-2.254H32.9c-.027,2.886.687,5.69,3.3,7.311,3.875,2.473,10.224,2.776,14.017-.11a7.134,7.134,0,0,0,2.611-6.98,5.19,5.19,0,0,0-3.545-3.986,17.967,17.967,0,0,0-4.26-.77V22.842c4.261.6,9.1,1.181,11.187,5.661ZM120.274,43.95h-5.057l-8.273-13.138h5.167ZM0,39.608H27.073V43.95H0Z" transform="translate(0 -6.322)" fill="#787878"/>
</svg>
