<svg xmlns="http://www.w3.org/2000/svg" width="30.831" height="30.835" viewBox="0 0 30.831 30.835">
  <g id="creator-shop-icon" transform="translate(-1.999 -2)">
    <path id="Path_726" data-name="Path 726" d="M8.167,14.334a3.084,3.084,0,0,1-2.96-3.947l1.546-5.3h4.5v6.167a3.084,3.084,0,0,1-3.084,3.084Zm4.622,1a6.15,6.15,0,0,1-4.622,2.088v6.167h9.249V17.418a6.152,6.152,0,0,1-4.625-2.088ZM8.167,26.668v3.084h9.249V26.668ZM20.5,29.752h6.165V17.418a6.15,6.15,0,0,1-4.625-2.088,6.2,6.2,0,0,1-1.54,1.263ZM29.746,16.6a6.17,6.17,0,0,0,2.837-7.072L30.9,3.767A2.453,2.453,0,0,0,28.55,2H6.28A2.451,2.451,0,0,0,3.926,3.767L2.247,9.524A6.17,6.17,0,0,0,5.084,16.6V29.752a3.084,3.084,0,0,0,3.082,3.084h18.5a3.084,3.084,0,0,0,3.084-3.084ZM23.58,11.251V5.084h4.5l1.546,5.3a3.084,3.084,0,1,1-6.044.863ZM14.331,5.084H20.5v6.167a3.084,3.084,0,0,1-6.167,0Z" transform="translate(0 0)" fill="#fff" fill-rule="evenodd"/>
  </g>
</svg>
