<svg xmlns="http://www.w3.org/2000/svg" width="44.139" height="46" viewBox="0 0 44.139 46">
  <g id="affiliate-section" transform="translate(-10.359 0.002)">
    <path id="Path_744" data-name="Path 744" d="M52.369,23.594a1.348,1.348,0,0,1,0-1.192l1.716-3.51a3.993,3.993,0,0,0-1.723-5.3l-3.451-1.831a1.348,1.348,0,0,1-.7-.964l-.675-3.848A3.993,3.993,0,0,0,43.025,3.67l-3.868.547a1.348,1.348,0,0,1-1.133-.368L35.216,1.132a3.993,3.993,0,0,0-5.576,0L26.833,3.849a1.349,1.349,0,0,1-1.133.368L21.831,3.67a3.993,3.993,0,0,0-4.511,3.277L16.646,10.8a1.348,1.348,0,0,1-.7.964L12.495,13.59a3.993,3.993,0,0,0-1.723,5.3l1.716,3.51a1.348,1.348,0,0,1,0,1.192L10.771,27.1a3.993,3.993,0,0,0,1.723,5.3l3.451,1.831a1.348,1.348,0,0,1,.7.964l.675,3.848a3.991,3.991,0,0,0,3.936,3.318,4.1,4.1,0,0,0,.574-.041L25.7,41.78a1.348,1.348,0,0,1,1.133.368l2.808,2.716a3.993,3.993,0,0,0,5.576,0l2.808-2.716a1.349,1.349,0,0,1,1.133-.368l3.868.547a3.993,3.993,0,0,0,4.511-3.277l.675-3.848a1.348,1.348,0,0,1,.7-.964l3.451-1.831a3.993,3.993,0,0,0,1.723-5.3l-1.716-3.51Zm-1.251,6.469-3.451,1.831a3.984,3.984,0,0,0-2.07,2.849l-.675,3.848A1.351,1.351,0,0,1,43.4,39.7l-3.868-.547a3.983,3.983,0,0,0-3.349,1.088l-2.808,2.716a1.351,1.351,0,0,1-1.886,0l-2.808-2.716A3.98,3.98,0,0,0,25.9,39.112a4.072,4.072,0,0,0-.571.04L21.46,39.7a1.351,1.351,0,0,1-1.526-1.109l-.675-3.848a3.984,3.984,0,0,0-2.07-2.849l-3.451-1.831a1.351,1.351,0,0,1-.583-1.794l1.716-3.51a3.984,3.984,0,0,0,0-3.522l-1.716-3.51a1.351,1.351,0,0,1,.583-1.794L17.189,14.1a3.984,3.984,0,0,0,2.07-2.849l.675-3.848A1.351,1.351,0,0,1,21.46,6.3l3.868.547a3.984,3.984,0,0,0,3.349-1.088l2.808-2.716a1.351,1.351,0,0,1,1.886,0l2.808,2.716a3.984,3.984,0,0,0,3.349,1.088L43.4,6.3a1.351,1.351,0,0,1,1.526,1.109l.675,3.848a3.984,3.984,0,0,0,2.07,2.849l3.451,1.831a1.351,1.351,0,0,1,.583,1.794l-1.716,3.51a3.984,3.984,0,0,0,0,3.522l1.716,3.51A1.351,1.351,0,0,1,51.119,30.063Z" transform="translate(0)" fill="#fff"/>
    <path id="Path_745" data-name="Path 745" d="M162.665,125.362a1.327,1.327,0,0,0-1.876,0l-17.509,17.509a1.327,1.327,0,1,0,1.876,1.876l17.509-17.509A1.326,1.326,0,0,0,162.665,125.362Zm-15-2.246a4.864,4.864,0,1,0,4.864,4.864A4.87,4.87,0,0,0,147.666,123.116Zm0,7.075a2.211,2.211,0,1,1,2.211-2.211A2.213,2.213,0,0,1,147.666,130.191Zm10.612,7.075a4.864,4.864,0,1,0,4.864,4.864A4.87,4.87,0,0,0,158.278,137.266Zm0,7.075a2.211,2.211,0,1,1,2.211-2.211A2.213,2.213,0,0,1,158.278,144.341Z" transform="translate(-120.544 -112.057)" fill="#fff"/>
  </g>
</svg>
