<svg xmlns="http://www.w3.org/2000/svg" xmlns:xlink="http://www.w3.org/1999/xlink" width="38.432" height="38.432" viewBox="0 0 38.432 38.432">
  <defs>
    <clipPath id="clip-path">
      <path id="Path_761" data-name="Path 761" d="M0-682.665H38.432v38.432H0Z" transform="translate(0 682.665)" fill="#fff"/>
    </clipPath>
  </defs>
  <g id="subscription-icon" transform="translate(-3079 -4643)">
    <g id="svgexport-17_1_" data-name="svgexport-17 (1)" transform="translate(3079 4643)">
      <g id="Group_554" data-name="Group 554" transform="translate(0 0)" clip-path="url(#clip-path)">
        <path id="Path_746" data-name="Path 746" d="M-135.772-443.59h6.745v-2.871l1.574-5.605a11.879,11.879,0,0,0,.062-6.2l-.695-2.676a1.459,1.459,0,0,0-1.413-1.093h-.023a1.452,1.452,0,0,0-.908.316,1.459,1.459,0,0,0-.5.76,1.414,1.414,0,0,0-.051.383v-.555a1.454,1.454,0,0,0-.428-1.032,1.454,1.454,0,0,0-1.032-.427h-.23a1.459,1.459,0,0,0-1.459,1.459v-.853a1.457,1.457,0,0,0-.574-1.16,1.657,1.657,0,0,0-1.115-.3,1.459,1.459,0,0,0-1.454,1.345c-.007.006,0,.7,0,.734,0-.037,0-.073,0-.109v-7.125a1.458,1.458,0,0,0-1.458-1.458,1.458,1.458,0,0,0-1.458,1.458v10.508a1.469,1.469,0,0,0-.363-.961,1.49,1.49,0,0,0-1.094-.5,1.458,1.458,0,0,0-1.449,1.29l-.74,6.409a3.888,3.888,0,0,0-.025.478v0a3.875,3.875,0,0,0,1.348,2.9l2.324,2v2.871h1.732" transform="translate(154.56 481.459)" fill="rgba(0,0,0,0)" stroke="#fff" stroke-linecap="round" stroke-linejoin="round" stroke-miterlimit="10" stroke-width="2"/>
        <path id="Path_747" data-name="Path 747" d="M0,0V4.746" transform="translate(14.361 23.373)" fill="rgba(0,0,0,0)" stroke="#fff" stroke-linecap="round" stroke-linejoin="round" stroke-miterlimit="10" stroke-width="2"/>
        <path id="Path_748" data-name="Path 748" d="M-133.3-247.631h-7.952V-262.4h7.952" transform="translate(142.688 264.837)" fill="rgba(0,0,0,0)" stroke="#fff" stroke-linecap="round" stroke-linejoin="round" stroke-miterlimit="10" stroke-width="2"/>
        <path id="Path_749" data-name="Path 749" d="M-44.367-247.631h5.573V-262.4h-8.22" transform="translate(75.787 264.837)" fill="rgba(0,0,0,0)" stroke="#fff" stroke-linecap="round" stroke-linejoin="round" stroke-miterlimit="10" stroke-width="2"/>
        <path id="Path_750" data-name="Path 750" d="M-292.284-357.327h1.946v-21.316h-19.383v21.316h4.971" transform="translate(319.111 379.206)" fill="rgba(0,0,0,0)" stroke="#fff" stroke-linecap="round" stroke-linejoin="round" stroke-miterlimit="10" stroke-width="2"/>
        <path id="Path_751" data-name="Path 751" d="M0,0H5.685A1.108,1.108,0,0,1,6.793,1.109V2.19A1.108,1.108,0,0,1,5.685,3.3H2.6" transform="translate(17.276 12.864)" fill="rgba(0,0,0,0)" stroke="#fff" stroke-linecap="round" stroke-linejoin="round" stroke-miterlimit="10" stroke-width="2"/>
        <path id="Path_752" data-name="Path 752" d="M0-18.128v-1.081" transform="translate(14.362 33.182)" fill="rgba(0,0,0,0)" stroke="#fff" stroke-linecap="round" stroke-linejoin="round" stroke-miterlimit="10" stroke-width="2"/>
        <path id="Path_753" data-name="Path 753" d="M33.508-668.506H25.556v-2.283h7.952Zm27.6,0H52.89v-2.283h8.22Zm-8.22,0H33.508v-4.154H52.89Z" transform="translate(-24.117 673.223)" fill="rgba(0,0,0,0)" stroke="#fff" stroke-linecap="round" stroke-linejoin="round" stroke-miterlimit="10" stroke-width="2"/>
        <path id="Path_754" data-name="Path 754" d="M0,0H6.528" transform="translate(15.818 2.667)" fill="rgba(0,0,0,0)" stroke="#fff" stroke-linecap="round" stroke-linejoin="round" stroke-miterlimit="10" stroke-width="2"/>
        <path id="Path_755" data-name="Path 755" d="M223.249-557.115H218.8v-2.571h4.445Z" transform="translate(-206.486 566.61)" fill="rgba(0,0,0,0)" stroke="#fff" stroke-linecap="round" stroke-linejoin="round" stroke-miterlimit="10" stroke-width="2"/>
        <path id="Path_756" data-name="Path 756" d="M0,0H3.344" transform="translate(31.027 8.799)" fill="rgba(0,0,0,0)" stroke="#fff" stroke-linecap="round" stroke-linejoin="round" stroke-miterlimit="10" stroke-width="2"/>
        <path id="Path_757" data-name="Path 757" d="M0,0H3.344" transform="translate(31.027 11.221)" fill="rgba(0,0,0,0)" stroke="#fff" stroke-linecap="round" stroke-linejoin="round" stroke-miterlimit="10" stroke-width="2"/>
        <path id="Path_758" data-name="Path 758" d="M0,0H3.344" transform="translate(3.711 8.799)" fill="rgba(0,0,0,0)" stroke="#fff" stroke-linecap="round" stroke-linejoin="round" stroke-miterlimit="10" stroke-width="2"/>
        <path id="Path_759" data-name="Path 759" d="M0,0H3.344" transform="translate(3.711 11.221)" fill="rgba(0,0,0,0)" stroke="#fff" stroke-linecap="round" stroke-linejoin="round" stroke-miterlimit="10" stroke-width="2"/>
        <path id="Path_760" data-name="Path 760" d="M0,0H5.972" transform="translate(19.561 8.209)" fill="rgba(0,0,0,0)" stroke="#fff" stroke-linecap="round" stroke-linejoin="round" stroke-miterlimit="10" stroke-width="2"/>
      </g>
    </g>
  </g>
</svg>
