<svg id="Component_9_1" data-name="Component 9 – 1" xmlns="http://www.w3.org/2000/svg" xmlns:xlink="http://www.w3.org/1999/xlink" width="147.011" height="45.706" viewBox="0 0 147.011 45.706">
  <defs>
    <linearGradient id="linear-gradient" x1="0.499" y1="-0.086" x2="0.499" y2="0.963" gradientUnits="objectBoundingBox">
      <stop offset="0" stop-color="#df00e3"/>
      <stop offset="1" stop-color="#9b03e7"/>
    </linearGradient>
    <linearGradient id="linear-gradient-2" x1="0.502" y1="-0.042" x2="0.502" y2="0.964" xlink:href="#linear-gradient"/>
    <linearGradient id="linear-gradient-3" x1="0.5" y1="-0.085" x2="0.5" y2="0.952" xlink:href="#linear-gradient"/>
    <linearGradient id="linear-gradient-4" x1="0.5" y1="-0.684" x2="0.5" y2="1.116" gradientUnits="objectBoundingBox">
      <stop offset="0" stop-color="#22e5ff"/>
      <stop offset="1" stop-color="#0056ff"/>
    </linearGradient>
    <linearGradient id="linear-gradient-5" x1="0.498" y1="-0.691" x2="0.498" y2="1.129" xlink:href="#linear-gradient-4"/>
    <linearGradient id="linear-gradient-6" x1="0.502" y1="-0.623" x2="0.502" y2="1.123" xlink:href="#linear-gradient-4"/>
    <linearGradient id="linear-gradient-7" x1="0.5" y1="-1.269" x2="0.5" y2="1.173" xlink:href="#linear-gradient-4"/>
    <linearGradient id="linear-gradient-8" x1="0.499" y1="-0.916" x2="0.499" y2="0.852" xlink:href="#linear-gradient-4"/>
    <linearGradient id="linear-gradient-9" x1="2.291" y1="-6.226" x2="2.703" y2="-7.246" xlink:href="#linear-gradient"/>
    <linearGradient id="linear-gradient-10" x1="5.476" y1="-9.099" x2="4.53" y2="-9.069" xlink:href="#linear-gradient"/>
    <linearGradient id="linear-gradient-11" x1="1.254" y1="-3.316" x2="1.254" y2="-2.259" gradientUnits="objectBoundingBox">
      <stop offset="0" stop-color="#22e5ff"/>
      <stop offset="1" stop-color="#0083ff"/>
    </linearGradient>
    <linearGradient id="linear-gradient-12" x1="0.576" y1="-9.725" x2="1.081" y2="-8.854" xlink:href="#linear-gradient"/>
  </defs>
  <g id="Group_143" data-name="Group 143" transform="translate(47.881 12.004)">
    <path id="Path_293" data-name="Path 293" d="M-805.71,136.357l-5.77-18.964-.02-.118c0-.177.1-.276.315-.276h3.525a.385.385,0,0,1,.394.276l3.722,13.686c.02.059.039.079.079.079s.059-.02.079-.079l3.682-13.686a.371.371,0,0,1,.394-.276h3.446a.293.293,0,0,1,.256.118.274.274,0,0,1,.02.276l-5.868,18.964a.345.345,0,0,1-.374.276h-3.525A.341.341,0,0,1-805.71,136.357Z" transform="translate(811.5 -116.173)" fill="url(#linear-gradient)"/>
    <path id="Path_294" data-name="Path 294" d="M-719.27,116.581a2.153,2.153,0,0,1-.63-1.575,2.152,2.152,0,0,1,.61-1.6,2.152,2.152,0,0,1,1.6-.61,2.152,2.152,0,0,1,1.6.61,2.152,2.152,0,0,1,.61,1.6,2.153,2.153,0,0,1-.63,1.575,2.153,2.153,0,0,1-1.575.63A2.078,2.078,0,0,1-719.27,116.581Zm-.335,16.581a.326.326,0,0,1-.1-.236V119.161a.327.327,0,0,1,.1-.236.327.327,0,0,1,.236-.1h3.289a.327.327,0,0,1,.236.1.327.327,0,0,1,.1.236v13.765a.326.326,0,0,1-.1.236.327.327,0,0,1-.236.1h-3.289A.326.326,0,0,1-719.6,133.162Z" transform="translate(737.938 -112.8)" fill="url(#linear-gradient-2)"/>
    <path id="Path_295" data-name="Path 295" d="M-675.507,117.1a.326.326,0,0,1,.236-.1h3.289a.326.326,0,0,1,.236.1.326.326,0,0,1,.1.236V136.3a.326.326,0,0,1-.1.236.326.326,0,0,1-.236.1h-3.289a.326.326,0,0,1-.236-.1.326.326,0,0,1-.1-.236v-.926a.091.091,0,0,0-.059-.1.145.145,0,0,0-.118.039,3.837,3.837,0,0,1-3.229,1.536,5.417,5.417,0,0,1-3.387-1.1,6.035,6.035,0,0,1-2.028-2.993,10.993,10.993,0,0,1-.473-3.387,11.008,11.008,0,0,1,.512-3.486,6.082,6.082,0,0,1,2.028-2.855,5.458,5.458,0,0,1,3.427-1.044,3.848,3.848,0,0,1,3.151,1.4q.059.089.118.059a.119.119,0,0,0,.059-.118v-6.006A.251.251,0,0,1-675.507,117.1Zm-.138,12.327a5.944,5.944,0,0,0-.61-2.954,2.075,2.075,0,0,0-1.871-1.1,2.194,2.194,0,0,0-1.989,1.1,5.4,5.4,0,0,0-.709,2.974,5.939,5.939,0,0,0,.591,2.8,2.253,2.253,0,0,0,2.068,1.2,2.17,2.17,0,0,0,1.969-1.2A5.857,5.857,0,0,0-675.645,129.426Z" transform="translate(709.83 -116.173)" fill="url(#linear-gradient-3)"/>
    <path id="Path_296" data-name="Path 296" d="M-589.047,129.367a10.9,10.9,0,0,1-.473,3.387,6.136,6.136,0,0,1-2.068,2.993,5.345,5.345,0,0,1-3.348,1.1,3.862,3.862,0,0,1-3.229-1.536c-.039-.039-.079-.059-.118-.039-.039,0-.059.039-.059.1v.926a.326.326,0,0,1-.1.236.326.326,0,0,1-.236.1h-3.289a.326.326,0,0,1-.236-.1.326.326,0,0,1-.1-.236V117.335a.326.326,0,0,1,.1-.236.326.326,0,0,1,.236-.1h3.289a.326.326,0,0,1,.236.1.326.326,0,0,1,.1.236v6.006a.119.119,0,0,0,.059.118q.059.03.118-.059a3.744,3.744,0,0,1,3.111-1.4,5.581,5.581,0,0,1,3.427,1.044A6.082,6.082,0,0,1-589.6,125.9,9.624,9.624,0,0,1-589.047,129.367Zm-4.1.079a5.408,5.408,0,0,0-.67-2.974,2.215,2.215,0,0,0-1.989-1.1,2.034,2.034,0,0,0-1.871,1.1,5.9,5.9,0,0,0-.61,2.954,5.685,5.685,0,0,0,.551,2.836,2.129,2.129,0,0,0,1.969,1.2,2.184,2.184,0,0,0,2.048-1.2A6.056,6.056,0,0,0-593.143,129.445Z" transform="translate(643.496 -116.173)" fill="url(#linear-gradient-4)"/>
    <path id="Path_297" data-name="Path 297" d="M-521.8,136.535a.326.326,0,0,1-.1-.236V117.335a.326.326,0,0,1,.1-.236.326.326,0,0,1,.236-.1h3.289a.326.326,0,0,1,.236.1.326.326,0,0,1,.1.236V136.3a.326.326,0,0,1-.1.236.326.326,0,0,1-.236.1h-3.289A.326.326,0,0,1-521.8,136.535Z" transform="translate(578.929 -116.173)" fill="url(#linear-gradient-5)"/>
    <path id="Path_298" data-name="Path 298" d="M-486.97,116.581a2.153,2.153,0,0,1-.63-1.575,2.152,2.152,0,0,1,.61-1.6,2.152,2.152,0,0,1,1.6-.61,2.152,2.152,0,0,1,1.6.61,2.152,2.152,0,0,1,.61,1.6,2.153,2.153,0,0,1-.63,1.575,2.153,2.153,0,0,1-1.575.63A2.078,2.078,0,0,1-486.97,116.581Zm-.335,16.581a.326.326,0,0,1-.1-.236V119.161a.326.326,0,0,1,.1-.236.326.326,0,0,1,.236-.1h3.289a.326.326,0,0,1,.236.1.326.326,0,0,1,.1.236v13.765a.326.326,0,0,1-.1.236.326.326,0,0,1-.236.1h-3.289A.326.326,0,0,1-487.3,133.162Z" transform="translate(551.383 -112.8)" fill="url(#linear-gradient-6)"/>
    <path id="Path_299" data-name="Path 299" d="M-439.754,143.756a5.024,5.024,0,0,1,1.378,3.722v9.216a.326.326,0,0,1-.1.236.326.326,0,0,1-.236.1H-442a.326.326,0,0,1-.236-.1.326.326,0,0,1-.1-.236v-8.389a2.685,2.685,0,0,0-.63-1.831,2.13,2.13,0,0,0-1.674-.709,2.158,2.158,0,0,0-1.674.709,2.685,2.685,0,0,0-.63,1.831v8.389a.326.326,0,0,1-.1.236.326.326,0,0,1-.236.1h-3.289a.326.326,0,0,1-.236-.1.326.326,0,0,1-.1-.236V142.949a.326.326,0,0,1,.1-.236.326.326,0,0,1,.236-.1h3.289a.326.326,0,0,1,.236.1.326.326,0,0,1,.1.236v.985a.119.119,0,0,0,.059.118c.039.02.059,0,.079-.02a3.934,3.934,0,0,1,3.426-1.634A4.871,4.871,0,0,1-439.754,143.756Z" transform="translate(521.91 -136.569)" fill="url(#linear-gradient-7)"/>
    <path id="Path_300" data-name="Path 300" d="M-365.686,142.474a.326.326,0,0,1,.236-.1h3.289a.326.326,0,0,1,.236.1.326.326,0,0,1,.1.236v12.78c0,2.442-.709,4.194-2.127,5.238a8.955,8.955,0,0,1-5.455,1.575,18.06,18.06,0,0,1-2.186-.138c-.177-.02-.276-.138-.276-.374l.118-2.895c0-.236.138-.354.394-.315a10.828,10.828,0,0,0,1.851.177,4.184,4.184,0,0,0,2.757-.788,3.048,3.048,0,0,0,.965-2.521.091.091,0,0,0-.059-.1.145.145,0,0,0-.118.039,4.031,4.031,0,0,1-3.111,1.142,6.548,6.548,0,0,1-3.348-.886,4.786,4.786,0,0,1-2.166-2.855,11.162,11.162,0,0,1-.414-3.328,10.592,10.592,0,0,1,.512-3.564,5.754,5.754,0,0,1,1.989-2.757,5.339,5.339,0,0,1,3.249-1.044,4.188,4.188,0,0,1,3.308,1.3c.039.039.079.059.118.039.039,0,.059-.039.059-.1v-.67A.179.179,0,0,1-365.686,142.474Zm-.1,6.991a11.605,11.605,0,0,0-.059-1.339,4.642,4.642,0,0,0-.2-.906,2.59,2.59,0,0,0-.847-1.221,2.259,2.259,0,0,0-1.457-.453,2.361,2.361,0,0,0-1.438.453,2.625,2.625,0,0,0-.866,1.221,5.5,5.5,0,0,0-.394,2.265,5.567,5.567,0,0,0,.335,2.245,2.529,2.529,0,0,0,.886,1.221,2.424,2.424,0,0,0,1.5.473,2.252,2.252,0,0,0,1.477-.473,2.3,2.3,0,0,0,.807-1.2A7.666,7.666,0,0,0-365.784,149.465Z" transform="translate(460.956 -136.33)" fill="url(#linear-gradient-8)"/>
  </g>
  <g id="Group_144" data-name="Group 144">
    <path id="Path_301" data-name="Path 301" d="M-989.3,62.179l5.337-9.236a2.2,2.2,0,0,1,3.8,0l5.337,9.236Z" transform="translate(1002.17 -51.85)" fill="url(#linear-gradient-9)"/>
    <path id="Path_302" data-name="Path 302" d="M-1054.313,177.136l5.336-9.236,7.227,12.524h-10.673A2.19,2.19,0,0,1-1054.313,177.136Z" transform="translate(1054.62 -145.047)" fill="url(#linear-gradient-10)"/>
    <path id="Path_303" data-name="Path 303" d="M-1052.458,104.3h35.8a2.187,2.187,0,0,1,1.891,3.289l-5.337,9.236-7.227,12.524-5.337,9.236a2.2,2.2,0,0,1-3.8,0l-5.336-9.236-7.227-12.524-5.337-9.236A2.208,2.208,0,0,1-1052.458,104.3Z" transform="translate(1054.655 -93.971)" fill="url(#linear-gradient-11)"/>
    <path id="Path_304" data-name="Path 304" d="M-915.9,180.424l7.227-12.524,5.337,9.236a2.193,2.193,0,0,1-1.89,3.289Z" transform="translate(943.224 -145.047)" fill="url(#linear-gradient-12)"/>
    <path id="Path_305" data-name="Path 305" d="M-1005.031,133.648a1.369,1.369,0,0,1,0-2.383l6.341-3.663,6.341-3.663a1.379,1.379,0,0,1,2.068,1.2v14.651a1.386,1.386,0,0,1-2.068,1.2l-6.341-3.663Z" transform="translate(1015.36 -109.594)" fill="#fff"/>
  </g>
</svg>
