<svg width="45" height="44" viewBox="0 0 45 44" fill="none" xmlns="http://www.w3.org/2000/svg">
<path d="M13.2206 0.876465H32.0196C39.1812 0.876465 45 6.38312 45 13.1605V30.9513C45 34.2092 43.6324 37.3337 41.1981 39.6374C38.7638 41.9411 35.4622 43.2354 32.0196 43.2354H13.2206C6.059 43.2354 0.240234 37.7287 0.240234 30.9513V13.1605C0.240234 9.9026 1.6078 6.7781 4.04208 4.47439C6.47637 2.17068 9.77796 0.876465 13.2206 0.876465ZM12.773 5.11235C10.6362 5.11235 8.58691 5.91566 7.07598 7.34555C5.56504 8.77544 4.71621 10.7148 4.71621 12.737V31.3749C4.71621 35.5896 8.31937 38.9995 12.773 38.9995H32.4672C34.604 38.9995 36.6533 38.1962 38.1642 36.7663C39.6752 35.3364 40.524 33.397 40.524 31.3749V12.737C40.524 8.52224 36.9208 5.11235 32.4672 5.11235H12.773ZM34.3695 8.28927C35.1115 8.28927 35.823 8.5682 36.3477 9.06469C36.8723 9.56118 37.167 10.2346 37.167 10.9367C37.167 11.6388 36.8723 12.3122 36.3477 12.8087C35.823 13.3052 35.1115 13.5841 34.3695 13.5841C33.6276 13.5841 32.916 13.3052 32.3914 12.8087C31.8668 12.3122 31.5721 11.6388 31.5721 10.9367C31.5721 10.2346 31.8668 9.56118 32.3914 9.06469C32.916 8.5682 33.6276 8.28927 34.3695 8.28927ZM22.6201 11.4662C25.5879 11.4662 28.4341 12.5819 30.5326 14.5678C32.6311 16.5538 33.81 19.2473 33.81 22.0559C33.81 24.8645 32.6311 27.558 30.5326 29.544C28.4341 31.5299 25.5879 32.6456 22.6201 32.6456C19.6523 32.6456 16.8061 31.5299 14.7076 29.544C12.6091 27.558 11.4302 24.8645 11.4302 22.0559C11.4302 19.2473 12.6091 16.5538 14.7076 14.5678C16.8061 12.5819 19.6523 11.4662 22.6201 11.4662ZM22.6201 15.7021C20.8394 15.7021 19.1317 16.3715 17.8726 17.5631C16.6135 18.7546 15.9061 20.3708 15.9061 22.0559C15.9061 23.7411 16.6135 25.3572 17.8726 26.5488C19.1317 27.7403 20.8394 28.4097 22.6201 28.4097C24.4008 28.4097 26.1085 27.7403 27.3676 26.5488C28.6267 25.3572 29.3341 23.7411 29.3341 22.0559C29.3341 20.3708 28.6267 18.7546 27.3676 17.5631C26.1085 16.3715 24.4008 15.7021 22.6201 15.7021Z" fill="url(#paint0_linear_310_284)"/>
<defs>
<linearGradient id="paint0_linear_310_284" x1="21.4803" y1="-1.01705" x2="48.1348" y2="1.31039" gradientUnits="userSpaceOnUse">
<stop stop-color="#B12BDE"/>
<stop offset="0.491416" stop-color="#874EE5"/>
<stop offset="1" stop-color="#5579ED"/>
</linearGradient>
</defs>
</svg>
