<svg width="51" height="44" viewBox="0 0 51 44" fill="none" xmlns="http://www.w3.org/2000/svg">
<path d="M40.2831 14.4212L40.2826 14.4217C40.1354 14.5614 40.0562 14.737 40.0444 14.9122L40.0443 14.9128C39.0602 29.3498 26.3354 40.5746 11.1579 40.5746C8.62085 40.5746 6.79402 40.2562 5.47589 39.8547L3.17995 39.1554L5.31466 38.0584C7.9409 36.7089 11.5059 34.4318 13.7703 31.2178L40.2831 14.4212ZM40.2831 14.4212L44.5331 10.3838L46.3 8.70527H43.8629H40.143H40.1428M40.2831 14.4212L40.1428 8.70527M2.74236 6.17805L4.31122 7.38438C7.98765 10.2113 14.6319 14.5313 22.1614 15.7295L22.1618 15.7296C22.2961 15.751 22.4338 15.7444 22.5644 15.7106C22.6949 15.6769 22.8125 15.6175 22.9099 15.5398C23.0071 15.4622 23.0812 15.3688 23.1306 15.2685C23.1797 15.1688 23.2041 15.063 23.2046 14.9576C23.2046 14.9573 23.2046 14.9569 23.2046 14.9565L2.74236 6.17805ZM2.74236 6.17805L2.74506 8.15707M2.74236 6.17805L2.74506 8.15707M2.74506 8.15707C2.76663 23.9575 13.1766 29.9649 13.4813 30.1319C13.5882 30.1903 13.6774 30.2667 13.7457 30.3538C13.8138 30.4406 13.8599 30.5365 13.8842 30.6348C13.9085 30.733 13.9112 30.834 13.8924 30.9327C13.8736 31.0315 13.833 31.1286 13.7704 31.2177L2.74506 8.15707ZM40.1428 8.70527C39.959 8.70532 39.7831 8.65447 39.6368 8.56402C39.491 8.47386 39.3843 8.35063 39.3219 8.21565M40.1428 8.70527L39.3219 8.21565M39.3219 8.21565C37.9997 5.35264 34.8901 3.46417 31.6061 3.42477L39.3219 8.21565ZM49.1837 7.63481L49.184 7.63552C49.2442 7.77277 49.259 7.92041 49.2293 8.06224C49.1994 8.2045 49.1242 8.34296 49.004 8.4569C49.0039 8.45693 49.0039 8.45697 49.0038 8.45701L42.0503 15.0353L41.7833 15.2879L41.75 15.654C40.3976 30.5164 27.129 42.1489 11.1579 42.1489C7.86628 42.1489 5.24065 41.6535 3.30967 40.7378L3.30939 40.7377C1.76684 40.0068 1.19606 39.2563 1.11158 39.1372C1.04275 39.0392 1.00061 38.9316 0.984627 38.8227C0.968623 38.7136 0.978662 38.6021 1.01507 38.4953C1.05156 38.3883 1.11469 38.2858 1.20393 38.1974C1.29336 38.1088 1.40654 38.0368 1.53689 37.9906L1.5369 37.9906L1.54462 37.9878L1.54555 37.9875C1.65094 37.9492 7.403 35.8588 11.1052 31.8261L11.8191 31.0484L10.9859 30.4001C9.09697 28.9304 7.44992 27.2059 6.09714 25.2835L6.09716 25.2835L6.09349 25.2783C3.32222 21.394 0.178023 14.5873 1.15515 4.33383L1.15523 4.33297C1.16827 4.1949 1.22307 4.05749 1.32056 3.93787C1.41852 3.81767 1.55644 3.71983 1.72253 3.66317C1.88887 3.60643 2.07092 3.59547 2.24528 3.63271L2.44848 2.68112L2.24528 3.63271C2.41948 3.66991 2.57224 3.75215 2.68812 3.86278L2.68812 3.86279L2.69123 3.86574C2.78405 3.95357 10.5977 11.3199 20.222 13.7225L21.4307 14.0243V12.7784L21.4307 11.4385L21.4307 11.4361C21.4276 10.1687 21.6922 8.91215 22.2105 7.73968C22.7289 6.56705 23.4914 5.50061 24.4562 4.60467L24.4562 4.6047L24.4621 4.59913C25.3975 3.71581 26.513 3.01574 27.7445 2.54267C28.976 2.06958 30.2968 1.83378 31.6286 1.85032L31.6316 1.85035C33.4255 1.86709 35.1815 2.32294 36.7284 3.17018C38.2751 4.01729 39.5574 5.22516 40.4557 6.67132L40.7411 7.13097H41.2822H48.3569C48.3569 7.13097 48.357 7.13097 48.357 7.13097C48.544 7.13104 48.7226 7.18377 48.8701 7.27708C49.0172 7.37011 49.1233 7.49682 49.1837 7.63481ZM23.8654 8.30982C23.4275 9.29919 23.2023 10.3636 23.2046 11.4398L31.6058 3.42477C30.5218 3.41149 29.4449 3.60391 28.4382 3.99182C27.4331 4.37914 26.5165 4.95424 25.7439 5.68577C24.9423 6.43035 24.3027 7.32193 23.8654 8.30982Z" fill="url(#paint0_linear_310_286)"/>
<path d="M40.2831 14.4212L40.2826 14.4217C40.1354 14.5614 40.0562 14.737 40.0444 14.9122L40.0443 14.9128C39.0602 29.3498 26.3354 40.5746 11.1579 40.5746C8.62085 40.5746 6.79402 40.2562 5.47589 39.8547L3.17995 39.1554L5.31466 38.0584C7.9409 36.7089 11.5059 34.4318 13.7703 31.2178L40.2831 14.4212ZM40.2831 14.4212L44.5331 10.3838L46.3 8.70527H43.8629H40.143H40.1428M40.2831 14.4212L40.1428 8.70527M2.74236 6.17805L4.31122 7.38438C7.98765 10.2113 14.6319 14.5313 22.1614 15.7295L22.1618 15.7296C22.2961 15.751 22.4338 15.7444 22.5644 15.7106C22.6949 15.6769 22.8125 15.6175 22.9099 15.5398C23.0071 15.4622 23.0812 15.3688 23.1306 15.2685C23.1797 15.1688 23.2041 15.063 23.2046 14.9576C23.2046 14.9573 23.2046 14.9569 23.2046 14.9565L2.74236 6.17805ZM2.74236 6.17805L2.74506 8.15707M2.74236 6.17805L2.74506 8.15707M2.74506 8.15707C2.76663 23.9575 13.1766 29.9649 13.4813 30.1319C13.5882 30.1903 13.6774 30.2667 13.7457 30.3538C13.8138 30.4406 13.8599 30.5365 13.8842 30.6348C13.9085 30.733 13.9112 30.834 13.8924 30.9327C13.8736 31.0315 13.833 31.1286 13.7704 31.2177L2.74506 8.15707ZM40.1428 8.70527C39.959 8.70532 39.7831 8.65447 39.6368 8.56402C39.491 8.47386 39.3843 8.35063 39.3219 8.21565M40.1428 8.70527L39.3219 8.21565M39.3219 8.21565C37.9997 5.35264 34.8901 3.46417 31.6061 3.42477L39.3219 8.21565ZM49.1837 7.63481L49.184 7.63552C49.2442 7.77277 49.259 7.92041 49.2293 8.06224C49.1994 8.2045 49.1242 8.34296 49.004 8.4569C49.0039 8.45693 49.0039 8.45697 49.0038 8.45701L42.0503 15.0353L41.7833 15.2879L41.75 15.654C40.3976 30.5164 27.129 42.1489 11.1579 42.1489C7.86628 42.1489 5.24065 41.6535 3.30967 40.7378L3.30939 40.7377C1.76684 40.0068 1.19606 39.2563 1.11158 39.1372C1.04275 39.0392 1.00061 38.9316 0.984627 38.8227C0.968623 38.7136 0.978662 38.6021 1.01507 38.4953C1.05156 38.3883 1.11469 38.2858 1.20393 38.1974C1.29336 38.1088 1.40654 38.0368 1.53689 37.9906L1.5369 37.9906L1.54462 37.9878L1.54555 37.9875C1.65094 37.9492 7.403 35.8588 11.1052 31.8261L11.8191 31.0484L10.9859 30.4001C9.09697 28.9304 7.44992 27.2059 6.09714 25.2835L6.09716 25.2835L6.09349 25.2783C3.32222 21.394 0.178023 14.5873 1.15515 4.33383L1.15523 4.33297C1.16827 4.1949 1.22307 4.05749 1.32056 3.93787C1.41852 3.81767 1.55644 3.71983 1.72253 3.66317C1.88887 3.60643 2.07092 3.59547 2.24528 3.63271L2.44848 2.68112L2.24528 3.63271C2.41948 3.66991 2.57224 3.75215 2.68812 3.86278L2.68812 3.86279L2.69123 3.86574C2.78405 3.95357 10.5977 11.3199 20.222 13.7225L21.4307 14.0243V12.7784L21.4307 11.4385L21.4307 11.4361C21.4276 10.1687 21.6922 8.91215 22.2105 7.73968C22.7289 6.56705 23.4914 5.50061 24.4562 4.60467L24.4562 4.6047L24.4621 4.59913C25.3975 3.71581 26.513 3.01574 27.7445 2.54267C28.976 2.06958 30.2968 1.83378 31.6286 1.85032L31.6316 1.85035C33.4255 1.86709 35.1815 2.32294 36.7284 3.17018C38.2751 4.01729 39.5574 5.22516 40.4557 6.67132L40.7411 7.13097H41.2822H48.3569C48.3569 7.13097 48.357 7.13097 48.357 7.13097C48.544 7.13104 48.7226 7.18377 48.8701 7.27708C49.0172 7.37011 49.1233 7.49682 49.1837 7.63481ZM23.8654 8.30982C23.4275 9.29919 23.2023 10.3636 23.2046 11.4398L31.6058 3.42477C30.5218 3.41149 29.4449 3.60391 28.4382 3.99182C27.4331 4.37914 26.5165 4.95424 25.7439 5.68577C24.9423 6.43035 24.3027 7.32193 23.8654 8.30982Z" stroke="white" stroke-width="1.94608"/>
<path d="M40.2831 14.4212L40.2826 14.4217C40.1354 14.5614 40.0562 14.737 40.0444 14.9122L40.0443 14.9128C39.0602 29.3498 26.3354 40.5746 11.1579 40.5746C8.62085 40.5746 6.79402 40.2562 5.47589 39.8547L3.17995 39.1554L5.31466 38.0584C7.9409 36.7089 11.5059 34.4318 13.7703 31.2178L40.2831 14.4212ZM40.2831 14.4212L44.5331 10.3838L46.3 8.70527H43.8629H40.143H40.1428M40.2831 14.4212L40.1428 8.70527M2.74236 6.17805L4.31122 7.38438C7.98765 10.2113 14.6319 14.5313 22.1614 15.7295L22.1618 15.7296C22.2961 15.751 22.4338 15.7444 22.5644 15.7106C22.6949 15.6769 22.8125 15.6175 22.9099 15.5398C23.0071 15.4622 23.0812 15.3688 23.1306 15.2685C23.1797 15.1688 23.2041 15.063 23.2046 14.9576C23.2046 14.9573 23.2046 14.9569 23.2046 14.9565L2.74236 6.17805ZM2.74236 6.17805L2.74506 8.15707M2.74236 6.17805L2.74506 8.15707M2.74506 8.15707C2.76663 23.9575 13.1766 29.9649 13.4813 30.1319C13.5882 30.1903 13.6774 30.2667 13.7457 30.3538C13.8138 30.4406 13.8599 30.5365 13.8842 30.6348C13.9085 30.733 13.9112 30.834 13.8924 30.9327C13.8736 31.0315 13.833 31.1286 13.7704 31.2177L2.74506 8.15707ZM40.1428 8.70527C39.959 8.70532 39.7831 8.65447 39.6368 8.56402C39.491 8.47386 39.3843 8.35063 39.3219 8.21565M40.1428 8.70527L39.3219 8.21565M39.3219 8.21565C37.9997 5.35264 34.8901 3.46417 31.6061 3.42477L39.3219 8.21565ZM49.1837 7.63481L49.184 7.63552C49.2442 7.77277 49.259 7.92041 49.2293 8.06224C49.1994 8.2045 49.1242 8.34296 49.004 8.4569C49.0039 8.45693 49.0039 8.45697 49.0038 8.45701L42.0503 15.0353L41.7833 15.2879L41.75 15.654C40.3976 30.5164 27.129 42.1489 11.1579 42.1489C7.86628 42.1489 5.24065 41.6535 3.30967 40.7378L3.30939 40.7377C1.76684 40.0068 1.19606 39.2563 1.11158 39.1372C1.04275 39.0392 1.00061 38.9316 0.984627 38.8227C0.968623 38.7136 0.978662 38.6021 1.01507 38.4953C1.05156 38.3883 1.11469 38.2858 1.20393 38.1974C1.29336 38.1088 1.40654 38.0368 1.53689 37.9906L1.5369 37.9906L1.54462 37.9878L1.54555 37.9875C1.65094 37.9492 7.403 35.8588 11.1052 31.8261L11.8191 31.0484L10.9859 30.4001C9.09697 28.9304 7.44992 27.2059 6.09714 25.2835L6.09716 25.2835L6.09349 25.2783C3.32222 21.394 0.178023 14.5873 1.15515 4.33383L1.15523 4.33297C1.16827 4.1949 1.22307 4.05749 1.32056 3.93787C1.41852 3.81767 1.55644 3.71983 1.72253 3.66317C1.88887 3.60643 2.07092 3.59547 2.24528 3.63271L2.44848 2.68112L2.24528 3.63271C2.41948 3.66991 2.57224 3.75215 2.68812 3.86278L2.68812 3.86279L2.69123 3.86574C2.78405 3.95357 10.5977 11.3199 20.222 13.7225L21.4307 14.0243V12.7784L21.4307 11.4385L21.4307 11.4361C21.4276 10.1687 21.6922 8.91215 22.2105 7.73968C22.7289 6.56705 23.4914 5.50061 24.4562 4.60467L24.4562 4.6047L24.4621 4.59913C25.3975 3.71581 26.513 3.01574 27.7445 2.54267C28.976 2.06958 30.2968 1.83378 31.6286 1.85032L31.6316 1.85035C33.4255 1.86709 35.1815 2.32294 36.7284 3.17018C38.2751 4.01729 39.5574 5.22516 40.4557 6.67132L40.7411 7.13097H41.2822H48.3569C48.3569 7.13097 48.357 7.13097 48.357 7.13097C48.544 7.13104 48.7226 7.18377 48.8701 7.27708C49.0172 7.37011 49.1233 7.49682 49.1837 7.63481ZM23.8654 8.30982C23.4275 9.29919 23.2023 10.3636 23.2046 11.4398L31.6058 3.42477C30.5218 3.41149 29.4449 3.60391 28.4382 3.99182C27.4331 4.37914 26.5165 4.95424 25.7439 5.68577C24.9423 6.43035 24.3027 7.32193 23.8654 8.30982Z" stroke="url(#paint1_linear_310_286)" stroke-width="1.94608"/>
<defs>
<linearGradient id="paint0_linear_310_286" x1="23.8298" y1="-1.01198" x2="53.6742" y2="1.91959" gradientUnits="userSpaceOnUse">
<stop stop-color="#B12BDE"/>
<stop offset="0.491416" stop-color="#874EE5"/>
<stop offset="1" stop-color="#5579ED"/>
</linearGradient>
<linearGradient id="paint1_linear_310_286" x1="23.8298" y1="-1.01198" x2="53.6742" y2="1.91959" gradientUnits="userSpaceOnUse">
<stop stop-color="#B12BDE"/>
<stop offset="0.491416" stop-color="#874EE5"/>
<stop offset="1" stop-color="#5579ED"/>
</linearGradient>
</defs>
</svg>
