<svg width="52" height="46" viewBox="0 0 52 46" fill="none" xmlns="http://www.w3.org/2000/svg">
<path d="M51.5679 31.352V38.52C51.5679 38.9953 51.3738 39.4511 51.0284 39.7871C50.683 40.1232 50.2146 40.312 49.7261 40.312C49.2377 40.312 48.7692 40.1232 48.4238 39.7871C48.0784 39.4511 47.8844 38.9953 47.8844 38.52V35.6775L47.3756 36.1747C46.6619 36.9296 38.0863 45.688 23.9416 45.688C9.47469 45.688 0.832282 36.5242 0.470839 36.1344C0.14418 35.7794 -0.024176 35.3128 0.00280798 34.837C0.029792 34.3613 0.249905 33.9155 0.614725 33.5976C0.979546 33.2798 1.45919 33.116 1.94814 33.1422C2.43709 33.1685 2.89529 33.3827 3.22195 33.7376C3.28411 33.816 11.1645 42.104 23.9416 42.104C36.7188 42.104 44.5992 33.816 44.6774 33.7354C44.6969 33.7119 44.7177 33.6895 44.7396 33.6682L45.2806 33.144H42.3591C41.8707 33.144 41.4022 32.9552 41.0568 32.6192C40.7114 32.2831 40.5174 31.8273 40.5174 31.352C40.5174 30.8768 40.7114 30.421 41.0568 30.0849C41.4022 29.7488 41.8707 29.56 42.3591 29.56H49.7261C50.2146 29.56 50.683 29.7488 51.0284 30.0849C51.3738 30.421 51.5679 30.8768 51.5679 31.352ZM31.3086 14.8948V12.5361C31.3099 10.7241 30.6839 8.96459 29.5316 7.54116C28.3793 6.11772 26.768 5.11335 24.9573 4.68998C23.1466 4.26662 21.2421 4.44893 19.5509 5.20753C17.8597 5.96613 16.4804 7.2568 15.6353 8.87144C15.4131 9.29472 15.0271 9.61477 14.5624 9.76117C14.0976 9.90756 13.5921 9.86832 13.157 9.65208C12.722 9.43583 12.3931 9.06029 12.2426 8.60807C12.0921 8.15586 12.1325 7.66401 12.3547 7.24072C13.5759 4.90926 15.5685 3.04583 18.0111 1.95077C20.4537 0.855724 23.2042 0.592858 25.8191 1.20454C28.4341 1.81623 30.7611 3.26683 32.4252 5.32254C34.0894 7.37824 34.9936 9.91928 34.9921 12.5361V33.144C34.9921 33.6193 34.7981 34.0751 34.4527 34.4112C34.1073 34.7472 33.6388 34.936 33.1504 34.936C32.6619 34.936 32.1935 34.7472 31.8481 34.4112C31.5027 34.0751 31.3086 33.6193 31.3086 33.144V31.6813C29.6166 33.2654 27.4832 34.3305 25.1739 34.7438C22.8645 35.1571 20.4812 34.9006 18.3206 34.006C16.16 33.1114 14.3174 31.6184 13.0223 29.7127C11.7271 27.8069 11.0366 25.5727 11.0366 23.288C11.0366 21.0034 11.7271 18.7691 13.0223 16.8634C14.3174 14.9577 16.16 13.4647 18.3206 12.5701C20.4812 11.6755 22.8645 11.4189 25.1739 11.8323C27.4832 12.2456 29.6166 13.3106 31.3086 14.8948ZM31.3086 23.288C31.3086 21.6931 30.8226 20.1341 29.9119 18.8079C29.0012 17.4818 27.7068 16.4482 26.1924 15.8379C24.678 15.2276 23.0116 15.0679 21.4039 15.379C19.7962 15.6902 18.3194 16.4582 17.1603 17.586C16.0013 18.7137 15.2119 20.1506 14.8921 21.7148C14.5723 23.2791 14.7365 24.9005 15.3638 26.374C15.9911 27.8475 17.0533 29.1069 18.4163 29.993C19.7792 30.8791 21.3816 31.352 23.0208 31.352C24.1091 31.352 25.1869 31.1434 26.1924 30.7382C27.1979 30.3329 28.1116 29.7389 28.8812 28.9901C29.6508 28.2413 30.2612 27.3524 30.6778 26.374C31.0943 25.3956 31.3086 24.347 31.3086 23.288Z" fill="url(#paint0_linear_310_287)"/>
<defs>
<linearGradient id="paint0_linear_310_287" x1="24.4708" y1="-1.12107" x2="55.1362" y2="1.79539" gradientUnits="userSpaceOnUse">
<stop stop-color="#B12BDE"/>
<stop offset="0.491416" stop-color="#874EE5"/>
<stop offset="1" stop-color="#5579ED"/>
</linearGradient>
</defs>
</svg>
