<svg id="instagram-icon" xmlns="http://www.w3.org/2000/svg" width="18.564" height="18.404" viewBox="0 0 18.564 18.404">
  <path id="instagram-icon-2" data-name="instagram-icon" d="M5.358,2.752h7.849A5.339,5.339,0,0,1,18.564,8.04v7.828a5.339,5.339,0,0,1-5.358,5.288H5.358A5.339,5.339,0,0,1,0,15.868V8.04A5.339,5.339,0,0,1,5.358,2.752ZM9.232,6.985a5.188,5.188,0,1,1-5.189,5.188A5.19,5.19,0,0,1,9.232,6.985Zm0,1.752A3.436,3.436,0,1,1,5.8,12.174,3.437,3.437,0,0,1,9.232,8.738Zm5.02-2.472a.842.842,0,1,1-.842.842.842.842,0,0,1,.842-.842ZM6,4.255h6.567a4.484,4.484,0,0,1,4.482,4.459v6.6a4.483,4.483,0,0,1-4.482,4.458H6a4.484,4.484,0,0,1-4.483-4.458v-6.6A4.484,4.484,0,0,1,6,4.255Z" transform="translate(0 -2.752)" fill="#d9d9d9" fill-rule="evenodd"/>
</svg>
