<svg id="Component_10_1" data-name="Component 10 – 1" xmlns="http://www.w3.org/2000/svg" width="195.212" height="44.61" viewBox="0 0 195.212 44.61">
  <path id="Path_712" data-name="Path 712" d="M147.384,107.958h23.86v-4.618H153.571V94.521h14.9V89.986h-14.9V82.007h17.673V77.389h-23.86ZM196.55,77.389l-8.713,13.689-8.715-13.689H171.8l12.867,18.727v11.842h6.187V96.285l12.867-18.9Zm-53.32,0h-8.062L120.837,91.833V77.389h-6.27v30.569h6.27v-8.9l7.411-7.222,10.1,16.125h7.167l-12.7-20.239ZM31.536,96.368c0,4.031-2.01,7.726-8.795,7.726-6.868,0-7.787-4.535-7.787-7.139H8.5c0,4.031,1.592,11.59,14.238,11.59,10.805,0,15.245-4.618,15.245-11.757v-19.4h-6.45ZM57.675,76.3c-9.772,0-17.752,7.222-17.752,16.125s7.981,16.125,17.752,16.125c9.853,0,17.833-7.222,17.833-16.125S67.528,76.3,57.675,76.3Zm0,27.966c-6.108,0-11.075-5.292-11.075-11.842,0-6.634,4.967-11.925,11.075-11.925,6.188,0,11.155,5.292,11.155,11.925C68.83,98.972,63.863,104.263,57.675,104.263Zm37.593,0c-6.188,0-11.155-5.292-11.155-11.842,0-6.634,4.967-11.925,11.155-11.925A11.147,11.147,0,0,1,106.1,87.551h6.432C110.739,81,105.448,76.3,95.268,76.3c-9.852,0-17.833,7.222-17.833,16.125s7.981,16.125,17.833,16.125c9.935,0,15.716-5.29,17.428-12.262h-6.271c-1.3,4.617-5.131,7.977-11.156,7.977Zm99.48-.673a2.832,2.832,0,0,0-2.857,2.855,2.763,2.763,0,0,0,2.857,2.771,2.815,2.815,0,0,0,2.855-2.771A2.886,2.886,0,0,0,194.748,103.59Zm0,5.207a2.352,2.352,0,1,1,2.267-2.351A2.3,2.3,0,0,1,194.748,108.8Z" transform="translate(-8.504 -76.297)" fill="#787878" fill-rule="evenodd"/>
  <path id="Path_713" data-name="Path 713" d="M176.706,103.767c.5-.084.84-.335.84-.84,0-.672-.337-.924-1.091-.924h-1.261v3.191h.505v-1.427h.5l.924,1.427h.5l-.924-1.427Zm-1.007-.42v-.923h.671c.337,0,.672,0,.672.42,0,.5-.337.5-.755.5Z" transform="translate(9.957 -73.45)" fill="#787878" fill-rule="evenodd"/>
  <path id="Path_714" data-name="Path 714" d="M21.718,110.236h2.616v6.82h1.06v-6.82H28.03v-.951H21.718Zm11.949,2.28H29.614v-3.231H28.556v7.771h1.059v-3.61h4.053v3.61h1.049v-7.771H33.667Zm8.09,3.61h-4.68v-2.594h4.259v-.93H37.077v-2.367h4.615v-.951H36.04v7.771h5.717v-.93Zm9.107-.551-3.912-6.29H45.709v7.771h1.015v-6.269l3.968,6.269h1.177v-7.771H50.864Zm8.047.551h-4.68v-2.594H58.49v-.93H54.232v-2.367h4.615v-.951H53.194v7.771h5.717Zm.33.93h1.265l2.15-3.188,2.086,3.188h1.308l-2.724-3.968,2.6-3.8H64.678L62.7,112.268l-1.967-2.982H59.4l2.616,3.782-2.778,3.989Zm6.74-6.82H68.6v6.82h1.059v-6.82h2.637v-.951H65.981Zm9.594,6.82h3.567a2.3,2.3,0,0,0,2.41-2.476,1.837,1.837,0,0,0-1.394-1.707,1.677,1.677,0,0,0,1.016-1.622,1.979,1.979,0,0,0-2.1-1.967h-3.5v7.772Zm1.059-.886v-2.724h2.086c1.524,0,1.816.66,1.794,1.415a1.32,1.32,0,0,1-1.448,1.308H76.633Zm0-3.589v-2.388h2.022c1.124,0,1.545.487,1.481,1.286-.022.442-.292,1.1-1.46,1.1H76.633Zm11.593,3.546H83.546v-2.594H87.8v-.93H83.546v-2.367h4.616v-.951H82.508v7.771h5.718v-.93Zm6.62-4.562c-.043-.843-.324-2.465-3.027-2.465a2.37,2.37,0,0,0-2.68,2.379c0,1.773,1.945,1.9,3.253,2.215,1.264.3,1.643.551,1.643,1.373,0,1.1-1.265,1.307-2.022,1.307-.994,0-2.15-.421-2.15-1.827H88.89c0,1.892,1.2,2.726,3.123,2.726,1.33,0,3.037-.51,3.037-2.347a2.036,2.036,0,0,0-1.751-2.1c-.735-.162-1.481-.335-2.216-.508-.464-.1-.929-.313-.929-.962,0-1.188,1.124-1.372,1.773-1.372a1.713,1.713,0,0,1,1.945,1.577Zm.449-1.328h2.616v6.82h1.06v-6.82h2.637v-.951H95.3Zm8.967,0h2.616v6.82h1.059v-6.82h2.638v-.951h-6.312Zm11.948,2.28h-4.052v-3.231H111.1v7.771h1.059v-3.61h4.052v3.61h1.05v-7.771h-1.05Zm3.476-3.231h-1.059v7.771h1.059Zm6.5,6.29-3.911-6.29h-1.243v7.771h1.015v-6.269l3.968,6.269h1.176v-7.771h-1.005v6.29Zm5.606-1.773h2.421a2.355,2.355,0,0,1-.865,2.075,2.8,2.8,0,0,1-1.621.562,2.433,2.433,0,0,1-1.946-.962,3.823,3.823,0,0,1-.616-2.3c0-2.032,1.167-3.145,2.562-3.145a2.17,2.17,0,0,1,2.324,1.621h1a3.108,3.108,0,0,0-3.285-2.551,3.736,3.736,0,0,0-3.675,4.01c0,2.324.906,4.163,3.61,4.163a3.12,3.12,0,0,0,2.551-1.213l.258,1h.671v-4.142h-3.393Zm6.9-3.567h2.617v6.82h1.059v-6.82h2.636v-.951h-6.311Zm12.728,2.94c0,1.837-1.017,3.167-2.7,3.167s-2.7-1.328-2.7-3.167c0-1.816,1-3.145,2.7-3.145S151.422,111.36,151.422,113.176Zm1.07,0c0-1.676-.887-4.075-3.772-4.075s-3.783,2.4-3.783,4.075.887,4.1,3.783,4.1S152.492,114.861,152.492,113.176Zm8.956,2.4-3.914-6.29h-1.243v7.771h1.017v-6.269l3.965,6.269h1.178v-7.771h-1ZM163,117.056h1.07l.811-2.258H168l.755,2.258h1.156l-2.8-7.771H165.9L163,117.056Zm2.215-3.188,1.243-3.438,1.156,3.438Zm6.275.464,1.223-1.156,2.722,3.88h1.352l-3.319-4.625,3.232-3.146H175.26l-3.772,3.782v-3.782H170.45v7.771h1.037Zm11.572,1.794h-4.68v-2.594h4.259v-.93H178.38v-2.367h4.614v-.951h-5.651v7.771h5.717v-.93Zm1-6.841v7.771h3.3c2.237,0,3.209-2.388,3.122-4.161-.107-2.486-1.729-3.61-3.166-3.61Zm1.059,6.884v-5.977h2.044c1.609,0,2.237,1.351,2.237,2.789.022,1.545-.671,3.188-2.106,3.188h-2.175Zm6.385.886h1.2v-1.179h-1.2Z" transform="translate(-7.041 -72.664)" fill="#787878" fill-rule="evenodd"/>
</svg>
