<svg id="Component_15_1" data-name="Component 15 – 1" xmlns="http://www.w3.org/2000/svg" xmlns:xlink="http://www.w3.org/1999/xlink" width="40.188" height="45.706" viewBox="0 0 40.188 45.706">
  <defs>
    <linearGradient id="linear-gradient" x1="2.291" y1="-6.226" x2="2.703" y2="-7.246" gradientUnits="objectBoundingBox">
      <stop offset="0" stop-color="#df00e3"/>
      <stop offset="1" stop-color="#9b03e7"/>
    </linearGradient>
    <linearGradient id="linear-gradient-2" x1="5.476" y1="-9.099" x2="4.53" y2="-9.069" xlink:href="#linear-gradient"/>
    <linearGradient id="linear-gradient-3" x1="1.254" y1="-3.316" x2="1.254" y2="-2.259" gradientUnits="objectBoundingBox">
      <stop offset="0" stop-color="#22e5ff"/>
      <stop offset="1" stop-color="#0083ff"/>
    </linearGradient>
    <linearGradient id="linear-gradient-4" x1="0.576" y1="-9.725" x2="1.081" y2="-8.854" xlink:href="#linear-gradient"/>
  </defs>
  <path id="Path_301" data-name="Path 301" d="M-989.3,62.179l5.337-9.236a2.2,2.2,0,0,1,3.8,0l5.337,9.236Z" transform="translate(1002.17 -51.85)" fill="url(#linear-gradient)"/>
  <path id="Path_302" data-name="Path 302" d="M-1054.313,177.136l5.336-9.236,7.227,12.524h-10.673A2.19,2.19,0,0,1-1054.313,177.136Z" transform="translate(1054.62 -145.047)" fill="url(#linear-gradient-2)"/>
  <path id="Path_303" data-name="Path 303" d="M-1052.458,104.3h35.8a2.187,2.187,0,0,1,1.891,3.289l-5.337,9.236-7.227,12.524-5.337,9.236a2.2,2.2,0,0,1-3.8,0l-5.336-9.236-7.227-12.524-5.337-9.236A2.208,2.208,0,0,1-1052.458,104.3Z" transform="translate(1054.655 -93.972)" fill="url(#linear-gradient-3)"/>
  <path id="Path_304" data-name="Path 304" d="M-915.9,180.424l7.227-12.524,5.337,9.236a2.193,2.193,0,0,1-1.89,3.289Z" transform="translate(943.224 -145.047)" fill="url(#linear-gradient-4)"/>
  <path id="Path_305" data-name="Path 305" d="M-1005.031,133.648a1.369,1.369,0,0,1,0-2.383l6.341-3.663,6.341-3.663a1.379,1.379,0,0,1,2.068,1.2v14.651a1.386,1.386,0,0,1-2.068,1.2l-6.341-3.663Z" transform="translate(1015.36 -109.594)" fill="#fff"/>
</svg>
