<svg id="mango-4" xmlns="http://www.w3.org/2000/svg" width="201.213" height="33.465" viewBox="0 0 201.213 33.465">
  <path id="mango-4-2" data-name="mango-4" d="M201.213,16.862c0-9.5-8.621-16.862-19.205-16.862-10.252,0-19.257,7.027-19.257,16.348,0,8.794,7.073,15.837,16.6,16.957V27.983c-6.232-1.027-10.942-5.682-10.942-11.284,0-6.351,6.055-11.508,13.527-11.508s13.528,5.157,13.528,11.508c0,5.559-4.636,10.184-10.8,11.258v5.332c9.144-1.111,16.548-7.894,16.548-16.427M140.184,28.3c-5.877,0-10.882-3.181-12.746-7.638h-6.017c1.991,7.679,9.809,12.8,19.1,12.8a29.092,29.092,0,0,0,6.7-.725c4.65-1.15,9.727-4.171,9.727-8.939V15.336H140.126l-.018,5.328h11.457v2.419c0,2.672-3.989,4.219-6.434,4.76a21.772,21.772,0,0,1-4.36.459h-.586M151.577,9.745A15.132,15.132,0,0,0,140.68,5.4c-7.038,0-12.856,4.323-13.786,9.932H121C121.769,6.63,130.676.213,140.754.213a21.292,21.292,0,0,1,15.005,5.822l-4.182,3.71M88.31.913H82.862V32.754h5.356V8.961l21.949,23.793h3.989V28.882L88.31.913m25.847,0H108.8V16.377l5.357,5.376V.915M67.115,22.88l4.94,9.874H78.5L62.338.915H56.533l0,.009,8.09,16.884H53.869l2.808-5.5L53.752,6.322,40.137,32.754h6.019l5.093-9.87,15.868,0M5.4.915H0V32.754H5.354V10.864L17.51,30.3l3.1-4.959L5.4.915M20.383,15.857l3.082,4.887,6.2-9.881V32.752H35V.915H29.555L20.383,15.857" fill="#787878"/>
</svg>
