<svg id="Component_11_1" data-name="Component 11 – 1" xmlns="http://www.w3.org/2000/svg" width="118.041" height="44.61" viewBox="0 0 118.041 44.61">
  <path id="Path_716" data-name="Path 716" d="M69.445,83.037c-2.621-2.865-5.119-5.546-7.5-8.654l-.792-1.036c2.742-.427,5.119-2.255,5.119-5.3,0-2.8-2.133-4.632-5.3-4.632-2.255,0-3.9.122-4.753.122-.975,0-1.767,0-2.681-.061.122,3.474.183,3.718.183,5.85v7.8c0,1.524-.061,3.047-.183,5.911a6.863,6.863,0,0,1,1.828-.183,8.6,8.6,0,0,1,1.707.183c-.122-1.95-.183-5.18-.183-5.911V72.615c2.864,3.718,6.643,8.288,8.1,10.421a7.957,7.957,0,0,1,2.071-.183A11.894,11.894,0,0,1,69.445,83.037Zm-6.52-14.5c0,1.889-1.036,4.083-3.839,4.083-.731,0-1.463,0-2.194-.061V64.937a10.513,10.513,0,0,1,2.133-.3A3.561,3.561,0,0,1,62.924,68.533Zm61.793,14.625c-1.035-1.1-2.619-2.864-4.143-4.571a21.594,21.594,0,0,0,3.412-5.241,8.974,8.974,0,0,1-1.645-1.158,11.49,11.49,0,0,1-2.681,5.3c-2.073-2.437-2.621-3.108-4.51-5.667,2.56-1.646,3.778-3.535,3.778-5.058,0-1.767-1.218-3.6-4.2-3.6-3.23,0-4.814,2.011-4.814,4.387,0,1.4.366,2.62,1.889,4.632-2.437,1.341-4.814,3.29-4.814,6.4,0,3.047,2.437,4.632,5.424,4.632a8.275,8.275,0,0,0,5.911-2.377l1.828,2.194a10.911,10.911,0,0,1,4.571.122Zm1.829,24.376a111.325,111.325,0,0,1-7.5-8.592l-.793-1.036c2.681-.426,5.119-2.253,5.119-5.362,0-2.742-2.132-4.631-5.3-4.631-2.255,0-3.961.182-4.814.182a18.815,18.815,0,0,1-2.621-.122c.122,3.536.183,3.718.183,5.851v7.8c0,1.525-.062,3.108-.183,5.911a9.863,9.863,0,0,1,1.768-.122,7.735,7.735,0,0,1,1.705.122c-.122-1.889-.182-5.119-.182-5.911V97.174c2.925,3.656,6.7,8.288,8.166,10.36a11.784,11.784,0,0,1,2.071-.122,18.188,18.188,0,0,1,2.377.123Zm-39.124-24.5c-2.194-2.316-6.033-7.13-7.556-8.958L78.342,72.19c1.584-1.889,2.681-3.047,3.84-4.449,1.341-1.463,2.56-2.986,4.022-4.327a6.789,6.789,0,0,1-1.4.122,3.386,3.386,0,0,1-1.1-.122,23.016,23.016,0,0,1-1.828,2.377c-.732.793-1.463,1.584-2.011,2.255a53.4,53.4,0,0,1-4.571,4.692V69.386c0-1.95,0-3.23.122-5.972a8.973,8.973,0,0,1-1.707.122,8.639,8.639,0,0,1-1.767-.122c.121,2.925.182,3.778.182,5.911v7.8c0,1.95-.062,3.108-.182,5.911a6.893,6.893,0,0,1,1.767-.183,9.1,9.1,0,0,1,1.707.183c-.122-3.108-.122-4.937-.122-5.911V73.043c2.253,2.681,5.727,7.069,7.678,9.994a13.7,13.7,0,0,1,2.133-.183A11.582,11.582,0,0,1,87.422,83.037Zm19.258,24.5a4.089,4.089,0,0,1-.122-.914,3.539,3.539,0,0,1,.122-.793c-2.437.062-6.825.183-7.8.183V97.6a70.241,70.241,0,0,1,7.19.244,4.828,4.828,0,0,1-.122-.854,2.684,2.684,0,0,1,.122-.913c-1.705.182-5.667.244-7.19.244V89.436c2.681,0,4.265,0,5.179.062l2.437.122a2.242,2.242,0,0,1-.121-.854,2.571,2.571,0,0,1,.121-.853c-2.011.06-4.753.182-5.972.182-.853,0-3.534-.06-4.937-.182.122,1.523.182,4.022.182,5.789v7.984c0,1.157-.122,3.472-.182,5.849,1.707-.122,4.084-.122,4.937-.122,1.4,0,4.388,0,6.155.122Zm-14.747-1.646a10.551,10.551,0,0,1-.61-2.011c-2.5,2.071-4.2,2.5-6.155,2.5-4.326,0-6.642-3.9-6.642-8.776,0-5.423,2.619-8.592,7.068-8.592a8.416,8.416,0,0,1,5.547,2.073,6.643,6.643,0,0,1,.548-2.012,13.507,13.507,0,0,0-6.217-1.341c-7.13,0-10.42,4.45-10.42,10.177,0,6.461,4.326,9.873,9.75,9.873a13.881,13.881,0,0,0,7.132-1.889ZM50.8,83.037c-3.29-6.338-6.46-14.26-8.715-19.867h-.365c-1.463,3.534-4.144,9.568-4.876,11.274-.853,2.072-2.742,6.155-3.961,8.592a4.209,4.209,0,0,1,1.219-.183,3.761,3.761,0,0,1,1.1.183c.609-1.646,1.463-3.718,2.377-5.911,1.218-.061,2.316-.122,3.413-.122,1.158,0,2.377.06,3.6.122L45.8,80.05l1.218,2.986a8.767,8.767,0,0,1,1.95-.183,7.126,7.126,0,0,1,1.828.183Zm20.9,4.876a3.02,3.02,0,0,1-.976.182,3.1,3.1,0,0,1-1.035-.182c.182,2.437.244,4.875.244,7.252v6.277c-.976-.854-3.352-3.047-6.095-5.607q-4.189-3.914-8.1-8.106h-.426c.061,2.743.122,5.668.122,8.288v3.84c0,3.291,0,5.058-.183,7.678a3.752,3.752,0,0,1,1.1-.122,2.865,2.865,0,0,1,.913.122c-.122-2.5-.183-6.582-.183-7.678V93.762c4.571,4.206,10.177,9.812,14.32,14.017h.244c0-2.255-.122-4.51-.122-6.764V97.542c0-4.084,0-6.1.183-9.63ZM51.285,107.535a4.129,4.129,0,0,1-.122-.914,3.576,3.576,0,0,1,.122-.793c-2.437.062-6.825.183-7.739.183V97.6a69.676,69.676,0,0,1,7.13.244,4.766,4.766,0,0,1-.122-.854,2.684,2.684,0,0,1,.122-.913c-1.707.182-5.606.244-7.13.244V89.436c2.621,0,4.205,0,5.18.062l2.377.122a4.313,4.313,0,0,1-.061-.854,4.62,4.62,0,0,1,.061-.853c-2.011.06-4.753.182-5.972.182-.854,0-3.535-.06-4.937-.182.122,1.523.183,4.022.183,5.789v7.984c0,1.157-.122,3.472-.183,5.849,1.767-.122,4.083-.122,4.937-.122,1.4,0,4.449,0,6.155.122Zm-20.964-24.5c-.975-6.643-1.828-13.59-2.5-19.867a.382.382,0,0,1-.365,0c-1.279,2.255-2.742,4.692-3.839,6.4-1.036,1.646-2.255,3.6-3.656,5.667A110.952,110.952,0,0,1,11.978,63.17c-.122.061-.183,0-.3,0-.67,6.277-1.584,13.285-2.5,19.867a2.609,2.609,0,0,1,1.036-.183,3.389,3.389,0,0,1,1.036.183c.244-4.388.731-8.715,1.28-13.285,2.377,3.474,4.449,6.46,6.765,9.629,1.95-3.047,3.961-6.338,6.155-9.69.609,4.692,1.158,8.959,1.463,13.346a6.961,6.961,0,0,1,1.707-.183,6.253,6.253,0,0,1,1.706.183Zm6.948,9.994c0-3.534-2.8-5.119-6.216-5.119-1.524,0-3.169.182-4.326.182a18.636,18.636,0,0,1-2.316-.122c.061,1.95.183,3.6.183,5.485v8.349c0,1.829-.122,3.84-.183,5.729a10.3,10.3,0,0,1,1.707-.122,10.2,10.2,0,0,1,1.767.122q-.181-2.739-.183-5.485V99c.67.06,1.341.06,2.072.06,3.534,0,7.495-1.341,7.495-6.033Zm-16.515,8.715c0-3.047-2.011-4.388-5.485-5.851-2.5-1.035-3.778-1.949-3.778-3.9,0-1.828,1.4-2.985,3.718-2.985a6.4,6.4,0,0,1,4.084,1.523,5.189,5.189,0,0,1,.792-1.889,11.217,11.217,0,0,0-4.753-.914c-5,0-6.582,2.865-6.582,5.3,0,2.985,1.463,4.388,5.241,5.851,2.377.913,3.6,2.071,3.6,4.082,0,2.133-1.584,3.474-3.778,3.474a8.26,8.26,0,0,1-5-2.071,8.3,8.3,0,0,1-.3,2.194,13.514,13.514,0,0,0,5.241,1.218C18.864,107.779,20.753,104.609,20.753,101.746Zm96.164-35.1c0,1.828-1.279,3.108-2.56,4.143-.853-1.218-1.889-2.865-1.889-4.143a2.224,2.224,0,0,1,4.448,0Zm.61,13.041a6.481,6.481,0,0,1-3.6,1.768,3.867,3.867,0,0,1-3.9-4.023,4.654,4.654,0,0,1,2.56-4.143C114.846,76.394,114.968,76.577,117.527,79.685Zm2.437,13.346c0,1.95-.975,4.084-3.778,4.084-.793,0-1.525,0-2.255-.062V89.435a10.081,10.081,0,0,1,2.194-.244,3.525,3.525,0,0,1,3.839,3.84ZM43.972,75.6c-1.279.06-1.95.06-2.8.06-1.036,0-1.646,0-2.986-.06l2.986-7.069ZM33.916,93.213c0,2.8-1.646,4.632-4.327,4.632a10.8,10.8,0,0,1-1.889-.122V89.374a16.023,16.023,0,0,1,2.316-.183C32.576,89.191,33.916,90.837,33.916,93.213Zm67.095-16.026c0-3.047-2.01-4.388-5.483-5.85-2.5-1.036-3.779-1.889-3.779-3.9,0-1.767,1.4-2.986,3.718-2.986a6.391,6.391,0,0,1,4.084,1.524,5.5,5.5,0,0,1,.731-1.829,10.975,10.975,0,0,0-4.692-.975c-4.875,0-6.643,2.864-6.643,5.362,0,2.925,1.525,4.327,5.3,5.789,2.377.914,3.6,2.072,3.6,4.144s-1.584,3.413-3.778,3.413a8.384,8.384,0,0,1-5-2.011,11.258,11.258,0,0,1-.3,2.133A12.975,12.975,0,0,0,94,83.22c5.118,0,7.007-3.108,7.007-6.033Z" transform="translate(-8.505 -63.17)" fill="#787878" fill-rule="evenodd"/>
</svg>
