<svg xmlns="http://www.w3.org/2000/svg" width="143" height="40" viewBox="0 0 143 40" fill="none" style="&#10;    background-color: black;&#10;">
<path d="M109.994 36.1468C111.978 36.3024 113.959 36.4681 115.937 36.6479V1.00157H109.994V36.1468ZM14.3881 22.9212L6.64819 1.00157H1V39.7356C2.97701 39.4476 4.95799 39.1728 6.94291 38.9091V17.8452L13.8254 38.0432C15.9903 37.7866 18.1582 37.5441 20.331 37.3158V1.00157H14.3881V22.9212ZM26.0465 36.751C31.5236 36.2428 37.0274 35.8235 42.5549 35.4982V29.5148C39.0232 29.723 35.5013 29.9705 31.9894 30.2524V21.1956C34.2938 21.1723 37.327 21.1006 40.0151 21.1339V15.1516C37.868 15.1466 34.4164 15.1819 31.9894 15.2142V7.03845H42.5549V1.00258H26.0465V36.751ZM46.3645 7.03743H52.5844V35.0122C54.5624 34.9364 56.5433 34.8728 58.5273 34.8202V7.03743H64.7471V1.00157H46.3645V7.03743V7.03743ZM68.5577 34.6565H74.5006V20.844H82.557V14.8616H74.5006V7.03845H85.1482V1.00258H68.5577V34.6565ZM142.131 1.00157H135.603L131.3 11.191L127.433 1.00157H121.003L127.913 19.2092L120.37 37.0713C122.456 37.2794 124.538 37.5007 126.616 37.7351L131.003 27.3496L135.348 38.798C137.611 39.095 139.869 39.4052 142.122 39.7336L142.131 39.7295L134.389 19.3315L142.131 1.00157ZM94.9008 0.998535H88.9579V34.9536C94.3588 35.1435 99.737 35.4214 105.093 35.7871V29.8048C101.705 29.5734 98.3069 29.3784 94.9008 29.2158V0.998535Z" fill="white"/>
<path d="M109.994 36.1468C111.978 36.3024 113.959 36.4681 115.937 36.6479V1.00157H109.994V36.1468ZM14.3881 22.9212L6.64819 1.00157H1V39.7356C2.97701 39.4476 4.95799 39.1728 6.94291 38.9091V17.8452L13.8254 38.0432C15.9903 37.7866 18.1582 37.5441 20.331 37.3158V1.00157H14.3881V22.9212ZM26.0465 36.751C31.5236 36.2428 37.0274 35.8235 42.5549 35.4982V29.5148C39.0232 29.723 35.5013 29.9705 31.9894 30.2524V21.1956C34.2938 21.1723 37.327 21.1006 40.0151 21.1339V15.1516C37.868 15.1466 34.4164 15.1819 31.9894 15.2142V7.03845H42.5549V1.00258H26.0465V36.751ZM46.3645 7.03743H52.5844V35.0122C54.5624 34.9364 56.5433 34.8728 58.5273 34.8202V7.03743H64.7471V1.00157H46.3645V7.03743V7.03743ZM68.5577 34.6565H74.5006V20.844H82.557V14.8616H74.5006V7.03845H85.1482V1.00258H68.5577V34.6565ZM142.131 1.00157H135.603L131.3 11.191L127.433 1.00157H121.003L127.913 19.2092L120.37 37.0713C122.456 37.2794 124.538 37.5007 126.616 37.7351L131.003 27.3496L135.348 38.798C137.611 39.095 139.869 39.4052 142.122 39.7336L142.131 39.7295L134.389 19.3315L142.131 1.00157ZM94.9008 0.998535H88.9579V34.9536C94.3588 35.1435 99.737 35.4214 105.093 35.7871V29.8048C101.705 29.5734 98.3069 29.3784 94.9008 29.2158V0.998535Z" stroke="white" stroke-width="0.178857" stroke-miterlimit="10"/>
</svg>