<svg xmlns="http://www.w3.org/2000/svg" width="140" height="42" viewBox="0 0 140 42" fill="none">
<path d="M35.1516 41.9597L112.102 35.29H28.4819L35.1516 41.9597Z" fill="white"/>
<path d="M129.943 7.77783C127.442 7.77783 125.524 9.19513 125.524 9.19513V8.27805H120.355V30.9548H125.524V17.6989C125.524 15.1978 127.275 13.1135 129.776 13.1135C132.277 13.1135 134.028 15.1978 134.028 17.6989V31.0381H139.197V17.6989C139.197 12.1965 135.445 7.77783 129.943 7.77783V7.77783Z" fill="white"/>
<path d="M108.434 7.69482C102.431 7.69482 98.1792 12.9472 98.1792 19.6168C98.1792 26.6199 103.515 31.5387 108.934 31.5387C111.685 31.5387 115.103 30.6217 118.021 26.4531L113.436 23.7853C109.934 28.9543 104.015 26.3698 103.348 21.1174H118.188C119.522 13.1139 114.27 7.69482 108.434 7.69482V7.69482ZM103.682 16.6988C104.765 11.4465 111.935 11.113 112.936 16.6988H103.682V16.6988Z" fill="white"/>
<path d="M87.1741 23.4515C87.1741 28.537 91.0091 31.5384 94.8441 31.5384C96.2614 31.5384 98.2623 31.0382 99.8464 30.1211L96.5115 25.6191C96.0113 25.9526 95.4277 26.2027 94.7608 26.2027C93.9271 26.2027 92.343 25.5357 92.343 23.4515V13.6971H96.7617V8.27807H92.343V2.60889H87.1741V8.27807H84.4229V13.6971H87.1741V23.4515Z" fill="white"/>
<path d="M73.0847 31.5386C75.5858 31.5386 77.5033 30.1213 77.5033 30.1213V30.955H82.6723V8.27832H77.5033V21.6176C77.5033 24.1187 75.7525 26.2029 73.2514 26.2029C70.7503 26.2029 68.9995 24.1187 68.9995 21.6176V8.27832H63.8306V21.6176C63.8306 27.12 67.5822 31.5386 73.0847 31.5386Z" fill="white"/>
<path d="M49.5746 21.7008L57.2447 31.0383H64.4145L54.16 18.9496L62.9972 8.27823H55.8274L49.5746 16.1984V0.774902H44.3223V31.0383H49.5746V21.7008Z" fill="white"/>
<path d="M36.2349 29.9547V30.9551H41.4039V8.27842H36.2349V9.27886C34.6509 8.27842 33.317 7.69482 31.3994 7.69482C25.5635 7.69482 21.0615 13.0305 21.0615 19.6168C21.0615 26.203 25.4802 31.5387 31.3994 31.5387C33.317 31.5387 34.7343 30.9551 36.2349 29.9547V29.9547ZM26.3139 19.7001C26.3139 16.1152 28.3981 13.2806 31.3161 13.2806C34.234 13.2806 36.2349 16.1152 36.2349 19.7001C36.3183 23.2851 34.234 26.1197 31.3161 26.1197C28.3981 26.1197 26.3139 23.2851 26.3139 19.7001Z" fill="white"/>
<path d="M19.3943 12.3632C19.3943 6.94414 14.9757 2.60889 9.63999 2.60889H0.802734V30.9548H6.2218V22.2009H9.97347L16.5597 30.9548H23.3127L15.3092 20.3668C17.8103 18.616 19.3943 15.698 19.3943 12.3632V12.3632ZM9.72336 16.8652H6.2218V8.02796H9.72336C12.1411 8.02796 14.142 10.0288 14.142 12.4466C14.142 14.8643 12.1411 16.8652 9.72336 16.8652V16.8652Z" fill="white"/>
</svg>
