<svg id="target-ar21" xmlns="http://www.w3.org/2000/svg" width="145.547" height="44.61" viewBox="0 0 145.547 44.61">
  <path id="Path_717" data-name="Path 717" d="M26.112,42.671a7.744,7.744,0,1,0-7.744-7.744A7.868,7.868,0,0,0,26.112,42.671Zm0,7.125A14.715,14.715,0,1,0,11.4,35.082,14.712,14.712,0,0,0,26.112,49.8ZM3.807,35.082a22.3,22.3,0,1,1,22.3,22.3A22.309,22.309,0,0,1,3.807,35.082Z" transform="translate(-3.807 -12.777)" fill="#787878"/>
  <path id="Path_718" data-name="Path 718" d="M50.749,26.5V42.548H45.916V26.5H40.4V22.435H56.359V26.5Zm29.5,0H75.8v4.061h3.963c1.45,0,2.418-.58,2.418-2.031A1.766,1.766,0,0,0,80.242,26.5Zm-9.187-4.061h9.38c5.319,0,6.092,3.674,6.092,5.8a5.475,5.475,0,0,1-2.9,4.74,3.807,3.807,0,0,1,2.418,3.481v3.771a3.413,3.413,0,0,0,1.062,2.321H83.24C81.4,42.355,81.5,40.9,81.5,40.132V36.856c-.1-.774-.29-1.645-1.934-1.645H75.7v7.349H71.164V22.449Zm49.027,7.649h-8.22V26.5h9.67V22.435H107.127V42.547h14.409V38.486h-9.67V33.953h8.22ZM132.657,42.56V26.5h5.9V22.435H122.212V26.5h5.706V42.548ZM61.288,29.6l-1.645,5.222h3.481Zm-2.72-7.155H63.79l7.058,20.018H65.834l-1.45-4.144h-5.9l-1.45,4.144H52.1Zm46.9,8.9H96.864v3.868h4.144a3.45,3.45,0,0,1-.87,2.72,4.337,4.337,0,0,1-3,1.256,4.516,4.516,0,0,1-3.108-1.062c-1.839-1.548-2.321-4.351-2.321-6,0-1.934.774-6.576,5.319-6.769,0,0,3.191-.194,3.963,3.578h4.351a8.311,8.311,0,0,0-8.22-7.252,9.518,9.518,0,0,0-6.866,2.8,11.139,11.139,0,0,0-3,7.93,11.619,11.619,0,0,0,2.8,8.124,8.069,8.069,0,0,0,6.092,2.72,9.369,9.369,0,0,0,5.319-1.839l.58,1.16h3.289Z" transform="translate(6.992 -10.148)" fill="#787878"/>
</svg>
