<svg id="twitter-icon" xmlns="http://www.w3.org/2000/svg" width="22.657" height="18.404" viewBox="0 0 22.657 18.404">
  <path id="twitter-icon-2" data-name="twitter-icon" d="M22.646,62.224a9.144,9.144,0,0,1-2.667.73,4.676,4.676,0,0,0,2.045-2.571,9.359,9.359,0,0,1-2.951,1.128,4.651,4.651,0,0,0-8.038,3.181,4.712,4.712,0,0,0,.119,1.058,13.2,13.2,0,0,1-9.578-4.858,4.652,4.652,0,0,0,1.437,6.2,4.673,4.673,0,0,1-2.106-.579v.058A4.646,4.646,0,0,0,4.633,71.13a4.675,4.675,0,0,1-1.225.164,4.875,4.875,0,0,1-.877-.083,4.662,4.662,0,0,0,4.34,3.229A9.32,9.32,0,0,1,1.1,76.431a9.275,9.275,0,0,1-1.109-.067,13.144,13.144,0,0,0,7.126,2.088A13.135,13.135,0,0,0,20.339,65.229c0-.2,0-.4-.013-.6a9.318,9.318,0,0,0,2.318-2.4l0,0Z" transform="translate(0.011 -60.048)" fill="#d9d9d9" fill-rule="evenodd"/>
</svg>
