<svg xmlns="http://www.w3.org/2000/svg" width="132" height="70" viewBox="0 0 132 70" fill="none" style="&#10;    background-color: black;&#10;">
<path d="M57.2383 65.3712C57.1692 65.3022 57.1328 65.2658 57.0273 65.2295C57.0965 65.3349 57.1328 65.3712 57.2383 65.3712Z" fill="white"/>
<path d="M57.9805 65.2661C57.9805 65.2661 57.9805 65.2297 58.0169 65.2297C57.9478 65.2297 57.8386 65.1934 57.7695 65.1934C57.7695 65.2624 57.875 65.2624 57.9805 65.2624V65.2661Z" fill="white"/>
<path d="M53.6006 61.2106H53.6379V61.1733C53.6379 61.1733 53.6379 61.2106 53.6006 61.2106Z" fill="white"/>
<path d="M67.7944 54.0134L67.831 54.05H67.9372L67.8676 53.9805C67.8676 53.9805 67.831 54.017 67.7981 54.017L67.7944 54.0134Z" fill="white"/>
<path d="M53.4229 60.9635H53.4928L53.4229 60.8936V60.9635Z" fill="white"/>
<path d="M68.0427 53.9771H68.0054V54.0143L68.0427 53.9771Z" fill="white"/>
<path d="M70.0531 53.3043C70.4059 53.1262 70.4059 53.0208 70.6533 52.8464C70.7588 52.7773 70.8642 52.7773 70.937 52.6683C71.1843 52.2466 71.0061 52.0686 71.5372 51.8905C71.6063 51.607 71.679 51.3962 71.8536 51.1853C71.9228 51.0799 72.0319 51.0072 72.101 50.9018C72.2065 50.6547 72.1374 50.4439 72.2429 50.1967C72.3483 49.9496 72.5593 49.7751 72.5957 49.4553C72.843 49.3499 73.0176 49.3862 73.265 49.2081C73.5815 48.9246 73.9016 48.6448 74.218 48.3613C74.3235 48.3249 74.429 48.3249 74.5709 48.2922C74.7127 48.1868 74.8546 48.0814 74.9928 47.9396C75.5239 47.5871 75.9458 47.3036 76.1568 46.6348C76.1568 46.4931 76.1568 46.3877 76.1932 46.2459C76.2623 45.9988 76.546 44.4468 76.5096 44.4468C61.8578 44.4104 51.0181 44.5885 51.0181 44.5885C51.229 44.9774 51.44 45.4717 51.7601 45.788C52.3603 46.424 53.3824 46.7402 53.7716 47.5507C53.9499 47.7288 54.1245 47.9033 54.3355 48.0814C54.3355 48.1868 54.2991 48.2595 54.2991 48.3285C54.3355 48.5757 54.4409 48.9283 54.4046 49.2118C54.4046 49.3172 54.3355 49.4953 54.3682 49.6334C54.4046 49.7024 54.4046 49.8115 54.4373 49.8805C54.4009 50.1277 54.2954 50.4112 54.2954 50.7274C54.2263 50.7637 54.2591 50.7274 54.1536 50.7274V51.0109H54.2591C54.2227 51.189 54.2227 51.3634 54.19 51.5052C54.2263 51.6833 54.2263 51.8577 54.2591 51.9995C54.2227 52.0685 54.1172 52.1049 54.1172 52.2103C54.1172 52.2794 54.1536 52.3521 54.1536 52.3884C54.1172 52.741 54.0481 53.0245 53.9426 53.2353C53.8371 53.4461 53.9426 53.6569 53.7644 53.7659C53.8008 54.0494 53.8699 54.1875 53.8699 54.471C53.8007 54.5074 53.8335 54.5074 53.728 54.5074C53.6916 55.1434 54.0117 55.496 53.7971 55.9539C53.8335 55.9539 53.9026 56.1647 53.8662 56.2374C53.7244 56.6591 53.5134 57.048 53.477 57.5423C53.4406 57.5423 53.4406 57.5059 53.4079 57.5059V57.7531C53.3388 57.7167 53.3024 57.7167 53.2297 57.684L53.1933 57.7204C53.2297 58.0729 53.4043 58.4618 53.5461 58.7417C53.5461 59.1306 53.2988 59.2723 53.5825 59.7303V59.7994C53.5461 59.763 53.5134 59.763 53.477 59.7303C53.4079 59.9084 53.5134 60.1192 53.477 60.33C53.5461 60.3991 53.6189 60.4354 53.7244 60.4718C53.7244 60.4718 53.7607 60.4718 53.7935 60.4354C53.8117 60.3264 53.8189 60.2101 53.808 60.101L53.8262 60.0829H53.8044C53.7935 59.9884 53.768 59.9011 53.7207 59.8357L53.7571 59.7994C53.7935 59.8357 53.8626 59.8357 53.899 59.8684H53.9353C53.9353 59.7994 53.9717 59.7994 53.899 59.7994C53.899 59.763 53.9353 59.763 53.9353 59.7303L54.0408 59.8357L53.9717 59.9048C54.0772 59.9738 54.1136 60.1883 54.0081 60.221C54.0445 60.2573 54.0772 60.29 54.1136 60.29C54.0445 60.6062 54.1136 60.8534 54.1136 61.1732H54.0772C54.0408 61.0678 53.9717 60.7843 54.0081 60.7516C53.939 60.6462 53.8662 60.5735 53.7244 60.5408C53.6553 60.6099 53.6189 60.7516 53.6189 60.8934L53.7607 61.0351C53.7607 61.1405 53.7607 61.2132 53.7244 61.3186H53.5825C53.6189 61.355 53.6189 61.3877 53.6516 61.424C53.6152 61.4604 53.5461 61.4931 53.5097 61.5294V61.5985C53.5461 61.6348 53.6152 61.6348 53.6516 61.6675L53.7207 61.5985C53.7898 61.6675 53.9681 61.7039 54.0736 61.7766C54.0493 61.7766 54.0263 61.7645 54.0044 61.7402C54.0408 61.8093 54.0408 61.7766 54.0736 61.8093C54.0372 61.8783 54.0372 61.951 54.0044 61.9874C53.9353 61.951 53.9353 61.9183 53.8262 61.9183V61.9547L53.8953 62.0237C53.859 62.0601 53.8262 62.0601 53.7898 62.0928C53.8953 62.2709 53.9317 62.5507 54.0372 62.7288C54.1427 62.7652 54.2154 62.8342 54.2845 62.8706C54.2482 62.8342 54.179 62.8343 54.1427 62.8343V62.8706C54.179 62.9397 54.179 63.0123 54.2118 63.0814C54.2482 63.0814 54.2809 63.1178 54.3173 63.1178C54.3536 63.0487 54.3536 63.0123 54.3864 62.9397C54.4228 62.976 54.4228 63.0451 54.4555 63.0814H54.3864V63.1178C54.4555 63.2232 54.4919 63.2958 54.4919 63.434C54.561 63.3976 54.6337 63.3976 54.7028 63.3649C54.7271 63.3891 54.7623 63.4122 54.8083 63.434L54.772 63.503C54.7028 63.4667 54.6301 63.4667 54.5937 63.434V63.4703C54.6628 63.5757 54.772 63.6811 54.8774 63.7538C54.8774 63.7175 54.8411 63.6847 54.8411 63.6847C54.9466 63.7902 55.052 63.8628 55.1575 63.9682V64.0046C55.052 63.9682 54.9466 63.9355 54.8411 63.8628C54.9829 64.0409 55.0884 64.0736 55.2303 64.11C55.2303 64.1463 55.2303 64.11 55.1939 64.1791C55.3358 64.3208 55.936 64.7424 56.1106 64.6734C56.1106 64.7424 56.1106 64.7097 56.0742 64.7424C56.2524 64.9205 56.8162 65.1313 57.0963 65.2004V65.164L56.9545 65.0223C57.0963 65.0586 57.2018 65.0586 57.3073 65.0913C57.3073 65.1604 57.3073 65.1277 57.3764 65.1277L57.34 65.0913C57.3764 65.0913 57.4091 65.1277 57.4455 65.1604V65.0913C57.5146 65.0913 57.6238 65.1277 57.6929 65.1277H57.7292C57.7292 65.1277 57.7292 65.0913 57.7656 65.0913V65.0223C57.2345 64.9532 57.0963 64.4916 56.6707 64.3862L56.7398 64.3172C56.6344 64.1754 56.4561 64.2118 56.3506 64.07C56.3506 64.07 56.3143 64.07 56.3143 64.0337C56.3506 64.0337 56.3506 63.9973 56.3834 63.9973C56.4889 64.0337 56.5616 64.0664 56.6671 64.1027C56.5252 63.9246 56.2779 63.7865 56.2451 63.4667C56.2451 63.4667 56.2451 63.4303 56.2815 63.4303C56.3506 63.394 56.4598 63.394 56.5289 63.3613C56.598 63.2922 56.5652 63.1832 56.5652 63.0451C56.6707 62.976 56.9545 62.9033 57.0236 62.7979C57.0599 62.7616 57.0599 62.6198 57.0236 62.5144C56.7071 62.3036 56.2451 62.2309 56.3543 61.8093C56.4961 61.7039 56.7071 61.6675 56.8853 61.7402H56.9545C56.9181 61.6712 56.9545 61.7039 56.8853 61.6712C56.9217 61.6021 56.9545 61.6021 57.0272 61.5658C57.0272 61.4604 56.9908 61.355 56.9581 61.2496C57.0272 61.1442 57.1 61.0715 57.3109 61.0715C57.2746 60.9661 57.1327 60.9661 57.1 60.8934C57.1 60.8934 57.0636 60.8934 57.0636 60.857C57.1 60.8207 57.1327 60.8207 57.2054 60.788C57.3109 60.857 57.3473 60.8934 57.3837 60.9988C57.4201 60.9988 57.4892 60.9988 57.5255 61.0351C57.5255 60.9988 57.5619 60.9988 57.5947 60.9661C57.5947 60.8607 57.5947 60.788 57.5255 60.7553C57.5255 60.7553 57.4892 60.7189 57.4892 60.6862C57.4201 60.6862 57.3473 60.6862 57.2782 60.7225C57.3146 60.7589 57.3473 60.7589 57.3837 60.7916V60.8279C57.3473 60.8279 57.3146 60.7916 57.2418 60.7916C57.1727 60.7553 57.1727 60.6862 57.0636 60.6499C56.9945 60.5444 56.9945 60.2973 56.9581 60.1555C57.1 59.9774 57.4164 60.3336 57.6274 60.4027C57.7693 60.4027 57.9111 60.4027 58.0857 60.3664L58.1912 60.1555C58.1548 60.1555 58.1548 60.1919 58.1221 60.1919C58.0857 60.1555 58.053 60.1555 58.053 60.1228C58.1585 59.9811 58.264 59.8393 58.1948 59.6649C58.2312 59.6649 58.264 59.7012 58.264 59.7012H58.3003C58.3003 59.6649 58.264 59.6322 58.264 59.5958C58.5477 59.7012 59.7481 59.8793 60.0645 59.7012C60.1336 59.6649 60.4174 59.3123 60.5228 59.2433V58.9598C60.3446 58.8907 60.2755 58.8907 60.2755 58.6763L60.4174 58.5345C60.3482 58.2183 59.9954 58.1456 59.8535 57.8985C59.8899 57.8621 59.9227 57.8294 59.9227 57.7931C59.9469 57.7931 59.9699 57.7809 59.9918 57.7567C60.0281 57.8258 60.0973 57.8621 60.1336 57.9675C60.2391 58.0039 60.381 58.0039 60.4865 58.0366C60.592 58.1056 60.7338 58.3201 60.8757 58.3528C60.9812 58.3891 61.0867 58.3164 61.1921 58.3528C61.2976 58.3891 61.334 58.4945 61.5086 58.4945C61.8978 58.4582 61.9669 58.2837 62.1779 58.1056C62.3198 58.0366 62.4253 58.0002 62.5671 57.9275C62.6726 57.7858 62.7781 57.6804 62.8508 57.5386C63.0982 57.4332 63.3455 57.3278 63.5929 57.2224C63.8766 57.0116 64.0512 56.6591 64.3349 56.4446C64.6878 56.1611 65.1134 56.1284 65.2516 55.6341H65.1825C65.2516 55.456 65.2516 55.2125 65.3607 54.929C65.4298 54.7182 66.7721 54.0458 67.1249 54.1512C67.194 54.2202 67.2668 54.2566 67.3359 54.3293C67.3359 54.2929 67.3722 54.2602 67.3722 54.1875C67.348 54.1875 67.325 54.1754 67.3031 54.1512V54.1148C67.4814 54.0785 67.656 53.8313 67.7978 53.8677C67.8669 53.7986 67.8669 53.8313 67.7978 53.7623V53.6932C68.147 53.6932 68.8127 53.8313 69.1655 53.9731C69.2892 53.9186 69.4965 53.9404 69.6348 53.8713C69.7766 53.7659 69.7766 53.4134 70.024 53.308L70.0531 53.3043Z" fill="white"/>
<path d="M39.3384 19.1572C39.3384 19.1572 39.3384 19.1938 39.3018 19.1938L39.3713 19.2633C39.4079 19.1572 39.4079 19.1938 39.3347 19.1572H39.3384Z" fill="white"/>
<path d="M57.9441 15.0645C57.9441 15.0645 57.9441 15.1012 57.9072 15.1012H57.9772L57.9404 15.0645H57.9441Z" fill="white"/>
<path d="M53.3174 60.5375H53.3869C53.3625 60.5132 53.3271 60.501 53.2808 60.501C53.3174 60.501 53.3174 60.5375 53.3174 60.5375Z" fill="white"/>
<path d="M58.013 41.2775C58.013 41.3829 58.1185 41.4883 58.224 41.4883H70.9697C71.0389 41.4883 71.0752 41.452 71.1116 41.4193C71.148 41.3866 71.1807 41.3502 71.1807 41.2775V38.1736C71.1807 38.0682 71.0752 37.9628 70.9697 37.9628H62.0361V35.0006H67.9688C68.0379 35.0006 68.0743 34.9642 68.1107 34.9315C68.147 34.8952 68.1798 34.8261 68.1798 34.7897V31.6858C68.1798 31.5804 68.0743 31.475 67.9688 31.475H62.0361V28.7236H70.8643C70.9334 28.7236 70.9697 28.6872 71.0061 28.6545C71.0425 28.6218 71.0752 28.5491 71.0752 28.5128V25.4452C71.0752 25.3398 70.9697 25.2344 70.8643 25.2344H58.1912C58.0857 25.2707 58.013 25.3034 57.9802 25.3398C57.9439 25.3761 57.9111 25.4452 57.9111 25.4815L58.0166 41.2848L58.013 41.2775Z" fill="white"/>
<path d="M61.8613 12.6294C61.825 12.6294 61.7922 12.6657 61.7559 12.6657V12.7021C61.825 12.7021 61.8977 12.7021 61.9341 12.7384V12.7021C61.8977 12.633 61.9341 12.633 61.865 12.633L61.8613 12.6294Z" fill="white"/>
<path d="M53.1765 57.6807H53.1392C53.1765 57.7179 53.1392 57.7179 53.1765 57.6807Z" fill="white"/>
<path d="M69.1035 54.0794C69.1291 54.0538 69.1621 54.0209 69.206 53.9771H69.1987C69.1511 53.9953 69.1182 54.0282 69.1072 54.0794H69.1035Z" fill="white"/>
<path d="M53.1067 58.3177L53.1435 58.2809L53.1067 58.2441L53.0698 58.2809C53.0698 58.2809 53.1067 58.2809 53.1067 58.3177Z" fill="white"/>
<path d="M39.1238 25.8598C39.0874 25.9288 39.0874 26.0015 39.0874 26.0706L45.8313 41.663C45.8677 41.7321 45.9368 41.8048 46.0096 41.8048L48.694 41.7357C48.7631 41.7357 48.8359 41.6994 48.8723 41.6303L55.7908 25.6126C55.8272 25.5435 55.8272 25.4708 55.7544 25.4018C55.718 25.3327 55.6489 25.2964 55.5762 25.2964L52.4697 25.4018C52.4006 25.4018 52.3279 25.4708 52.2915 25.5435L47.7737 35.9858L43.3942 25.7907C43.3578 25.7216 43.2887 25.6853 43.1832 25.6489L39.2656 25.7543C39.2293 25.7543 39.1602 25.7907 39.1238 25.8598V25.8598Z" fill="white"/>
<path d="M61.0508 12.6655C61.0876 12.6655 61.0876 12.7023 61.1208 12.7023C61.0839 12.6655 61.1208 12.7023 61.0508 12.6655Z" fill="white"/>
<path d="M62.215 12.8081C62.1906 12.7837 62.1552 12.7715 62.1089 12.7715C62.1089 12.7715 62.1089 12.8081 62.0723 12.8081C62.1089 12.8081 62.1418 12.8446 62.1784 12.8446H62.215V12.8081Z" fill="white"/>
<path d="M40.9967 12.135C40.9603 12.2404 40.9276 12.3131 40.8548 12.4185C40.7857 12.4875 40.713 12.5602 40.6439 12.6656C40.6075 12.771 40.2546 13.6179 40.2546 13.6543H40.4329C40.3965 13.9014 40.5384 13.9014 40.502 14.2176C40.3965 14.6756 40.08 15.2062 39.9382 15.7333C39.9018 15.8387 39.7963 16.0858 39.8327 16.2276C39.8691 16.4057 39.9382 16.6165 39.8691 16.8273C39.8 16.9327 39.7272 17.0744 39.6581 17.2162C39.5526 17.2162 39.5526 17.2525 39.4471 17.2162C39.4107 17.4633 39.5162 17.6378 39.5162 17.8522C39.5853 17.8522 39.5526 17.8522 39.5853 17.8159C39.7272 18.2048 39.6545 18.6264 39.3744 18.9099C39.4435 19.2988 39.6581 19.4733 39.5853 20.073V20.1093H39.6217C39.9746 19.7568 39.8691 19.7931 39.9054 19.3315C39.9054 19.2952 39.8691 19.2625 39.8691 19.1898C39.8327 19.2261 39.8 19.2588 39.8 19.2952H39.7636C39.7272 19.0117 40.0109 18.2738 40.08 17.954C40.1164 17.7432 40.0109 17.3906 40.0437 17.1762C40.1855 16.6128 40.2219 15.4134 40.713 15.0608C40.7493 15.0972 40.7493 15.1299 40.7821 15.1663C40.8185 15.1663 40.8185 15.1299 40.8512 15.1299C40.9567 15.4461 40.5347 15.9404 40.6038 16.3984C40.4984 16.4674 40.462 16.5401 40.3929 16.6455C40.3929 16.6455 40.4292 16.6819 40.462 16.6819L40.5675 16.5765C40.5675 16.6819 40.4984 17.0344 40.6038 17.1398C40.6402 17.1762 40.6038 17.1762 40.673 17.1398L40.7093 17.1762C40.6402 17.3179 40.6038 17.3543 40.6038 17.5651C40.6281 17.5893 40.6633 17.6014 40.7093 17.6014C40.673 17.6705 40.673 17.7432 40.6402 17.8486H40.7457C40.7457 18.0957 40.6402 18.1648 40.5347 18.3429C40.5711 18.5537 40.6766 18.6264 40.7821 18.8009C40.713 18.8699 40.713 18.9426 40.6766 19.048C40.8548 19.2952 41.0985 20.9525 40.7457 21.1997C40.6996 21.27 40.6875 21.3402 40.7093 21.4105C40.6402 21.4796 40.6038 21.4796 40.5311 21.5159C40.2837 22.152 40.8476 22.3264 40.8476 22.8571C40.8839 22.8934 40.9167 22.9261 40.9894 22.9261C40.9894 22.9261 43.1064 22.8571 44.3432 22.8207C44.3796 22.8207 44.2377 22.7844 44.2013 22.7153C44.1322 22.679 43.9176 21.3742 43.954 21.1997C43.9903 21.1306 44.0595 21.0579 44.0958 20.9889C43.9176 20.6 44.2013 20.1784 44.3432 19.8258C44.485 19.5096 44.5905 19.1898 44.7324 18.8736C44.8379 18.7318 45.0852 18.7681 45.1543 18.4846C45.1907 18.3066 45.118 18.1321 45.2235 17.9213C45.2926 17.7105 45.5399 17.6378 45.5072 17.3906C45.6127 17.3906 45.8236 17.3216 45.86 17.2125C45.8964 17.1762 45.8964 17.1435 45.9291 17.1071C45.9291 17.1762 45.9291 17.1435 45.8928 17.2125C45.9982 17.1762 45.9619 17.1435 45.9982 17.1762C46.0346 17.1398 46.0346 17.1071 46.0674 17.0708C46.031 17.0344 46.031 17.0017 45.9982 17.0017C46.3147 17.0381 46.5621 16.8963 46.8458 16.7546C47.024 16.7909 46.9513 16.6855 46.9513 16.5765C46.9876 16.5401 47.0204 16.5074 47.0931 16.4711V16.5074C47.0568 16.5438 47.0568 16.5765 47.024 16.5765C47.0604 16.5765 47.0604 16.6128 47.0931 16.6128C47.1622 16.6819 47.4823 16.5074 47.6569 16.5438C47.8352 16.5801 48.2208 16.7219 48.3262 16.7909H48.3954V16.7219H48.2535C48.2535 16.6976 48.2414 16.6746 48.2171 16.6528C48.2862 16.6528 48.3226 16.6165 48.359 16.6165C48.359 16.6855 48.4645 16.7946 48.5372 16.8636C48.5372 16.8636 48.5008 16.8636 48.5008 16.9C48.5008 16.9363 48.4645 16.9363 48.4645 16.969C48.5336 17.0054 48.57 17.0744 48.6427 17.1108C48.7482 17.0744 48.8209 17.0417 48.8901 17.0054C48.8901 17.0417 48.9264 17.0744 48.9264 17.1471C49.0683 17.1108 49.0683 17.0417 49.1374 16.969C49.2065 17.0381 49.2793 17.1798 49.3848 17.2162C49.4211 17.2162 49.4211 17.2525 49.4539 17.2525H49.4902C49.5266 17.2162 49.5266 17.1835 49.5594 17.1471C49.4902 17.0781 49.4175 17.0417 49.3811 16.969L49.3447 16.9327C49.4139 16.8636 49.4502 16.8636 49.5557 16.8273C49.58 16.7812 49.5921 16.7219 49.5921 16.6492C49.5557 16.6855 49.4866 16.7182 49.4502 16.7182H49.4139C49.4139 16.6819 49.3775 16.6819 49.3775 16.6492C49.6612 16.4711 50.014 16.5074 50.3305 16.5801C50.3669 16.5438 50.3669 16.4747 50.3996 16.4384C50.436 16.4384 50.436 16.402 50.4687 16.402V16.6492C50.8907 16.6855 51.2108 16.5438 51.5272 16.86C51.5964 16.929 51.5964 17.0708 51.6327 17.1071C51.7746 17.2125 52.1638 17.0017 52.3748 17.0017C52.4439 17.1071 52.6585 17.5651 52.764 17.6014C52.9059 17.954 52.4803 18.1321 52.5166 18.412H52.553C52.5991 18.3659 52.6112 18.3187 52.5894 18.2702C52.5894 18.2702 52.6258 18.2702 52.6258 18.2339C52.6621 18.3393 52.6258 18.3029 52.7313 18.3393C52.6621 18.4083 52.5894 18.4447 52.5203 18.5174C52.4839 18.5864 52.5567 18.7645 52.5567 18.939C52.593 18.9753 52.6258 18.9753 52.6621 18.9753C52.6621 18.939 52.6985 18.9063 52.6985 18.9063C52.6985 18.9063 52.6985 18.9426 52.7349 18.9426C52.6658 19.048 52.6658 19.0844 52.593 19.1534C52.6173 19.1534 52.6403 19.1413 52.6621 19.1171C52.6985 19.1861 52.7313 19.2225 52.6985 19.3279C52.6985 19.6114 53.015 19.6114 52.8768 19.9276C52.9822 20.0693 53.3351 19.9966 53.4078 19.9966C53.4078 19.7495 53.6916 19.5023 53.797 19.2915C53.9389 19.008 53.797 18.5864 53.797 18.2339C53.8334 18.2339 53.8661 18.1975 53.9025 18.1975C53.8661 17.9504 53.797 17.6669 53.7607 17.387C53.8661 16.3657 54.6773 16.1185 55.4921 15.8714C55.8813 15.766 55.7395 15.4134 56.4451 15.5552C56.6234 15.2389 57.2236 15.2717 57.5764 15.2026C57.5764 15.2026 57.5764 15.1663 57.6128 15.1663C57.5667 15.142 57.5315 15.1069 57.5073 15.0608V15.0245C57.6128 14.9554 57.8965 14.9191 58.002 14.9191C58.0384 14.85 58.0711 14.8137 58.1075 14.7774C58.0384 14.6719 57.8965 14.6356 57.7546 14.6356V14.5993C57.8965 14.6356 58.002 14.6356 58.1075 14.6683V14.8101C58.1075 14.8101 58.1766 14.4212 58.1766 14.2104C58.1402 14.2104 58.1075 14.174 58.0711 14.174C58.002 14.1377 58.0711 14.174 58.0711 14.0686C58.0711 13.9995 58.213 13.7851 58.2821 13.716C58.213 13.6797 58.2821 13.3635 58.2821 13.2581C58.3876 13.189 58.4603 13.1163 58.5658 13.0109C58.3548 13.3271 58.4603 13.3271 58.3876 13.6797C58.4567 13.6797 58.493 13.716 58.5658 13.7488C58.4603 13.8542 58.3548 13.8905 58.2821 14.0323C58.2821 14.0323 58.2821 14.0686 58.2457 14.0686C58.2699 14.0928 58.3051 14.1049 58.3512 14.1049C58.4567 13.8941 58.915 13.716 59.0932 13.3998C58.9877 13.2581 59.0241 13.189 58.9877 13.0473C59.0569 13.1163 59.0932 13.189 59.2351 13.2254C59.1987 13.2617 59.166 13.2944 59.166 13.3308C59.4497 13.3671 59.8717 12.9782 59.9771 12.8001C59.9408 12.7311 59.9771 12.7638 59.908 12.7311V12.6947C60.2609 12.6584 60.7556 12.7638 61.1084 12.7311L61.0393 12.662L61.0029 12.6257C60.7192 12.662 60.4718 12.5566 60.1918 12.6257C60.5446 12.3422 61.5704 12.7311 62.0287 12.5566C62.0651 12.662 62.1706 12.662 62.4179 12.662C62.4543 12.6257 62.4543 12.593 62.487 12.5566C62.487 12.5203 62.4506 12.4875 62.4179 12.4512C62.3815 12.5566 62.4179 12.5566 62.3124 12.5566C62.276 12.5566 62.2069 12.5566 62.1706 12.5203C62.1342 12.4149 62.1706 12.2368 61.9923 12.2041V12.1677C62.0978 12.1314 62.1706 12.1314 62.276 12.0986C62.2397 12.0623 62.2069 12.0296 62.2069 11.9932C62.3488 11.8151 62.5961 11.7461 62.738 11.6407C62.9344 11.6879 63.0945 11.6988 63.2691 11.648C63.2691 11.6661 63.28 11.6661 63.3018 11.7134L63.3382 11.677C63.3382 11.677 63.3164 11.648 63.3091 11.6371C63.3746 11.6116 63.4437 11.5789 63.5128 11.5353C63.5492 11.6043 63.5492 11.5716 63.5492 11.6407C63.902 11.6043 64.2548 11.6407 64.644 11.5353C64.6077 11.4989 64.6077 11.4662 64.5749 11.4299C64.6113 11.4299 64.8223 11.4989 64.8914 11.4989C65.1751 11.568 65.7389 11.4989 65.9863 11.4299L66.0227 11.4662C65.9172 11.5026 65.8444 11.5026 65.7389 11.5353C65.7389 11.5353 65.7389 11.5716 65.7026 11.5716C65.808 11.608 65.9135 11.608 66.019 11.6407C65.6662 11.7097 65.277 11.7461 64.9241 11.8188C64.9241 11.8188 64.9241 11.8551 64.8878 11.8551C64.9241 11.8551 64.9569 11.8188 65.0296 11.8188C64.9932 11.8188 64.9605 11.8551 64.9605 11.8551C64.8902 11.9254 64.855 12.0308 64.855 12.1713H64.9605C65.0296 12.2767 64.9969 12.3494 65.1387 12.3494C65.3861 12.3494 65.6698 12.1713 65.9499 12.1713C65.9863 12.1023 65.9499 12.0659 66.0554 12.0296C66.0796 12.0538 66.0918 12.0768 66.0918 12.0986L66.1609 12.0296C66.1973 12.135 66.23 12.135 66.3391 12.1713C66.5174 11.9932 67.5031 12.2077 67.8232 12.135H67.8596C67.7905 12.0659 67.7541 12.0659 67.6122 12.0659C67.6486 12.0296 67.6814 12.0296 67.7177 11.9969C67.9651 12.0659 68.2124 12.0332 68.5289 12.0332V11.9642C68.5653 11.8588 68.387 11.7534 68.2452 11.7534V11.717C68.2815 11.648 68.3507 11.6116 68.387 11.5389C68.3507 11.4699 68.3507 11.5026 68.3507 11.4335C68.3143 11.4335 68.2815 11.3972 68.2452 11.3972C68.0669 11.5026 67.6086 11.608 67.6086 11.8551C67.4667 11.8915 67.3976 11.8551 67.3976 11.7134C66.9757 11.7497 66.7974 11.5353 66.4082 11.5026C66.3719 11.4662 66.3391 11.4335 66.3391 11.3972H66.4082C66.4082 11.3972 66.4082 11.3608 66.4446 11.3608C66.3391 11.3245 66.1973 11.2554 66.0918 11.2191C66.0554 11.2009 66.0299 11.1464 66.0008 11.081C66.19 11.2336 66.361 11.3317 66.6192 11.4299C66.7611 11.4989 66.6883 11.4662 66.7247 11.4989C66.7611 11.568 66.7938 11.568 66.8666 11.6043C67.0448 11.568 67.0084 11.4626 67.2558 11.4989L67.2921 11.4626V11.4262C67.1503 11.3899 66.3755 11.2154 66.3755 11.2154C66.3064 11.1791 66.3391 11.2154 66.3064 11.11C66.2009 11.041 66.27 11.0737 66.27 10.9319C66.2458 10.9319 66.2227 10.9198 66.2009 10.8956L65.9899 11.001C65.9899 11.001 65.9899 11.0119 65.9827 11.0192C65.9645 10.9756 65.9426 10.9319 65.9208 10.892C65.9572 10.8556 65.9899 10.8556 66.0263 10.8229C65.9899 10.7866 65.9208 10.7538 65.8153 10.7538V10.7175C66.0263 10.6812 66.099 10.5757 66.31 10.5067C66.31 10.4703 66.3464 10.4703 66.3464 10.4376V10.4013C66.1354 10.4703 65.9936 10.4376 65.7098 10.4376C65.6735 10.2959 65.568 10.2595 65.4261 10.2268C65.4261 10.2268 65.4261 10.1905 65.3897 10.1905C65.6371 10.2268 65.7426 10.3322 65.9536 10.3686C66.1645 10.3322 66.3428 10.3322 66.5537 10.2995V10.2305C66.6228 10.1941 66.5537 10.1941 66.5174 10.1251C66.5537 10.1251 66.5865 10.1614 66.5865 10.1614V10.1251C66.1282 9.489 64.4695 9.73616 63.7638 9.84156C63.4801 9.91062 63.2691 10.1578 62.9162 10.1578C63.0945 10.016 64.0802 9.62712 64.4003 9.52171C64.4003 9.52171 65.0369 9.55806 65.0696 9.55806C65.1387 9.489 65.1751 9.41631 65.2479 9.37996C65.4952 9.23821 65.8844 9.31091 66.2373 9.37996C66.6956 9.52171 67.0848 9.55806 67.5431 9.69617C67.8269 9.80158 68.638 10.1178 68.9217 10.0851C69.1327 10.0487 69.3437 9.97967 69.5219 9.90698C69.762 9.81612 70.1294 9.89608 70.4713 9.94333C70.3986 9.94696 70.1912 10.0851 70.0894 10.1178C69.8784 10.2232 69.8057 10.4703 69.5256 10.5394C69.5013 10.5854 69.5013 10.6327 69.5256 10.6812V10.7175C69.4795 10.7175 69.4443 10.7054 69.4201 10.6812C69.3146 10.7175 69.2418 10.7866 69.1727 10.8592L69.2782 10.9647C69.2418 10.9574 69.2055 10.9574 69.1691 10.9647L69.1364 10.9319C69.1 10.8956 69.0672 10.8956 69.0309 10.8956C68.9945 10.8956 68.9945 10.8956 68.9945 10.9319C68.9945 10.9683 68.9945 10.9683 68.9581 11.001C68.9654 11.001 68.969 11.001 68.9763 11.001C68.8999 11.0264 68.8235 11.0555 68.7471 11.0701C68.8526 11.2118 68.8526 11.2809 68.889 11.3536C69.2055 11.4226 70.4786 11.7061 70.5841 11.8115H70.515C70.6568 11.8806 70.7623 11.9169 70.9042 11.9533C70.9284 11.929 70.9406 11.8939 70.9406 11.8479C71.0097 11.8842 71.1188 11.9169 71.1879 11.9533C71.046 12.0223 70.8714 12.0587 70.5877 12.0587C70.5877 12.0829 70.5756 12.1059 70.5513 12.1277C70.9406 12.2695 71.2934 12.0914 71.6099 11.986C71.6208 11.9969 71.6317 12.0078 71.6426 12.0223H71.5735C71.5371 12.0223 71.5044 12.0587 71.5044 12.0587C71.5044 12.0829 71.4922 12.1059 71.468 12.1277H71.5371C71.5735 12.1277 71.6062 12.0914 71.6426 12.0914V12.0223C71.6608 12.0441 71.679 12.0659 71.679 12.0914C71.679 12.2331 71.5735 12.3022 71.5007 12.3749C71.5371 12.4439 71.5007 12.4439 71.5698 12.4803C71.6753 12.4439 71.7481 12.4112 71.8536 12.4112C71.8172 12.4803 71.8172 12.5166 71.7845 12.622C71.8899 12.6584 71.9627 12.6584 72.0682 12.6911C72.21 12.622 72.2464 12.4803 72.3846 12.3749C72.3846 12.3385 72.3846 12.2695 72.3483 12.2331C72.2428 12.1968 72.2428 12.3022 72.0645 12.3022V12.2331C72.1337 12.1641 72.17 12.0914 72.2755 12.055C72.2755 12.055 72.2755 12.0187 72.3119 12.0187L72.2755 11.9823C72.0282 11.9823 71.9918 12.0514 71.8536 12.1604C71.8536 12.1241 71.8172 12.0914 71.8172 12.0914C71.7808 12.0914 71.8172 12.1277 71.7481 12.055C71.8899 11.9496 72.1373 11.8769 72.2064 11.8079L72.2428 11.7715C72.1737 11.7025 71.9591 11.7025 71.8208 11.7025C71.8572 11.5971 71.8208 11.6661 71.7845 11.5244C71.8899 11.488 71.9263 11.488 71.9954 11.419C71.8536 11.3136 71.679 11.2082 71.5007 11.2082C71.4316 11.1391 71.5007 11.1028 71.3589 11.0301C71.2898 11.0664 71.3589 11.0664 71.2898 11.0664C71.2898 11.1028 71.2534 11.1028 71.3261 11.1355H71.2206C71.1152 11.1355 71.1515 11.1355 71.1515 11.0301C71.046 11.0301 71.0824 11.0301 71.0824 11.0664C71.0133 11.0301 70.9769 10.9974 70.9042 10.9974C70.9042 10.961 70.9406 10.961 70.9406 10.9283C70.8714 10.892 70.9042 10.892 70.8351 10.9283L70.7987 10.892V10.8229H71.0097V10.7866C70.9042 10.7175 70.7623 10.7175 70.6568 10.6085C70.5513 10.6448 70.4459 10.7139 70.304 10.7502C70.3731 10.5721 70.6932 10.3977 70.8678 10.3613C70.9042 10.325 70.9369 10.2922 70.9369 10.2559C70.8678 10.2196 70.8678 10.1868 70.7951 10.1868V10.1178C70.9005 10.1541 70.9733 10.1868 71.0788 10.1541L71.1152 10.1178C71.1152 10.0936 71.1273 10.0705 71.1515 10.0487L70.9078 9.96877C71.0351 9.95787 71.1479 9.92152 71.2206 9.83792C71.257 9.76887 71.2206 9.83792 71.1843 9.73252C71.1843 9.73252 71.2206 9.73252 71.2206 9.76887C71.2898 9.66346 71.2206 9.37996 71.2898 9.27456C71.1843 9.23821 71.0788 9.2055 70.9733 9.13281C70.9733 9.06375 70.9733 9.13281 71.0097 9.06375C70.7987 9.06375 70.7987 8.9947 70.6568 8.9947C70.6205 8.78389 70.4095 8.7112 70.1985 8.67848V8.64214C70.3767 8.67848 70.515 8.67849 70.6932 8.7112C70.5877 8.56945 70.3767 8.56945 70.3767 8.4277C70.2349 8.39135 70.093 8.4277 69.9548 8.32229C69.8857 8.28595 69.9184 8.28595 69.8857 8.21689C69.8166 8.14783 69.602 8.18054 69.5328 8.11149C69.4637 8.04243 69.4274 7.96974 69.3219 7.90068C69.2855 7.83162 69.2855 7.86433 69.3582 7.79528C69.3582 7.76256 69.0854 7.56993 68.9217 7.50087C68.929 7.48997 68.9327 7.47907 68.9327 7.47907C68.9108 7.47907 68.8926 7.47907 68.8708 7.46816C68.9254 7.41364 68.8999 7.44272 68.969 7.44272C68.969 7.40637 68.969 7.30097 69.0054 7.15922C68.969 7.12287 68.9363 7.12287 68.8635 7.09016C68.8635 7.09016 68.8999 6.98476 68.8999 6.87936C68.7217 6.8103 68.5471 6.73761 68.5471 6.5268H68.4416C68.3361 6.3487 67.8778 5.78534 67.9105 5.61088C67.4522 5.75263 66.852 6.49409 66.2155 5.96344C66.11 5.96344 66.0372 5.82169 65.8262 5.78534C65.8262 5.71628 65.8262 5.67994 65.7899 5.60724C65.7535 5.60724 65.7208 5.60724 65.648 5.5709C65.7171 5.42915 65.7535 5.3928 65.7535 5.182C65.8226 5.14565 65.8953 5.14565 65.9645 5.11294C65.9645 5.07659 65.9281 5.04388 65.8953 5.04388C65.8262 5.08023 65.7899 5.08023 65.7171 5.11294C65.5753 4.97119 65.3279 4.90213 65.0806 4.86579V4.79673C65.1048 4.7725 65.14 4.76038 65.186 4.76038V4.72404C65.0442 4.58229 64.7277 4.37148 64.5495 4.30242H64.0912C63.7019 4.16067 63.3127 4.01892 62.9272 4.01892L62.8217 4.12433C62.8217 4.14856 62.8095 4.17158 62.7853 4.19338C62.8095 4.21761 62.8447 4.24063 62.8908 4.26244C62.8217 4.36784 62.7125 4.40419 62.5379 4.44054C62.6798 4.61863 62.5743 4.61863 62.6798 4.75675C62.6107 4.8258 62.1487 5.0039 61.9741 5.0039C61.9378 5.04025 61.9378 5.07296 61.905 5.1093C62.1524 5.17836 62.3633 5.35646 62.3633 5.67267C62.1524 6.09428 61.694 6.16697 61.163 6.27238C60.952 6.27238 60.7738 6.27238 60.5628 6.30872H60.5264C60.5264 6.37778 60.5264 6.48682 60.6319 6.55588C60.5264 6.76668 60.3154 6.97749 60.4537 7.19193C60.3482 7.26099 60.2063 7.37003 60.1008 7.37003V7.54812C60.0766 7.54812 60.0535 7.56024 60.0317 7.58447C60.0317 7.51541 59.9953 7.51541 59.9626 7.44272C59.8207 7.47907 59.7152 7.51178 59.6098 7.58447C59.5406 7.54812 59.4679 7.51541 59.4315 7.47907C59.3879 7.30097 59.2969 7.14832 59.206 6.9993C59.2933 7.03928 59.3842 7.07199 59.4315 7.09016C59.4679 7.02111 59.4315 6.98476 59.4315 6.91207C59.3369 6.85028 59.2169 6.84301 59.0932 6.81757C59.075 6.79213 59.0605 6.76305 59.0423 6.73761C59.1478 6.6322 59.2205 6.55951 59.2897 6.45411C59.2897 6.41776 59.2897 6.3487 59.2533 6.31236C59.3588 6.20695 59.4643 6.13426 59.5697 5.99615C59.1805 5.9598 58.0529 5.60724 57.8383 5.39644C57.7692 5.32738 57.7328 5.14928 57.6273 5.08023C57.4491 5.01117 57.2745 4.90213 57.0962 4.83307H56.4597C56.6015 4.69132 56.6707 4.48052 56.8125 4.30242C56.707 4.26608 56.5652 4.23336 56.4233 4.26608V4.19702C56.8125 3.7754 57.9765 3.31381 58.5076 3.35016L58.4385 3.2811C58.6167 3.2811 58.8277 3.31744 59.0387 3.2811C59.1078 3.21204 59.1078 3.17569 59.0387 3.13935H59.1078C59.497 3.17569 60.3082 3.13935 60.6974 2.96125C60.7216 2.93702 60.7216 2.92491 60.6974 2.92491C60.9811 2.88856 61.2284 2.85585 61.5085 2.85585C61.5085 2.85585 61.5085 2.8922 61.4722 2.8922C61.1193 2.85585 60.7301 3.03394 60.6246 3.2811C60.4464 3.2811 60.2718 3.2811 60.2027 3.35016C60.3082 3.41921 60.5555 3.3865 60.6974 3.41921C60.661 3.41921 60.6283 3.45556 60.6283 3.48827C60.5919 3.52462 60.5919 3.55733 60.5591 3.59367C60.8429 3.63002 61.2648 3.55733 61.4758 3.45192C61.5813 3.48827 61.6868 3.52098 61.7923 3.55733C61.7559 3.55733 61.7231 3.59367 61.6868 3.59367C61.865 3.73542 62.1815 3.73542 62.5343 3.73542C62.4979 3.69908 62.4979 3.66637 62.4652 3.63002C62.3597 3.59367 62.2542 3.56096 62.1124 3.56096C62.1487 3.52462 62.1487 3.45556 62.1815 3.41921C62.0396 3.31381 61.7231 3.24112 61.6504 3.103C61.5813 3.03394 61.6504 2.96125 61.5813 2.92491H61.6868C61.7923 2.99396 61.9341 3.103 62.0032 3.13571L62.0396 3.09937L62.076 3.06302C62.0517 3.06302 62.0287 3.07514 62.0069 3.09937C61.9826 3.05333 61.9353 3.00608 61.865 2.95762V2.92127C61.9341 2.95762 62.0069 2.99033 62.0432 2.99033V2.88493H62.1124C62.1487 2.92127 62.2178 2.95398 62.2542 2.99033V2.95398C62.5379 2.88493 62.818 2.88493 63.0654 2.81223C63.6292 2.77589 64.2294 2.74318 64.8296 2.74318C64.9351 2.77952 65.2515 2.77952 65.3243 2.77952C65.3243 2.77952 65.3243 2.81587 65.3606 2.81587C65.2915 2.85221 65.2552 2.77952 65.1824 2.81587H64.9351C65.0042 2.95762 65.1133 2.92127 65.2188 2.88493C65.2551 2.92127 65.2552 2.99033 65.2879 3.02668C65.2188 2.99033 65.146 2.99033 65.0405 2.99033C65.0769 3.13208 65.3243 3.13208 65.4625 3.16843C65.4625 3.13208 65.4625 3.09937 65.4989 3.09937C65.4298 3.09937 65.357 3.06302 65.3206 3.06302C65.3206 3.02668 65.3206 2.99396 65.357 2.95762C65.4625 2.99396 65.5352 3.06302 65.6735 3.09937C65.7098 3.20477 65.7426 3.27746 65.779 3.38287C65.4952 3.41921 65.1788 3.45192 64.895 3.48827C64.895 3.48827 64.895 3.52462 64.8587 3.52462C64.9278 3.59367 65.0005 3.63002 65.0369 3.70271V3.73906C64.8259 3.67 64.615 3.73906 64.4003 3.70271C63.9784 3.63365 63.6583 3.41921 63.2691 3.66637C63.2691 3.6906 63.2812 3.71362 63.3055 3.73542C63.4109 3.94623 63.8002 3.87717 64.0111 3.91352C64.2585 3.94986 64.5749 3.98258 64.8223 4.09161C64.8769 4.11342 64.9205 4.1425 64.9642 4.17158V4.19702H65.0042C65.1278 4.28788 65.2224 4.38238 65.4225 4.40782C65.3534 4.44417 65.317 4.44417 65.2442 4.40782C65.3134 4.51323 65.3861 4.58592 65.5607 4.61863C65.5243 4.61863 65.5243 4.65498 65.4916 4.65498C65.5607 4.72404 65.5971 4.76038 65.7026 4.83307H65.7717C65.7353 4.76402 65.7717 4.76402 65.7026 4.72767C66.2336 4.90577 66.7611 5.29103 67.3976 5.39644C67.434 5.32738 67.3976 5.36009 67.4667 5.32738V5.29103C67.2885 5.04388 66.8302 4.79673 66.5501 4.65498C66.5501 4.63075 66.538 4.60773 66.5137 4.58592C66.6192 4.65498 66.7611 4.72767 66.8666 4.76402V4.69496C67.2194 4.90577 67.6086 5.15292 67.9251 5.33101H68.0669V5.29467C67.9614 5.22561 67.8887 5.22561 67.8196 5.11657C67.8887 5.15292 67.9251 5.15292 67.9614 5.18563H67.9978C67.9978 5.13959 67.9748 5.09234 67.9287 5.04388C67.9287 5.04388 67.9287 5.00753 67.9651 5.00753C68.0015 5.04388 68.0015 5.00753 68.0342 5.07659C68.1397 5.07659 68.1033 5.04025 68.1761 5.00753C68.2003 5.05357 68.2355 5.08871 68.2815 5.11294H68.3179C68.3179 5.07659 68.2815 5.07659 68.2815 5.04388H68.4234V5.00753C68.3179 4.93848 68.2124 4.86579 68.0706 4.82944C68.0706 4.82944 68.0706 4.79309 68.0342 4.79309H68.1397V4.615C68.0342 4.50959 67.7177 4.26244 67.4704 4.29879C67.4704 4.19338 67.4013 4.05163 67.2921 4.01529H67.434C67.434 4.01529 67.434 3.97894 67.4704 3.97894L67.4013 3.90988C67.6486 3.94623 67.8596 4.12069 68.0706 4.12069C68.0015 4.36784 68.4925 4.4369 68.6344 4.57865C68.7762 4.54231 68.7399 4.50959 68.8454 4.50959C68.809 4.50959 68.809 4.47325 68.7762 4.47325C68.8126 4.40419 68.7762 4.4369 68.8454 4.40419C68.9508 4.44054 69.0236 4.47325 69.1291 4.44054V4.50959H69.2709C69.2709 4.47325 69.2346 4.47325 69.2018 4.44054C69.2709 4.40419 69.2018 4.44054 69.2709 4.44054H69.3401C69.3037 4.40419 69.3037 4.37148 69.2709 4.33513C69.4492 4.37148 69.5183 4.37148 69.6602 4.33513C69.6238 4.19338 69.4128 4.12433 69.2018 4.12433C69.1655 4.08798 69.2018 4.08798 69.2709 4.08798H69.0927C69.0236 4.05163 68.9872 3.94623 68.7762 3.94623C68.8126 3.90988 68.7762 3.90988 68.8454 3.90988C68.7762 3.84083 68.598 3.76813 68.4925 3.76813L68.4561 3.73179C68.4925 3.73179 68.4925 3.69544 68.5253 3.69544C68.3143 3.6591 68.2779 3.59004 68.136 3.6591C68.0888 3.61185 68.0597 3.57914 68.0306 3.55369C68.0306 3.52098 67.9978 3.52098 68.0306 3.55369C67.9942 3.52462 67.9505 3.50281 67.856 3.48464C67.856 3.44829 67.8923 3.44829 67.8923 3.41558C67.7505 3.37923 67.6086 3.34652 67.434 3.31017V3.27383C67.4704 3.27383 67.5031 3.27383 67.5395 3.23748C67.5395 3.16843 67.5395 3.20114 67.5031 3.13208L67.9251 3.23748L67.9614 3.20114C67.8923 3.13208 67.7505 3.05939 67.6086 3.05939V2.99033C67.6777 3.02668 67.7505 3.02668 67.8196 3.05939H67.856V2.99033C67.6777 2.84858 67.645 2.84858 67.3976 2.88493C67.4437 2.83889 67.5031 2.81587 67.5759 2.81587V2.77952C67.5759 2.77952 67.5395 2.77952 67.5395 2.74318C68.0706 2.77952 68.598 2.81223 69.1291 2.88493V2.92127C69.4128 2.99033 69.6602 3.09937 70.0457 3.06302V3.02668C70.0457 3.02668 70.0094 3.02668 70.0094 2.99033H70.1512C70.1876 3.02668 70.2567 3.05939 70.2931 3.05939C70.3173 3.03516 70.3404 3.02304 70.3622 3.02304C70.2931 3.12844 70.2203 3.16479 70.2567 3.27019C69.8675 3.20114 69.551 3.05939 69.4092 3.51735C69.4455 3.55369 69.5147 3.5864 69.551 3.62275C69.5147 3.62275 69.4819 3.6591 69.4455 3.6591C69.4455 3.69544 69.4455 3.72815 69.4092 3.7645C69.5874 3.90625 69.6565 3.97531 69.8675 4.08071C69.8675 4.14977 69.9039 4.22246 69.9039 4.32786C69.9281 4.35209 69.9633 4.36421 70.0094 4.36421C70.0785 4.43327 70.0457 4.50596 70.0785 4.57502C70.184 4.71677 70.6095 4.92757 70.715 5.06932C70.7514 5.10567 70.715 5.17473 70.7841 5.24742C70.926 5.35282 71.1006 5.42551 71.2425 5.53092C71.2788 5.56726 71.2425 5.53092 71.2425 5.56726C71.5262 5.70901 71.9845 5.70901 72.2319 5.85076C72.2561 5.87499 72.2682 5.91013 72.2682 5.95617C72.5156 6.02522 72.7993 6.09792 73.0467 6.16697H73.1158C73.1522 6.09792 73.1158 6.09792 73.1158 6.02522C73.2576 5.95617 73.294 5.77807 73.4322 5.63632C73.3862 5.56605 73.3631 5.48367 73.3631 5.38917C73.5741 5.35282 73.6469 5.24742 73.8215 5.21107C73.7851 5.10567 73.8215 5.06932 73.716 5.03298C73.7402 5.00875 73.7754 5.00875 73.8215 5.03298L73.8906 4.96392C73.8215 4.92757 73.7851 4.85852 73.7123 4.82217H73.676V4.78582C73.7814 4.82217 73.8869 4.82217 73.9924 4.82217C73.9924 4.82217 74.0288 4.82217 74.0288 4.78582C73.9924 4.74948 73.9924 4.71677 73.9597 4.68042V4.64407C74.1015 4.71313 74.207 4.71313 74.418 4.74948C74.418 4.71313 74.4544 4.64407 74.4544 4.60773H74.5599C74.5235 4.64407 74.4908 4.71313 74.4544 4.74948C74.4544 4.74948 74.4544 4.78582 74.4908 4.78582C74.9491 4.89123 75.2328 4.71677 75.6548 4.64407V4.53867C75.9712 4.43327 76.3968 4.53867 76.7496 4.60773C77.95 4.99663 79.0813 5.45459 80.2089 5.98524C80.067 5.9489 79.9252 5.87984 79.7869 5.84349L79.7506 5.87984C79.7506 5.91619 79.7869 5.9489 79.7869 5.9489C79.6815 5.87984 79.6087 5.80715 79.4705 5.7708V5.80715L79.576 5.91255V5.9489C79.4705 5.91255 79.5069 5.91255 79.4341 5.9489C79.2231 5.7708 79.0449 5.52728 78.6921 5.49094L78.7975 5.59634C78.7284 5.55999 78.6921 5.55999 78.6557 5.52728C78.6193 5.56363 78.5502 5.59634 78.5138 5.66903C78.5138 5.66903 78.5138 5.70538 78.4774 5.70538C78.7248 5.77444 78.9721 5.84713 79.2195 5.88347C79.114 5.98888 78.9721 5.95253 78.7612 5.88347C78.7612 5.88347 78.7612 5.91982 78.7248 5.91982C78.7248 5.91982 78.7248 5.95617 78.7612 5.95617C79.114 6.02522 79.2559 6.13426 79.4668 6.23967C79.4668 6.23967 79.4668 6.27601 79.5032 6.27601C79.4341 6.23967 79.3614 6.23967 79.325 6.23967L79.2886 6.27601C79.2886 6.31236 79.325 6.34507 79.325 6.34507C79.8561 6.48682 81.0892 7.08653 81.5148 6.62857C82.8206 7.29734 84.0574 8.03879 85.2577 8.8166C85.2577 8.8166 85.2214 8.8166 85.1886 8.85295C85.1886 8.92321 85.2008 8.98258 85.225 9.03104C85.1559 9.06739 85.1195 9.06739 85.0468 9.1001C85.1159 9.2055 85.225 9.27819 85.2577 9.34725C85.2577 9.41631 85.2941 9.489 85.2941 9.55806C85.4724 9.80521 85.8252 9.94696 85.9634 10.2632C86.0689 10.2995 86.0325 10.2632 86.1053 10.2268C86.1416 10.2959 86.1744 10.3686 86.1744 10.474C86.2799 10.5794 86.7746 10.8629 86.9528 10.7575C87.0219 10.7211 87.0583 10.5794 87.0219 10.474C87.0583 10.4376 87.091 10.4376 87.1274 10.4049C87.1274 10.3686 87.091 10.3359 87.091 10.3359V10.2668C87.6221 10.514 87.8695 11.1827 88.4333 11.3972C88.4697 11.4662 88.5024 11.5389 88.5024 11.608C88.4333 11.6443 88.3969 11.7134 88.3605 11.7497C88.466 11.8915 88.5715 11.9969 88.7497 12.0659C88.7134 12.135 88.7134 12.1023 88.6079 12.0659V12.1023C88.6442 12.1713 88.677 12.2077 88.7497 12.244H88.8552V12.1023C88.8188 12.0332 88.7497 11.9242 88.6442 11.8915C88.6442 11.8224 88.6443 11.8915 88.6806 11.8224C88.6443 11.7861 88.6115 11.717 88.5751 11.6807C88.6806 11.7497 88.7534 11.8224 88.7861 11.9278H89.0335V11.8588C88.9644 11.7897 88.928 11.717 88.8916 11.6807C88.8916 11.6443 88.928 11.6443 88.928 11.6443C89.2117 11.8915 89.4918 12.1386 89.7391 12.3858V12.4548C89.7028 12.4548 89.67 12.4912 89.6336 12.4912C89.4918 12.6329 89.4554 12.4912 89.3172 12.4912C89.2481 12.4221 89.2808 12.4548 89.2808 12.3858C89.2117 12.3494 89.1753 12.2804 89.1026 12.244V12.3494C89.0662 12.3494 89.0335 12.3494 88.9971 12.3131C89.0335 12.4185 88.9607 12.3821 88.928 12.5239C88.8916 12.5239 88.8589 12.5239 88.8225 12.4876C88.7861 12.4512 88.7534 12.3458 88.7534 12.3095C88.7291 12.2852 88.694 12.2622 88.6479 12.2404C88.6479 12.2767 88.6843 12.2767 88.6843 12.3095C88.5424 12.3095 88.4005 12.1677 88.2951 12.0986C88.2587 12.0986 88.2951 12.0986 88.2951 12.0623C88.2587 12.026 88.2259 11.9932 88.1168 11.9932V11.9242C88.2587 11.9932 88.3642 12.0659 88.506 12.135C88.4369 11.9569 88.2587 11.7134 88.0477 11.7824C88.0113 11.7134 87.9786 11.6043 87.9422 11.4989C87.9665 11.5232 87.9895 11.5353 88.0113 11.5353V11.4662C87.8331 11.2554 87.5894 11.15 87.4802 10.8665C87.4439 10.9029 87.4111 10.9029 87.3748 10.9356C87.3748 10.9719 87.4111 11.041 87.4111 11.0773H87.342C87.3057 11.1137 87.2729 11.1137 87.2365 11.1137C87.3057 11.4662 87.9786 11.9605 87.9422 12.1023C87.9786 12.1023 88.0477 12.1386 88.0841 12.1386C88.1532 12.2804 88.2623 12.3494 88.3314 12.4912C88.2623 12.5275 88.2951 12.4912 88.2951 12.5966C88.1896 12.5602 88.1532 12.5275 88.0113 12.5602V12.6656C87.9422 12.6656 87.8331 12.702 87.764 12.702C87.764 12.7383 87.7276 12.771 87.7276 12.771C87.764 12.8074 87.764 12.8401 87.7967 12.9128C87.8428 12.937 87.8901 12.937 87.9386 12.9128C87.9749 13.0182 88.0441 13.0545 88.0077 13.1236C87.9386 13.1927 88.0077 13.16 87.9022 13.1236H87.8658C87.9022 13.2654 87.8658 13.2654 87.9349 13.3708C87.8986 13.3708 87.8295 13.3344 87.7931 13.3344C87.7603 13.2508 87.7276 13.1636 87.6985 13.0727C87.7567 13.2508 87.7931 13.4253 87.6876 13.5125C87.6185 13.5816 87.5166 13.607 87.4257 13.647C87.4148 13.6252 87.4039 13.6034 87.4039 13.5852C87.2984 13.5852 87.2256 13.5852 87.1565 13.5489C87.1929 13.4798 87.2984 13.338 87.262 13.2326C87.2256 13.0545 86.8728 12.6693 86.6618 12.9164C86.6618 12.9164 86.6254 12.9164 86.5927 12.8801C86.4872 12.6329 86.309 12.3494 85.9925 12.175C85.887 12.1386 85.7452 12.0696 85.6397 12.0332C85.3232 11.7497 85.1814 11.5026 84.723 11.5026C84.7594 11.4662 84.8285 11.4335 84.8649 11.3972C84.8285 11.3608 84.7958 11.3281 84.7594 11.3281C84.8285 11.1864 84.7594 11.0446 84.7594 10.9065C84.5812 10.7284 84.2647 10.7647 84.0537 10.8374C84.0537 10.732 84.0901 10.7684 83.9846 10.732C84.021 10.663 84.0537 10.5903 84.1265 10.5539C84.1265 10.5176 84.0901 10.4849 84.0901 10.4122C83.8791 10.3758 83.7009 10.4485 83.5263 10.4122C83.4899 10.4485 83.4899 10.4812 83.5263 10.5539C83.502 10.6 83.5142 10.6593 83.5627 10.732C83.5627 10.732 83.5263 10.732 83.5263 10.7684C83.4572 10.7684 83.4899 10.732 83.4572 10.8047C83.4936 10.8738 83.5263 10.9465 83.5627 10.9828C83.3844 10.8774 83.3153 10.8047 83.2462 10.7357C83.2098 10.8047 83.2098 10.772 83.1771 10.8411C83.2826 10.9465 83.4936 11.0192 83.599 11.0192C83.599 11.0555 83.6354 11.0555 83.6354 11.0882C83.599 11.1246 83.5663 11.1246 83.5299 11.1573C83.5663 11.2627 83.599 11.2627 83.599 11.3681C83.6682 11.3681 83.7409 11.3317 83.7773 11.3317C83.7773 11.2954 83.7773 11.2627 83.8137 11.2263V11.19H83.85C83.8864 11.4008 83.9919 11.5426 84.061 11.7534H84.1301C84.1301 11.7534 84.1301 11.717 84.1665 11.717C84.1665 11.6807 84.1301 11.648 84.1301 11.6116C84.1665 11.648 84.1992 11.648 84.2356 11.6807C84.1992 11.6116 84.1992 11.5389 84.1665 11.5026C84.2356 11.5389 84.272 11.5716 84.3083 11.608C84.3447 11.677 84.3447 11.7861 84.3083 11.8915C84.3775 11.9278 84.4138 11.9969 84.4866 12.0332H84.523C84.4987 12.009 84.4866 11.986 84.4866 11.9642C84.5557 12.0005 84.5921 12.0005 84.6648 12.0332V11.9642C84.8067 12.0005 84.8431 12.0005 84.9486 11.8951C85.0904 12.0369 85.0177 12.3167 85.3378 12.2477C85.3378 12.3894 85.3741 12.4585 85.4433 12.5639C85.3014 12.6693 85.1595 12.6002 84.9849 12.5639C85.0213 12.6693 85.054 12.6693 85.1268 12.742C85.0904 12.7783 85.0577 12.811 85.0577 12.8474C85.0577 12.8474 85.0577 12.8837 85.094 12.8837C85.1304 12.8474 85.1995 12.8474 85.2359 12.8147C85.305 12.8837 85.3414 12.9564 85.3778 13.0255C85.3414 13.1309 85.2723 13.2036 85.1304 13.2036L85.0613 13.2726C85.1304 13.3417 85.2032 13.378 85.2723 13.4507C85.4833 13.3453 85.6615 13.4871 85.8725 13.5561C85.9089 13.5198 85.978 13.4871 86.0143 13.4871C85.9901 13.5331 85.978 13.5804 85.978 13.6288H85.5888C85.5888 13.8069 85.4833 13.9814 85.3414 14.1231V14.1595C85.4117 14.1595 85.4821 14.1716 85.5524 14.1958C85.5888 14.1268 85.5887 14.0541 85.7306 14.0177C85.8361 13.9814 85.9416 14.0541 86.0471 14.0868C86.0471 14.0177 86.0471 13.9087 86.0834 13.876C86.0834 13.876 86.6836 13.9123 86.72 13.945H86.7891C86.7891 13.9087 86.7527 13.876 86.7527 13.8396C86.9965 13.8396 87.1383 13.836 87.3347 13.7669C87.3929 13.8687 87.4293 13.9923 87.4621 14.0868C87.393 14.1558 87.3566 14.1558 87.2511 14.1922C87.2147 14.2612 87.1456 14.2976 87.2511 14.3703C87.2511 14.4066 87.2147 14.4066 87.182 14.4393C86.9346 14.4757 86.6873 14.2976 86.5127 14.2285L86.4763 14.2649C86.5818 14.4066 86.7237 14.512 86.7928 14.7228C86.8291 14.7228 86.8291 14.7592 86.8619 14.7919V14.8282C86.72 14.7919 86.6145 14.7919 86.509 14.8646C86.4399 14.7955 86.3672 14.7592 86.2981 14.6865C86.1562 14.7555 85.9816 14.7228 85.8761 14.8282H85.8397C85.8761 15.0063 85.9816 14.97 86.0871 15.039C86.0507 15.039 86.018 15.039 85.9816 15.0754C86.1926 15.2535 86.4763 15.2171 86.76 15.3225C86.76 15.3225 87.6439 16.1694 87.6767 16.2058C87.6403 16.1694 87.6076 16.1694 87.5712 16.1367L87.5348 16.173C87.7458 16.4892 87.9931 16.9508 87.9931 17.5142C87.6767 17.6196 86.8983 17.4088 86.4763 17.3725C86.3708 17.3725 86.0871 17.4779 85.9125 17.4415C85.8434 17.4052 85.807 17.3361 85.6651 17.3725C85.5597 17.3361 85.5233 17.4779 85.5596 17.5506C85.4542 17.5869 85.3487 17.5869 85.3123 17.656C85.2759 17.656 85.2432 17.6923 85.2432 17.6923C85.2432 17.8704 85.3487 17.8704 85.3851 18.0085C85.4542 18.0085 85.4214 18.0085 85.4905 17.9722C85.5269 18.2884 85.7379 18.5355 85.8434 18.819C85.9489 19.1025 85.8797 19.8767 85.8434 20.1602L86.0544 20.371C86.0907 20.3347 86.1235 20.3347 86.1598 20.3019C86.2653 20.5491 86.3381 20.8326 86.3017 21.2179C86.4799 21.1488 86.6909 21.2542 86.7964 21.2179C86.8655 21.1815 86.9019 21.1125 87.0074 21.0761C87.3238 20.9344 87.5021 21.7122 87.8549 21.7812C87.924 21.7122 88.2077 21.465 88.2077 21.3923C88.4551 21.3923 88.6297 21.356 88.8443 21.4287C88.8443 21.3923 88.8807 21.3596 88.8807 21.3596C88.9862 21.3596 88.9862 21.396 89.0589 21.4287C89.128 21.2869 89.1644 21.0761 89.2008 20.9707C89.2699 20.9344 89.3063 20.9344 89.4118 20.9344C89.4118 20.829 89.3427 20.6509 89.4118 20.4764C89.4481 20.371 89.5172 20.371 89.5536 20.2293C88.9898 19.8404 89.4845 19.346 89.3427 19.0298C89.4481 18.8881 89.5536 18.9244 89.6955 18.819C89.7646 18.75 89.8737 18.5719 89.9428 18.5028C89.9065 18.292 89.59 18.0085 89.6591 17.7614C89.6955 17.6923 89.7646 17.656 89.801 17.5833C90.0847 17.6887 90.2593 17.7941 90.5066 17.8995C90.6121 17.7941 90.6121 17.5833 90.8231 17.5106C90.8231 17.4415 90.8595 17.3325 90.8922 17.2634V17.2271C91.2778 17.2816 91.5543 17.7214 91.7761 18.0776V18.1066H91.7943C91.8489 18.1975 91.9034 18.2847 91.9507 18.3538C91.9507 18.3538 92.6564 19.0226 92.6928 19.0589C92.7292 19.0589 92.7983 19.0226 92.871 19.0953C92.9074 19.1643 92.9401 19.237 93.0129 19.3061C93.544 19.8004 93.7186 19.9748 93.9659 20.7526C93.8968 20.789 93.7877 20.789 93.7549 20.8944C93.5767 20.8944 93.5767 20.858 93.4385 20.789C93.4142 20.8132 93.4021 20.8484 93.4021 20.8944L93.333 20.8253H93.2966C93.2966 20.8944 93.2602 21.0034 93.333 21.0725C93.3694 21.1415 94.0387 21.6722 94.1441 21.7085H94.1805C94.1441 21.425 94.0023 21.2869 94.0023 20.9307C94.0386 20.9671 94.0714 20.9998 94.1078 20.9998C94.1441 20.858 94.1078 20.6836 94.0714 20.5418C94.0714 20.4364 94.0714 20.4728 94.1405 20.4364C94.0714 20.1893 93.9623 20.1529 93.8568 20.0148L93.7513 19.5932L93.7877 19.5569C93.8568 19.6623 94.0714 19.9094 94.2096 19.9785C94.1041 19.5569 93.7149 19.2007 93.3621 19.0625C93.3257 18.9935 93.293 18.9208 93.3257 18.8154C93.2202 18.7463 93.1147 18.8154 93.0092 18.71C92.7255 18.4992 92.62 18.1466 92.4091 17.8631C92.2308 17.616 91.878 17.5469 91.7725 17.1944C91.7725 17.158 91.8089 17.1253 91.8089 17.0526C91.7725 16.9472 91.667 16.9109 91.6306 16.8055C91.701 16.7812 91.7482 16.7461 91.7725 16.7001H91.8416C91.9107 16.8055 92.0526 17.0526 92.089 17.158C92.089 17.158 92.1253 17.158 92.1253 17.1944C92.1253 17.158 92.1253 17.089 92.1617 17.0526C92.1981 17.1217 92.2308 17.1944 92.2672 17.2634C92.3036 17.2634 92.3036 17.2998 92.3363 17.2998C92.2999 17.2307 92.2999 17.1944 92.2672 17.1217C92.4454 17.1907 92.5145 17.4742 92.5837 17.5796C92.7255 17.7577 92.9365 17.8268 93.042 17.9685C93.0177 17.9685 92.9947 17.9564 92.9729 17.9322C92.9838 17.9649 92.9947 17.9867 93.0092 18.0049V18.0739H93.0456C93.0311 18.0449 93.0274 18.034 93.0274 18.0303C93.0493 18.0558 93.0784 18.0739 93.1147 18.1103H93.2202C93.1838 18.0739 93.1511 18.0412 93.1147 18.0412H93.1511C93.1875 18.0776 93.2202 18.1103 93.2566 18.1103V18.1466C93.2202 18.1466 93.1875 18.183 93.1511 18.183C93.2202 18.252 93.2202 18.183 93.3293 18.252C93.5403 18.3574 93.8604 18.71 93.9986 18.8881C94.1041 19.1716 94.2096 19.4515 94.3151 19.6986C94.457 19.9458 94.7371 20.1929 94.8462 20.4401H94.9153C94.9153 20.4764 94.8789 20.5455 94.9153 20.6182C94.9844 20.6872 95.0935 20.7963 95.199 20.829C95.1626 20.9344 95.1626 20.898 95.1626 21.0398C95.3045 21.2179 95.41 21.3923 95.4791 21.6395C95.5155 21.6395 95.5155 21.6758 95.5482 21.6758H95.5846C95.5846 21.6395 95.5482 21.5704 95.5482 21.5341H95.5846C95.621 21.6395 95.6537 21.7122 95.7265 21.8176C95.7265 21.8176 95.7628 21.8176 95.7628 21.8539C95.7628 21.8176 95.7265 21.7485 95.7265 21.7122C95.7628 21.7485 95.7956 21.8176 95.8319 21.8539H95.8683C95.7628 21.6758 95.6901 21.465 95.5846 21.2542C95.621 21.2906 95.621 21.3233 95.6537 21.3233C95.6537 21.3233 95.6901 21.3233 95.6901 21.3596V21.3233C95.7265 21.2179 95.5846 21.1125 95.5482 21.0398H95.5846C95.621 21.0761 95.6537 21.1088 95.7265 21.1815C95.6901 21.1125 95.6573 21.0398 95.621 20.9344C95.6901 21.0034 95.7628 21.0761 95.8319 21.1452C95.7264 20.9344 95.4791 20.5091 95.2681 20.4037C95.3045 20.3347 95.2681 20.3674 95.3372 20.3674C95.2681 20.1202 94.9153 19.9094 94.8789 19.5569H94.9153C94.9517 19.7677 95.0935 19.6986 95.1626 19.804H95.199C95.1299 19.6986 95.0572 19.5932 94.988 19.4878C94.9917 19.4842 94.9953 19.4805 94.999 19.4769C95.0062 19.4805 95.0099 19.4878 95.0208 19.4878C95.0171 19.4769 95.0135 19.4733 95.0099 19.4624C95.0353 19.4369 95.0644 19.4151 95.0899 19.4151C95.1954 19.346 95.2318 19.5569 95.3736 19.5569C95.3736 19.6259 95.41 19.6623 95.41 19.735C95.4464 19.5241 95.41 19.2043 95.3736 19.1352C95.2681 19.0298 95.1954 18.8517 95.1263 18.7136C94.948 18.4665 94.8425 18.2193 94.7043 17.9722C95.621 19.2406 96.4685 20.5128 97.1742 21.8176C91.9071 9.45629 79.656 0.776855 65.3934 0.776855C51.1308 0.776855 38.8797 9.41994 33.6162 21.7667C35.2385 18.521 37.7484 15.1699 40.9967 12.135V12.135ZM69.842 8.39499C69.842 8.35864 69.8057 8.35864 69.8057 8.32593C69.8299 8.35016 69.842 8.37318 69.842 8.39499Z" fill="white"/>
<path d="M95.4028 20.4264C95.4028 20.4264 95.4394 20.463 95.4724 20.463C95.4358 20.4264 95.4358 20.3935 95.4028 20.3569V20.4264Z" fill="white"/>
<path d="M95.1914 19.8261L95.261 19.8956V19.8261C95.2244 19.8261 95.1914 19.7896 95.1914 19.7896V19.8261Z" fill="white"/>
<path d="M87.637 12.7712C87.637 12.7712 87.6006 12.7712 87.6006 12.7349C87.626 12.8257 87.6697 12.9348 87.7097 13.0402C87.6806 12.9457 87.6552 12.8548 87.637 12.7676V12.7712Z" fill="white"/>
<path d="M91.9436 18.9104C91.9436 18.9104 91.9073 18.874 91.8745 18.874C91.8745 18.9431 91.8382 18.9794 91.8382 19.0521C91.769 19.0885 91.8018 19.0885 91.6963 19.0521C91.6963 19.2629 91.9436 19.4737 92.0127 19.6518C92.0819 19.7936 92.0491 19.968 92.0819 20.0734C92.151 20.1098 92.1873 20.1788 92.3292 20.2152C92.3292 20.1788 92.3292 20.1098 92.2928 20.0734C92.3292 20.0734 92.362 20.0734 92.4347 20.1098C92.3656 19.6882 92.1874 19.2266 91.94 18.9104H91.9436Z" fill="white"/>
<path d="M91.8013 18.7683L91.8377 18.8046C91.8377 18.5211 91.6958 18.0268 91.5212 17.9214C91.5576 17.9577 91.5576 18.0268 91.5903 18.0631C91.554 18.0995 91.5212 18.0995 91.4849 18.1322C91.4849 18.3793 91.6631 18.6956 91.8013 18.7683Z" fill="white"/>
<path d="M94.9079 20.6401V20.7819L94.9771 20.8509C95.0013 20.8509 95.0243 20.8631 95.0462 20.8873V20.8509C95.0098 20.7819 94.977 20.7092 94.9043 20.6401H94.9079Z" fill="white"/>
<path d="M95.156 19.5802C95.156 19.5103 95.1928 19.5434 95.1191 19.5103C95.1191 19.5103 95.156 19.547 95.156 19.5802Z" fill="white"/>
<path d="M84.4216 41.6994C84.458 41.7684 84.5271 41.8048 84.5999 41.8048L88.6957 41.9465C88.7648 41.9465 88.8375 41.9102 88.8739 41.8411C88.9103 41.772 88.9103 41.6994 88.8739 41.6303L85.2037 35.3497C86.6878 34.8554 88.2737 33.5869 88.2737 30.5884C88.2737 27.5898 86.615 25.6489 83.7196 25.5435L75.0332 25.2964C74.9969 25.2964 74.9277 25.3327 74.8914 25.3654C74.855 25.4018 74.8223 25.4345 74.8223 25.5072L74.8914 41.3468C74.8914 41.4522 74.9969 41.5576 75.1023 41.5576L78.5616 41.663C78.598 41.663 78.6671 41.6267 78.7035 41.594C78.7398 41.5612 78.7726 41.5249 78.7726 41.4522L78.7362 35.7023L80.9951 35.7713L84.418 41.6994H84.4216ZM78.7035 32.2094V28.8946L82.3737 29C84.1052 29.0364 84.2434 29.7415 84.2434 30.483C84.2434 31.1517 84.1015 31.577 83.8542 31.8241C83.5013 32.1767 82.9011 32.3184 81.8754 32.3184H81.5225L78.6998 32.213L78.7035 32.2094Z" fill="white"/>
<path d="M69.1008 54.1522C69.0971 54.1228 69.1008 54.1007 69.1045 54.0786C69.0345 54.1522 69.0456 54.1522 69.1008 54.1522Z" fill="white"/>
<path d="M95.0139 19.8267C95.0383 19.8024 95.0615 19.7902 95.0834 19.7902L94.9773 19.6841C94.9773 19.7207 95.0139 19.7536 95.0139 19.7902L94.9443 19.7207C94.9809 19.7572 95.0139 19.7902 95.0139 19.8267Z" fill="white"/>
<path d="M95.1198 21.0994V21.0299C95.0832 20.9934 95.0503 20.9934 95.0137 20.9604C95.0503 20.9604 95.0503 20.997 95.0503 21.0299L95.1198 21.0994Z" fill="white"/>
<path d="M95.7927 21.9454L95.8293 21.9088L95.7598 21.8394C95.7598 21.8759 95.7964 21.9088 95.7964 21.9454H95.7927Z" fill="white"/>
<path d="M40.2913 16.2646C40.2549 16.3701 40.2549 16.4427 40.2222 16.5481V16.5845H40.2585C40.2949 16.4791 40.2949 16.4064 40.3277 16.301C40.3277 16.301 40.2913 16.301 40.2913 16.2646Z" fill="white"/>
<path d="M60.7339 3.81201V3.95376C61.0176 3.91741 61.2977 3.95376 61.5451 3.8847C61.5451 3.8847 61.545 3.84835 61.5814 3.84835C61.4032 3.81201 61.2286 3.7793 61.0504 3.7793C60.9449 3.7793 60.8394 3.7793 60.7339 3.81564V3.81201Z" fill="white"/>
<path d="M62.3205 4.62252C62.2839 4.58594 62.2143 4.58594 62.1777 4.58594L62.2143 4.62252H62.3205Z" fill="white"/>
<path d="M62.3929 4.12814C62.251 4.09179 62.2146 4.05908 62.1091 4.05908C62.04 4.09543 61.9673 4.09543 61.9309 4.12814C61.9309 4.16449 61.8945 4.16449 61.8945 4.1972C61.9309 4.23354 61.9309 4.26625 61.9636 4.3026C62.1055 4.33895 62.1746 4.23354 62.3165 4.1972L62.3856 4.12814H62.3929Z" fill="white"/>
<path d="M71.0754 10.515C71.0754 10.515 71.112 10.515 71.112 10.4784V10.4418C71.0754 10.4418 71.0425 10.4418 71.0059 10.4053C71.0425 10.4747 71.0754 10.4747 71.0754 10.5113V10.515Z" fill="white"/>
<path d="M66.1355 5.46896L66.0991 5.50531C66.1682 5.54165 66.2774 5.54165 66.3828 5.54165C66.3828 5.54165 66.3828 5.50531 66.4192 5.50531C66.3828 5.50531 66.3501 5.46896 66.3137 5.43625C66.2774 5.43625 66.2446 5.43625 66.2082 5.3999C66.1719 5.43625 66.1719 5.46896 66.1391 5.46896H66.1355Z" fill="white"/>
<path d="M71.043 10.4098L71.0765 10.3726H71.043V10.4098Z" fill="white"/>
<path d="M62.8149 3.88134C62.8841 3.91769 62.9204 3.9504 62.9932 3.98675C63.0623 3.98675 63.0987 3.98675 63.1714 4.02309V3.91769C63.0659 3.88134 62.9604 3.84863 62.855 3.84863C62.855 3.84863 62.855 3.88498 62.8186 3.88498L62.8149 3.88134Z" fill="white"/>
<path d="M63.4509 4.02261H63.5201C63.5201 4.02261 63.5201 3.98626 63.5564 3.98626L63.4873 3.91721C63.4182 3.91721 63.3455 3.88086 63.3091 3.88086C63.3091 3.94992 63.3782 3.98626 63.4509 4.02261V4.02261Z" fill="white"/>
<path d="M63.2036 3.81266H63.3464C63.2768 3.77609 63.2402 3.77608 63.2036 3.74316V3.81266Z" fill="white"/>
<path d="M64.8622 3.07039L64.9677 2.96499V2.89593C64.7894 2.85958 64.6512 2.79053 64.4038 2.79053C64.3347 2.82687 64.2256 2.85958 64.1565 2.85958C64.1565 2.89593 64.1565 2.92864 64.1201 2.96499V3.00133C64.262 3.07039 64.6839 3.17943 64.8622 3.07039V3.07039Z" fill="white"/>
<path d="M71.2905 9.9834H71.2536C71.2536 10.0079 71.2414 10.0312 71.2168 10.0533C71.2868 10.0165 71.2536 10.0533 71.2868 9.9834H71.2905Z" fill="white"/>
<path d="M65.2151 67.5593C50.0322 67.5593 37.1118 58.5273 32.3467 45.9334C36.9008 59.4432 48.268 69.9581 65.1824 69.9581C81.1401 69.9581 93.7112 59.3051 98.1926 45.6499C93.533 58.3856 80.5399 67.5557 65.2151 67.5557V67.5593Z" fill="white"/>
<path d="M97.8399 31.9981C97.2033 31.751 96.6031 31.4675 96.1448 31.2203C95.3664 30.7987 94.9808 30.4098 94.9808 30.0209C94.9808 29.9155 95.0172 29.7374 95.1918 29.5629C95.37 29.3848 95.792 29.1413 96.6395 29.2104C99.0039 29.3521 101.583 30.9041 102.325 31.3984C102.394 31.4347 102.467 31.4347 102.536 31.3984C102.605 31.362 102.641 31.293 102.641 31.2203L102.605 27.6911C102.605 27.622 102.569 27.5493 102.5 27.513C101.299 26.8079 98.7565 25.7139 96.6395 25.6085C94.8389 25.5031 93.2166 26.0301 92.1909 27.055C91.4124 27.8328 91.0269 28.8905 91.0269 30.1226C91.0269 33.8627 94.417 35.2365 96.8869 36.2615C97.4871 36.5086 98.0181 36.7195 98.4765 36.9666C99.2549 37.3555 99.6404 37.7081 99.6404 38.0606C99.6404 38.3768 99.5713 38.5913 99.3567 38.7657C98.9675 39.1546 98.2255 39.2964 97.0978 39.26C95.8975 39.191 93.7804 38.2387 91.5543 36.7558C91.4852 36.7195 91.4124 36.7195 91.3433 36.7558C91.2742 36.7921 91.2378 36.8612 91.2378 36.9339L91.2742 40.6012C91.2742 40.6703 91.3106 40.743 91.3797 40.7793C92.0854 41.2373 94.6644 42.7892 97.0978 42.8946C97.3088 42.8946 97.5562 42.931 97.7671 42.931C99.7787 42.931 101.332 42.4003 102.321 41.4154C103.205 40.5322 103.627 39.3327 103.627 37.8535C103.591 34.3969 100.273 33.0194 97.8362 31.9981H97.8399Z" fill="white"/>
<path d="M113.586 27.1646C113.55 27.0955 113.481 27.0228 113.408 27.0228L111.007 26.8447C110.902 26.8447 110.829 26.9138 110.797 26.9865L104.653 42.5099C104.616 42.5462 104.616 42.6153 104.653 42.688C104.689 42.757 104.758 42.7934 104.831 42.7934L107.69 43.0042C107.796 43.0042 107.868 42.9351 107.901 42.8624L109.065 39.8639L114.609 40.2855L115.773 43.4621C115.809 43.5312 115.878 43.6039 115.951 43.6039L119.374 43.851C119.443 43.851 119.516 43.851 119.552 43.782C119.621 43.7456 119.621 43.6766 119.588 43.6039L113.586 27.1646V27.1646ZM110.444 36.4764L111.891 32.8091L113.303 36.6909L110.444 36.4801V36.4764Z" fill="white"/>
<path d="M71.9233 11.5724L71.8864 11.5356C71.8864 11.5356 71.8864 11.5724 71.8496 11.6056C71.8864 11.5688 71.9196 11.5688 71.9196 11.5688L71.9233 11.5724Z" fill="white"/>
<path d="M29.415 26.2849C29.3786 26.2485 29.3095 26.2158 29.2732 26.2158L26.6942 26.3939C26.5887 26.3939 26.5159 26.4993 26.5159 26.6047L26.5523 35.9166L19.7393 26.99C19.7029 26.9209 19.6338 26.9209 19.561 26.9209L16.3491 27.1317C16.2436 27.1317 16.1709 27.2371 16.1709 27.3425L16.24 43.1822C16.24 43.2512 16.2764 43.2876 16.3091 43.3239C16.3419 43.3602 16.4146 43.393 16.451 43.393L19.03 43.2149C19.1355 43.2149 19.2082 43.1095 19.2082 43.0041L19.1718 32.9144L26.4796 42.6152C26.5159 42.6515 26.5851 42.6842 26.6578 42.6842L29.3059 42.5061C29.4114 42.5061 29.4841 42.4007 29.4841 42.2953L29.415 26.4557C29.4841 26.3866 29.4514 26.3503 29.415 26.2776V26.2849Z" fill="white"/>
<path d="M131.625 41.452L124.918 40.8523L124.849 28.153C124.849 28.0476 124.78 27.9422 124.67 27.9422L121.706 27.6587C121.637 27.6587 121.6 27.6587 121.528 27.7277C121.491 27.7641 121.458 27.8332 121.458 27.8695L121.564 43.8872C121.564 43.9926 121.633 44.098 121.742 44.098L131.556 45.0139H131.593C131.629 45.0139 131.698 45.0139 131.734 44.9449C131.771 44.9085 131.804 44.8395 131.804 44.8031V41.6628C131.804 41.5574 131.734 41.452 131.625 41.452V41.452Z" fill="white"/>
<path d="M13.1043 27.4839C13.068 27.4475 12.9988 27.4148 12.9261 27.4475L9.92516 27.731C9.81967 27.731 9.74692 27.8364 9.74692 27.9418L9.7833 37.4318C9.7833 39.7252 8.86665 40.961 7.02971 41.1355C6.88785 41.1718 6.78237 41.1718 6.6405 41.1718C5.08729 41.1718 4.27613 40.1141 4.27613 38.0315L4.23976 28.5416C4.23976 28.4725 4.20338 28.4362 4.17064 28.3998C4.13427 28.3635 4.06516 28.3308 4.02878 28.3308L1.02785 28.6142C0.922359 28.6142 0.849609 28.7197 0.849609 28.8251L0.885984 38.4204C0.922359 42.582 2.72292 44.8064 6.18218 44.8064C6.4659 44.8064 6.74599 44.8064 7.06609 44.7701C12.4314 44.2394 13.2098 39.867 13.2098 37.29L13.1734 27.6947C13.1734 27.5893 13.1734 27.5166 13.1043 27.4839Z" fill="white"/>
<path d="M62.2517 12.3823H62.2144V12.4196C62.2144 12.4196 62.2517 12.4196 62.2517 12.3823Z" fill="white"/>
<path d="M66.4517 9.70383C66.8736 9.98733 67.1937 10.1981 67.7575 10.3726H67.7939V10.3035C67.5102 10.0564 66.9827 9.70383 66.488 9.66748C66.4517 9.66748 66.4517 9.70383 66.4517 9.70383Z" fill="white"/>
<path d="M33.1941 42.2626C33.2305 42.299 33.2996 42.3317 33.336 42.3317L36.7589 42.1536C36.8643 42.1536 36.9698 42.0482 36.9698 41.9428L36.9007 26.1395C36.9007 26.0705 36.8643 26.0341 36.8316 25.9978C36.7952 25.9614 36.7261 25.9287 36.6897 25.9287L33.2305 26.1068C33.125 26.1068 33.0522 26.2122 33.0522 26.3176L33.1577 42.1209C33.1214 42.1572 33.1577 42.1899 33.1941 42.2626Z" fill="white"/>
<path d="M83.0464 10.7614C83.0101 10.7614 83.0101 10.7251 82.9773 10.7251C82.9446 10.7251 82.9082 10.7614 82.9082 10.7614C82.9773 10.8305 83.0137 10.9032 83.0864 10.9723H83.1556C83.0864 10.9359 83.0501 10.8668 83.0501 10.7614H83.0464Z" fill="white"/>
<path d="M83.4686 11.041C83.4317 11.041 83.4317 11.0778 83.4686 11.041V11.041Z" fill="white"/>
<path d="M83.1514 10.4416C83.0823 10.4416 83.0459 10.4053 83.0095 10.4053L82.8677 10.547C82.9368 10.6161 82.9732 10.6524 82.9732 10.6888C83.0095 10.6888 83.0095 10.7251 83.0423 10.7251C83.0786 10.6888 83.1478 10.6561 83.1841 10.6197C83.1841 10.5507 83.1478 10.478 83.1478 10.4416H83.1514Z" fill="white"/>
<path d="M67.5103 5.36377C67.5466 5.43282 67.6521 5.50552 67.7576 5.54186C67.794 5.50552 67.8267 5.50552 67.8631 5.4728C67.8631 5.43646 67.8267 5.40375 67.794 5.3674C67.7249 5.33105 67.6885 5.33105 67.6521 5.33105C67.6279 5.35529 67.5806 5.3674 67.5103 5.3674V5.36377Z" fill="white"/>
<path d="M63.3818 11.7145L63.4154 11.6772H63.3818V11.7145Z" fill="white"/>
<path d="M82.8682 12.3499C82.8439 12.3499 82.8209 12.362 82.7991 12.3863C82.8682 12.4553 82.9409 12.4553 83.0464 12.4553C83.0003 12.5014 82.9531 12.5486 82.9046 12.5971C83.0464 12.8079 83.1883 12.6661 83.3993 12.7388C83.2574 12.8079 83.2938 12.8442 83.2938 12.9496C83.2247 13.0187 83.2247 12.986 83.2938 13.055C83.2574 13.1241 83.2574 13.0914 83.2574 13.1968H83.1155C83.0792 13.2331 83.0792 13.2658 83.0792 13.3022C83.1483 13.3022 83.221 13.2658 83.2901 13.2658C83.2538 13.3022 83.1846 13.3349 83.1483 13.3349C83.3592 13.8983 84.1704 13.1932 84.5269 13.1932C84.5269 12.946 84.4214 12.5571 84.1377 12.4153C84.1377 12.4153 84.1377 12.379 84.1013 12.379C84.2068 12.3427 84.2068 12.2736 84.2795 12.2373V12.1318C84.1377 11.9901 84.0322 11.9901 83.8903 11.8156C83.7485 11.7466 83.643 11.7793 83.5375 11.852C83.5375 11.8278 83.5496 11.8047 83.5739 11.7829C83.5047 11.7466 83.4684 11.7466 83.3956 11.7139C83.3592 11.7829 83.2538 11.8193 83.1119 11.8193C83.0755 11.961 83.1119 11.961 83.0428 12.0301C83.1119 12.0991 83.1846 12.0664 83.2901 12.0664C83.2538 12.1718 83.221 12.1355 83.221 12.2082H82.6899C82.7954 12.3499 82.7954 12.2772 82.8682 12.3499V12.3499Z" fill="white"/>
<path d="M83.0464 11.0785C83.0464 11.0785 83.0832 11.0785 83.1164 11.0417V11.0049L83.0464 11.0417V11.0785Z" fill="white"/>
<path d="M70.4762 12.1025H70.4424V12.1363L70.4762 12.1025Z" fill="white"/>
<path d="M70.4065 12.1034C70.4065 12.1034 70.4431 12.1034 70.4431 12.0668C70.4065 12.0668 70.4065 12.0303 70.3735 12.0303L70.3369 12.0668C70.3613 12.0668 70.3845 12.079 70.4065 12.1034Z" fill="white"/>
<path d="M64.5468 11.5718H64.4773L64.4077 11.6413C64.4077 11.6413 64.4443 11.6413 64.4443 11.6779C64.5139 11.6084 64.5139 11.6413 64.5505 11.5718H64.5468Z" fill="white"/>
<path d="M70.4069 11.9972C70.4069 11.9972 70.3701 11.9604 70.3369 11.9604C70.3369 11.9972 70.3737 11.9972 70.3737 12.0304C70.3737 11.9936 70.4106 11.9936 70.4106 11.9936L70.4069 11.9972Z" fill="white"/>
<path d="M83.4689 11.0417C83.4321 11.0417 83.3989 11.0049 83.3989 11.0049C83.3989 11.0417 83.4358 11.0417 83.4689 11.0417Z" fill="white"/>
<path d="M87.7749 11.041L87.8449 11.1109C87.8081 11.041 87.8449 11.0741 87.7749 11.041Z" fill="white"/>
<path d="M87.917 12.9819V13.0192H87.9543C87.9543 12.9819 87.9543 13.0192 87.917 12.9819Z" fill="white"/>
<path d="M89.1899 11.9971C89.1899 12.0334 89.2263 12.0661 89.2263 12.1025C89.2627 12.1388 89.3318 12.1388 89.3682 12.1388C89.2991 12.0334 89.2627 12.0334 89.1899 11.9971V11.9971Z" fill="white"/>
<path d="M83.3628 11.1504V11.1872C83.3996 11.224 83.4328 11.224 83.4328 11.224V11.1541H83.3628V11.1504Z" fill="white"/>
<path d="M71.6064 11.151H71.7492C71.7492 11.0815 71.7492 11.1145 71.6431 11.0815C71.6431 11.1059 71.6309 11.1291 71.6064 11.151Z" fill="white"/>
<path d="M83.3262 11.2892H83.363C83.363 11.2192 83.3998 11.2524 83.3262 11.2192V11.2892Z" fill="white"/>
<path d="M83.7879 11.6407C83.857 11.6044 83.857 11.4626 83.7879 11.3936C83.7515 11.4626 83.7187 11.499 83.646 11.5353C83.6824 11.6044 83.7151 11.6044 83.7879 11.6407Z" fill="white"/>
<path d="M84.774 12.2404C84.774 12.2161 84.7861 12.1931 84.8103 12.1713L84.7049 12.0659C84.6685 12.1713 84.6685 12.2077 84.6357 12.244C84.6357 12.244 84.6357 12.2804 84.6721 12.2804C84.7085 12.2804 84.7412 12.2804 84.7776 12.244L84.774 12.2404Z" fill="white"/>
<path d="M83.7167 11.4304C83.6922 11.4304 83.6799 11.4181 83.6799 11.3936C83.6799 11.3936 83.6615 11.412 83.6652 11.4083L83.6431 11.4304C83.6431 11.4304 83.6799 11.4304 83.6799 11.4671L83.7167 11.4304V11.4304Z" fill="white"/>
</svg>