<svg id="Zara__retailer_-Logo.wine" data-name="Zara_(retailer)-Logo.wine" xmlns="http://www.w3.org/2000/svg" width="113.256" height="44.61" viewBox="0 0 113.256 44.61">
  <path id="Zara__retailer_-Logo.wine-2" data-name="Zara_(retailer)-Logo.wine" d="M107.447,43.29,90.667.029,90.656,0h-.331L86.869,8.89,80.578,25.075l-.015-.013a16.994,16.994,0,0,0-9.13-3.347L70.252,21.6l1.172-.141c6.388-1.075,10.683-4.853,10.683-9.405,0-6.242-6.27-10.6-15.25-10.6H48.171v.316H53.6V34.026L40.415.029,40.4,0h-.331L36.616,8.89,23.289,43.178l-.082.009q-.342.039-.676.063c-.335.025-.669.039-1,.039H8.062l25.6-41.518.19-.312H2.543V14.3h.332C2.934,8.047,6.825,1.772,15.42,1.772h10.37L0,43.6H34.745V31.3h-.332c-.045,5.453-3.346,10.631-10.524,11.8l-.228.036,5.466-14.07H44.44L49.958,43.29H44.515V43.6H65.879V43.29H60.413V21.83H66.72c6.419,0,10.1,2.685,10.1,7.365V33c0,.419.03,1.033.064,1.546v.019l-3.39,8.722H69.065V43.6h9.168v-.311H73.852l3.087-7.942c.006.077.01.123.01.123l.085.716.082.473a9.5,9.5,0,0,0,3.554,6.4l.265.18a9.324,9.324,0,0,0,5.174,1.373c2.694,0,4.491-.629,5.974-2.109l-.194-.171a5.668,5.668,0,0,1-3.95,1.66c-2.448,0-3.73-2.781-3.73-5.523V33.132a11.281,11.281,0,0,0-.655-3.9l-.061-.165v-.006h11.2l5.518,14.227H94.768V43.6h18.488v-.311Zm-78.2-14.538L36.793,9.345,44.32,28.752Zm31.167-7.234V1.772h4.814c6.431,0,9.827,3.58,9.827,10.35,0,7.2-1.949,9.4-8.337,9.4Zm22.946,7.234-.033-.077a9.606,9.606,0,0,0-2.135-3.052l-.315-.3-.034-.029,6.2-15.954,7.527,19.407Z" fill="#787878"/>
</svg>
